<svg width="50" height="47" viewBox="0 0 50 47" fill="none" xmlns="http://www.w3.org/2000/svg">
<path d="M22.157 15.5269C22.1569 15.531 22.1569 15.535 22.1568 15.5391L20.9524 15.5202C20.9574 15.6747 20.9423 15.8309 20.9069 15.9889C21.3022 15.8103 21.7185 15.6716 22.1561 15.581L22.157 15.5269ZM22.157 15.5269C22.1708 14.4063 21.661 13.5325 21.1137 12.9227C21.0438 12.8448 20.9734 12.7713 20.9033 12.7021L22.157 15.5269ZM19.1007 16.6141L19.1054 16.6091M19.1007 16.6141L19.6571 15.4999C19.655 15.8513 19.4711 16.221 19.1054 16.6091M19.1007 16.6141L18.5317 16.0688M19.1007 16.6141L18.5317 16.0688M19.1054 16.6091L18.5318 16.0687M19.1054 16.6091L18.5364 16.0639L18.7966 15.7924L18.5709 15.5762L18.4837 15.4926L18.4718 15.4813L18.4617 15.4715C18.4692 15.4263 18.4789 15.4023 18.4788 15.4022C18.4788 15.4022 18.4771 15.4061 18.473 15.4142C18.4677 15.4248 18.4596 15.4396 18.448 15.4584L18.5318 16.0687M18.5318 16.0687L18.5317 16.0688M18.5318 16.0687L18.5317 16.0688M17.5847 15.671L17.6862 15.9462L17.7734 16.1824L17.7817 16.205L18.2012 15.7673C18.2028 15.7655 18.2045 15.7638 18.2061 15.762L18.0999 15.662C18.0483 15.6682 17.9967 15.6728 17.9452 15.6759C17.9131 15.6777 17.8811 15.679 17.8491 15.6797C17.7603 15.6815 17.6721 15.6785 17.5847 15.671ZM17.5847 15.671L17.5167 15.4866L17.5092 15.4661L17.4671 15.352L17.3599 15.4638L17.3391 15.4855L17.2182 15.6117C17.3381 15.6404 17.4606 15.6603 17.5847 15.671ZM17.2846 9.16681L18.0487 7.35315C18.4509 6.39834 18.2225 5.29438 17.4745 4.57754L16.6453 3.78297C15.8968 3.06576 14.7834 2.88485 13.8464 3.3282L4.21581 7.88486C3.47224 8.23668 2.94932 8.93178 2.81739 9.74373C2.68547 10.5557 2.96141 11.3806 3.55535 11.9497L4.53261 12.8862C5.29346 13.6153 6.42979 13.789 7.37372 13.3205L8.27405 12.8737L8.75506 13.3346L8.34591 14.2672C7.92428 15.2283 8.14783 16.3505 8.90561 17.0766L9.87794 18.0084C10.0182 18.1428 10.1721 18.2589 10.3358 18.3557C10.4397 18.5155 10.5623 18.6642 10.7022 18.7982L11.6153 19.6732C12.0698 20.1087 12.646 20.3386 13.2289 20.3655C13.2825 20.9657 13.5515 21.5286 13.9893 21.9481L14.9024 22.8231C15.382 23.2827 15.9971 23.5133 16.6127 23.518C16.8269 24.4584 17.3098 25.3193 18.0605 26.0386C18.4478 26.4098 18.8751 26.7243 19.3365 26.9683C19.4437 27.1388 19.5731 27.2988 19.7246 27.4439L20.5637 28.248C20.8104 28.4844 21.1003 28.6653 21.4141 28.7832C21.5453 29.0917 21.7384 29.3737 21.9851 29.6101L22.8982 30.4851C23.6353 31.1914 24.6927 31.357 25.5798 30.9924C25.6285 32.5797 26.3157 33.9492 27.4333 35.0202C28.452 35.9964 29.6745 36.5918 31.0162 36.6896C30.8616 37.5049 31.1206 38.3642 31.7429 38.9605L32.4833 39.67C32.9759 40.1421 33.6243 40.3802 34.2749 40.3642C34.2867 41.0151 34.5525 41.6528 35.0449 42.1247L35.7853 42.8341C36.5878 43.6032 37.8018 43.75 38.7645 43.1943L45.4367 39.3438C46.1181 38.9506 46.5746 38.2596 46.669 37.4786C46.7635 36.6976 46.4848 35.9177 45.9168 35.3734L45.0037 34.4985C44.573 34.0858 44.025 33.853 43.4616 33.8106C43.395 33.2483 43.1382 32.7108 42.7086 32.2992L41.9732 31.5945C41.5436 31.1829 40.9957 30.9491 40.4311 30.9066C40.3647 30.3453 40.1086 29.8077 39.6781 29.3952L38.77 28.525C38.4166 28.1864 37.977 27.9636 37.5083 27.8742C37.2095 27.0741 36.7134 26.3649 36.0858 25.7635C35.4563 25.1603 34.7186 24.7321 33.9056 24.483C33.8814 24.3431 33.8451 24.2042 33.7963 24.0677C33.5551 23.3925 33.1155 22.9172 32.8332 22.6467C32.5009 22.3282 32.1409 22.0693 31.7606 21.87C31.6703 21.743 31.5669 21.6226 31.4504 21.5109L30.9455 21.0272L31.3631 20.5914C31.8218 20.1127 32.0716 19.4713 32.0575 18.8085C32.0433 18.1456 31.7664 17.5154 31.2877 17.0567L30.3746 16.1817C29.3777 15.2264 27.7952 15.2602 26.8399 16.2571L26.5049 16.6066C25.617 15.8811 24.5717 15.4931 23.4519 15.4624C23.416 14.0728 22.7166 12.9525 21.8661 12.1375C21.4661 11.7542 21.0295 11.4425 20.5641 11.2054C20.4509 11.0147 20.3104 10.836 20.1427 10.6754L19.279 9.84772C18.8003 9.38898 18.1589 9.1392 17.496 9.15333C17.4251 9.15485 17.3546 9.15936 17.2846 9.16681ZM18.5207 16.0803L19.0939 16.6212L17.4487 18.338L18.5207 16.0803Z" fill="#333333" stroke="white" stroke-width="5" stroke-linecap="round" stroke-linejoin="round"/>
</svg>
