<svg width="49" height="50" viewBox="0 0 49 50" fill="none" xmlns="http://www.w3.org/2000/svg">
<mask id="path-1-outside-1" maskUnits="userSpaceOnUse" x="0.559311" y="0.592296" width="47.8646" height="49.8287" fill="black">
<rect fill="white" x="0.559311" y="0.592296" width="47.8646" height="49.8287"/>
<path d="M14.8841 41.9846L7.82052 34.9714L9.80043 32.9778C10.4106 32.3634 11.086 31.955 11.8266 31.7526C12.5671 31.5502 13.3149 31.5701 14.0699 31.8123C14.8282 32.0514 15.5339 32.492 16.1872 33.1342L16.6384 33.5821C17.3047 34.2436 17.76 34.9526 18.0044 35.709C18.252 36.4622 18.2723 37.2114 18.0655 37.9565C17.8618 38.6984 17.4485 39.3895 16.8255 40.0297L14.8841 41.9846ZM9.51196 34.8011L15.0474 40.297L16.0205 39.3172C16.7334 38.5993 17.0643 37.8199 17.0129 36.979C16.9649 36.1348 16.5284 35.3033 15.7037 34.4845L15.2913 34.0751C14.4892 33.2787 13.6788 32.8498 12.8599 32.7882C12.0411 32.7202 11.2848 33.029 10.591 33.7146L9.51196 34.8011Z"/>
<path d="M24.5355 32.2663C24.3806 32.2152 24.1545 32.0743 23.8572 31.8433C23.8763 32.6907 23.5984 33.4039 23.0235 33.9827C22.5097 34.5001 21.9418 34.7809 21.32 34.825C20.6981 34.8626 20.1623 34.6582 19.7128 34.2119C19.1662 33.6692 18.9481 33.0416 19.0583 32.329C19.1686 31.61 19.5979 30.8738 20.3462 30.1203L21.2133 29.2472L20.8009 28.8378C20.4872 28.5263 20.145 28.3728 19.7744 28.3773C19.4006 28.3786 19.0322 28.562 18.6693 28.9274C18.3513 29.2476 18.1656 29.5963 18.1122 29.9735C18.0587 30.3507 18.1468 30.6533 18.3764 30.8813L17.4804 31.7835C17.2184 31.5234 17.0577 31.1808 16.9982 30.7556C16.9387 30.324 16.9951 29.8791 17.1675 29.4209C17.3432 28.9595 17.6205 28.538 17.9994 28.1564C18.6 27.5517 19.2225 27.2288 19.8669 27.1879C20.5081 27.1437 21.1004 27.3785 21.6436 27.8922L24.0596 30.2909C24.5415 30.7694 24.9858 31.0885 25.3924 31.2482L25.4701 31.3252L24.5355 32.2663ZM22.3725 33.0763C22.6519 32.7949 22.8441 32.4559 22.9491 32.0592C23.054 31.6624 23.0463 31.2919 22.9258 30.9475L21.8488 29.8782L21.1503 30.5815C20.0584 31.681 19.8342 32.5503 20.4779 33.1893C20.7592 33.4686 21.0723 33.5932 21.417 33.563C21.7618 33.5328 22.0803 33.3706 22.3725 33.0763Z"/>
<path d="M22.3765 23.943L23.0652 24.5689C22.9589 23.667 23.2269 22.8926 23.8692 22.2459C24.9708 21.1367 26.1522 21.1986 27.4135 22.4316L30.8822 25.8756L29.991 26.7729L26.5174 23.3242C26.1358 22.9517 25.7693 22.7613 25.418 22.7528C25.0699 22.7412 24.7176 22.9148 24.3611 23.2737C24.0721 23.5648 23.896 23.8973 23.8328 24.2714C23.7697 24.6454 23.8033 25.0191 23.9335 25.3924L27.6739 29.1061L26.7827 30.0035L21.5335 24.7918L22.3765 23.943Z"/>
<path d="M33.2932 23.4479L32.402 24.3453L27.1528 19.1336L28.044 18.2362L33.2932 23.4479ZM25.6882 17.8239C25.5427 17.6794 25.4631 17.5138 25.4496 17.3269C25.4392 17.1368 25.5208 16.9545 25.6942 16.7798C25.8676 16.6052 26.0494 16.5224 26.2396 16.5314C26.4298 16.5404 26.5977 16.6171 26.7432 16.7616C26.8887 16.9061 26.9651 17.0718 26.9722 17.2587C26.9793 17.4456 26.8961 17.6263 26.7227 17.801C26.5493 17.9756 26.3691 18.06 26.1821 18.0542C25.9984 18.0452 25.8337 17.9684 25.6882 17.8239Z"/>
<path d="M37.0826 19.8262C36.3761 20.5377 35.5683 20.8853 34.6594 20.8692C33.7472 20.8498 32.8998 20.4516 32.1171 19.6745L31.9522 19.5107C31.4315 18.9938 31.0653 18.4343 30.8537 17.8325C30.6421 17.2242 30.5981 16.6281 30.7217 16.0444C30.8453 15.4543 31.1143 14.9506 31.5286 14.5335C32.2062 13.8511 32.9577 13.544 33.783 13.6119C34.6083 13.6799 35.4398 14.1298 36.2775 14.9615L36.651 15.3324L33.1199 18.8879C33.6502 19.3888 34.2184 19.6542 34.8244 19.6843C35.4304 19.708 35.955 19.4967 36.3982 19.0504C36.7129 18.7335 36.9148 18.4009 37.0038 18.0525C37.0928 17.7042 37.1125 17.3416 37.0628 16.9647L38.0341 16.8405C38.2733 17.9514 37.9561 18.9466 37.0826 19.8262ZM32.266 15.2656C31.9063 15.6278 31.737 16.0634 31.7581 16.5725C31.776 17.0784 31.9938 17.5964 32.4114 18.1267L35.0224 15.4976L34.9545 15.4302C34.4728 15.0033 33.9982 14.7761 33.5308 14.7488C33.0601 14.7182 32.6385 14.8905 32.266 15.2656Z"/>
<path d="M41.1211 15.5657L40.2299 16.4631L32.7782 9.06458L33.6694 8.1672L41.1211 15.5657Z"/>
</mask>
<path d="M14.8841 41.9846L7.82052 34.9714L9.80043 32.9778C10.4106 32.3634 11.086 31.955 11.8266 31.7526C12.5671 31.5502 13.3149 31.5701 14.0699 31.8123C14.8282 32.0514 15.5339 32.492 16.1872 33.1342L16.6384 33.5821C17.3047 34.2436 17.76 34.9526 18.0044 35.709C18.252 36.4622 18.2723 37.2114 18.0655 37.9565C17.8618 38.6984 17.4485 39.3895 16.8255 40.0297L14.8841 41.9846ZM9.51196 34.8011L15.0474 40.297L16.0205 39.3172C16.7334 38.5993 17.0643 37.8199 17.0129 36.979C16.9649 36.1348 16.5284 35.3033 15.7037 34.4845L15.2913 34.0751C14.4892 33.2787 13.6788 32.8498 12.8599 32.7882C12.0411 32.7202 11.2848 33.029 10.591 33.7146L9.51196 34.8011Z" fill="#333333"/>
<path d="M24.5355 32.2663C24.3806 32.2152 24.1545 32.0743 23.8572 31.8433C23.8763 32.6907 23.5984 33.4039 23.0235 33.9827C22.5097 34.5001 21.9418 34.7809 21.32 34.825C20.6981 34.8626 20.1623 34.6582 19.7128 34.2119C19.1662 33.6692 18.9481 33.0416 19.0583 32.329C19.1686 31.61 19.5979 30.8738 20.3462 30.1203L21.2133 29.2472L20.8009 28.8378C20.4872 28.5263 20.145 28.3728 19.7744 28.3773C19.4006 28.3786 19.0322 28.562 18.6693 28.9274C18.3513 29.2476 18.1656 29.5963 18.1122 29.9735C18.0587 30.3507 18.1468 30.6533 18.3764 30.8813L17.4804 31.7835C17.2184 31.5234 17.0577 31.1808 16.9982 30.7556C16.9387 30.324 16.9951 29.8791 17.1675 29.4209C17.3432 28.9595 17.6205 28.538 17.9994 28.1564C18.6 27.5517 19.2225 27.2288 19.8669 27.1879C20.5081 27.1437 21.1004 27.3785 21.6436 27.8922L24.0596 30.2909C24.5415 30.7694 24.9858 31.0885 25.3924 31.2482L25.4701 31.3252L24.5355 32.2663ZM22.3725 33.0763C22.6519 32.7949 22.8441 32.4559 22.9491 32.0592C23.054 31.6624 23.0463 31.2919 22.9258 30.9475L21.8488 29.8782L21.1503 30.5815C20.0584 31.681 19.8342 32.5503 20.4779 33.1893C20.7592 33.4686 21.0723 33.5932 21.417 33.563C21.7618 33.5328 22.0803 33.3706 22.3725 33.0763Z" fill="#333333"/>
<path d="M22.3765 23.943L23.0652 24.5689C22.9589 23.667 23.2269 22.8926 23.8692 22.2459C24.9708 21.1367 26.1522 21.1986 27.4135 22.4316L30.8822 25.8756L29.991 26.7729L26.5174 23.3242C26.1358 22.9517 25.7693 22.7613 25.418 22.7528C25.0699 22.7412 24.7176 22.9148 24.3611 23.2737C24.0721 23.5648 23.896 23.8973 23.8328 24.2714C23.7697 24.6454 23.8033 25.0191 23.9335 25.3924L27.6739 29.1061L26.7827 30.0035L21.5335 24.7918L22.3765 23.943Z" fill="#333333"/>
<path d="M33.2932 23.4479L32.402 24.3453L27.1528 19.1336L28.044 18.2362L33.2932 23.4479ZM25.6882 17.8239C25.5427 17.6794 25.4631 17.5138 25.4496 17.3269C25.4392 17.1368 25.5208 16.9545 25.6942 16.7798C25.8676 16.6052 26.0494 16.5224 26.2396 16.5314C26.4298 16.5404 26.5977 16.6171 26.7432 16.7616C26.8887 16.9061 26.9651 17.0718 26.9722 17.2587C26.9793 17.4456 26.8961 17.6263 26.7227 17.801C26.5493 17.9756 26.3691 18.06 26.1821 18.0542C25.9984 18.0452 25.8337 17.9684 25.6882 17.8239Z" fill="#333333"/>
<path d="M37.0826 19.8262C36.3761 20.5377 35.5683 20.8853 34.6594 20.8692C33.7472 20.8498 32.8998 20.4516 32.1171 19.6745L31.9522 19.5107C31.4315 18.9938 31.0653 18.4343 30.8537 17.8325C30.6421 17.2242 30.5981 16.6281 30.7217 16.0444C30.8453 15.4543 31.1143 14.9506 31.5286 14.5335C32.2062 13.8511 32.9577 13.544 33.783 13.6119C34.6083 13.6799 35.4398 14.1298 36.2775 14.9615L36.651 15.3324L33.1199 18.8879C33.6502 19.3888 34.2184 19.6542 34.8244 19.6843C35.4304 19.708 35.955 19.4967 36.3982 19.0504C36.7129 18.7335 36.9148 18.4009 37.0038 18.0525C37.0928 17.7042 37.1125 17.3416 37.0628 16.9647L38.0341 16.8405C38.2733 17.9514 37.9561 18.9466 37.0826 19.8262ZM32.266 15.2656C31.9063 15.6278 31.737 16.0634 31.7581 16.5725C31.776 17.0784 31.9938 17.5964 32.4114 18.1267L35.0224 15.4976L34.9545 15.4302C34.4728 15.0033 33.9982 14.7761 33.5308 14.7488C33.0601 14.7182 32.6385 14.8905 32.266 15.2656Z" fill="#333333"/>
<path d="M41.1211 15.5657L40.2299 16.4631L32.7782 9.06458L33.6694 8.1672L41.1211 15.5657Z" fill="#333333"/>
<path d="M14.8841 41.9846L9.95213 46.952C12.6953 49.6756 17.1269 49.66 19.8509 46.9172L14.8841 41.9846ZM7.82052 34.9714L2.8537 30.0388C1.54538 31.3562 0.814026 33.1394 0.820559 34.9961C0.827093 36.8527 1.57098 38.6307 2.88854 39.9389L7.82052 34.9714ZM9.80043 32.9778L14.7672 37.9104L14.7672 37.9104L9.80043 32.9778ZM14.0699 31.8123L11.9313 38.4776C11.9427 38.4813 11.954 38.4849 11.9654 38.4885L14.0699 31.8123ZM16.1872 33.1342L21.1192 28.1667C21.111 28.1585 21.1027 28.1504 21.0944 28.1422L16.1872 33.1342ZM16.6384 33.5821L21.5704 28.6147L21.5704 28.6147L16.6384 33.5821ZM18.0044 35.709L11.3434 37.861C11.347 37.8724 11.3507 37.8837 11.3544 37.895L18.0044 35.709ZM18.0655 37.9565L11.3206 36.084C11.3188 36.0905 11.317 36.097 11.3152 36.1035L18.0655 37.9565ZM16.8255 40.0297L21.7923 44.9624C21.8091 44.9455 21.8258 44.9285 21.8424 44.9114L16.8255 40.0297ZM9.51196 34.8011L4.54514 29.8685C3.23682 31.1859 2.50547 32.9691 2.512 34.8258C2.51853 36.6824 3.26242 38.4604 4.57998 39.7686L9.51196 34.8011ZM15.0474 40.297L10.1154 45.2645C12.8586 47.9881 17.2902 47.9725 20.0142 45.2296L15.0474 40.297ZM16.0205 39.3172L20.9873 44.2498L20.9873 44.2498L16.0205 39.3172ZM17.0129 36.979L10.0243 37.3771C10.0248 37.3865 10.0254 37.3959 10.0259 37.4053L17.0129 36.979ZM15.7037 34.4845L10.7717 39.452L10.7717 39.452L15.7037 34.4845ZM15.2913 34.0751L20.2233 29.1076L20.2233 29.1076L15.2913 34.0751ZM12.8599 32.7882L12.2805 39.7642C12.2987 39.7657 12.3169 39.7671 12.3351 39.7685L12.8599 32.7882ZM10.591 33.7146L5.67054 28.7357C5.65503 28.7511 5.63959 28.7665 5.62422 28.782L10.591 33.7146ZM24.5355 32.2663L22.3455 38.9149C24.8636 39.7443 27.6342 39.08 29.5023 37.1989L24.5355 32.2663ZM23.8572 31.8433L28.1516 26.3153C26.0184 24.6581 23.122 24.3763 20.7093 25.591C18.2966 26.8058 16.7981 29.3004 16.859 32.001L23.8572 31.8433ZM23.0235 33.9827L27.9904 38.9154L23.0235 33.9827ZM21.32 34.825L21.7428 41.8122C21.7668 41.8107 21.7909 41.8092 21.8149 41.8074L21.32 34.825ZM19.7128 34.2119L14.7808 39.1794L14.7808 39.1794L19.7128 34.2119ZM19.0583 32.329L25.976 33.3998L25.9774 33.3902L19.0583 32.329ZM20.3462 30.1203L25.313 35.0529L25.313 35.0529L20.3462 30.1203ZM21.2133 29.2472L26.1801 34.1798C27.4884 32.8624 28.2198 31.0792 28.2133 29.2225C28.2067 27.3659 27.4628 25.5879 26.1453 24.2797L21.2133 29.2472ZM20.8009 28.8378L15.869 33.8052L15.869 33.8052L20.8009 28.8378ZM19.7744 28.3773L19.799 35.3773C19.8193 35.3772 19.8396 35.377 19.8599 35.3768L19.7744 28.3773ZM18.6693 28.9274L13.7025 23.9948L18.6693 28.9274ZM18.3764 30.8813L23.3432 35.8139C24.6516 34.4965 25.3829 32.7133 25.3764 30.8567C25.3699 29 24.626 27.222 23.3084 25.9138L18.3764 30.8813ZM17.4804 31.7835L12.5484 36.751C15.2916 39.4746 19.7233 39.459 22.4472 36.7161L17.4804 31.7835ZM16.9982 30.7556L10.0638 31.7121L10.0658 31.726L16.9982 30.7556ZM17.1675 29.4209L10.6254 26.9308C10.6223 26.939 10.6191 26.9473 10.616 26.9555L17.1675 29.4209ZM17.9994 28.1564L22.9662 33.089L22.9662 33.089L17.9994 28.1564ZM19.8669 27.1879L20.3107 34.1738C20.323 34.173 20.3354 34.1722 20.3477 34.1714L19.8669 27.1879ZM21.6436 27.8922L26.5756 22.9248C26.5352 22.8847 26.4944 22.8451 26.453 22.806L21.6436 27.8922ZM24.0596 30.2909L19.1276 35.2584L19.1276 35.2584L24.0596 30.2909ZM25.3924 31.2482L30.3244 26.2807C29.6471 25.6083 28.8395 25.0814 27.9512 24.7326L25.3924 31.2482ZM25.4701 31.3252L30.4369 36.2579C31.7452 34.9405 32.4766 33.1572 32.47 31.3006C32.4635 29.4439 31.7196 27.6659 30.402 26.3577L25.4701 31.3252ZM22.3725 33.0763L17.4057 28.1437L17.4057 28.1437L22.3725 33.0763ZM22.9258 30.9475L29.5333 28.6363C29.1832 27.6354 28.6103 26.7271 27.8578 25.98L22.9258 30.9475ZM21.8488 29.8782L26.7808 24.9107C24.0376 22.1871 19.606 22.2027 16.882 24.9455L21.8488 29.8782ZM21.1503 30.5815L16.1835 25.6489L16.1835 25.6489L21.1503 30.5815ZM20.4779 33.1893L25.4098 28.2218L25.4098 28.2218L20.4779 33.1893ZM22.3765 23.943L27.0848 18.763C24.313 16.2436 20.0491 16.3526 17.4097 19.0103L22.3765 23.943ZM23.0652 24.5689L18.357 29.7489C20.5179 31.7131 23.6712 32.1294 26.2678 30.7933C28.8645 29.4573 30.3589 26.6496 30.0171 23.7495L23.0652 24.5689ZM23.8692 22.2459L28.836 27.1785L23.8692 22.2459ZM27.4135 22.4316L32.3455 17.4642C32.3326 17.4514 32.3197 17.4387 32.3068 17.4261L27.4135 22.4316ZM30.8822 25.8756L35.849 30.8082C37.1574 29.4908 37.8887 27.7076 37.8822 25.8509C37.8756 23.9943 37.1318 22.2163 35.8142 20.9081L30.8822 25.8756ZM29.991 26.7729L25.059 31.7404C27.8022 34.464 32.2339 34.4484 34.9578 31.7056L29.991 26.7729ZM26.5174 23.3242L31.4494 18.3567C31.4353 18.3427 31.421 18.3287 31.4068 18.3147L26.5174 23.3242ZM25.418 22.7528L25.1836 29.7489C25.2057 29.7496 25.2279 29.7503 25.2501 29.7508L25.418 22.7528ZM24.3611 23.2737L29.3279 28.2064L24.3611 23.2737ZM23.9335 25.3924L17.324 27.6979C17.6739 28.7011 18.2476 29.6114 19.0015 30.3599L23.9335 25.3924ZM27.6739 29.1061L32.6407 34.0387C33.949 32.7214 34.6804 30.9382 34.6738 29.0815C34.6673 27.2248 33.9234 25.4468 32.6059 24.1387L27.6739 29.1061ZM26.7827 30.0035L21.8507 34.971C24.5939 37.6946 29.0255 37.679 31.7495 34.9361L26.7827 30.0035ZM21.5335 24.7918L16.5667 19.8592C15.2584 21.1766 14.527 22.9598 14.5335 24.8165C14.5401 26.6731 15.284 28.4511 16.6015 29.7593L21.5335 24.7918ZM33.2932 23.4479L38.26 28.3805C39.5683 27.0631 40.2997 25.2799 40.2931 23.4232C40.2866 21.5666 39.5427 19.7886 38.2252 18.4804L33.2932 23.4479ZM32.402 24.3453L27.47 29.3127C30.2132 32.0363 34.6448 32.0207 37.3688 29.2779L32.402 24.3453ZM27.1528 19.1336L22.186 14.2009C20.8777 15.5183 20.1463 17.3015 20.1529 19.1582C20.1594 21.0149 20.9033 22.7929 22.2208 24.101L27.1528 19.1336ZM28.044 18.2362L32.976 13.2687C30.2328 10.5451 25.8012 10.5607 23.0772 13.3036L28.044 18.2362ZM25.4496 17.3269L18.4599 17.707C18.4622 17.7491 18.4649 17.7912 18.4679 17.8332L25.4496 17.3269ZM26.1821 18.0542L25.8388 25.0458C25.8811 25.0479 25.9233 25.0496 25.9655 25.0509L26.1821 18.0542ZM37.0826 19.8262L42.0494 24.7589L42.0494 24.7589L37.0826 19.8262ZM34.6594 20.8692L34.5109 27.8676C34.519 27.8678 34.5271 27.8679 34.5351 27.8681L34.6594 20.8692ZM32.1171 19.6745L27.1852 24.642L27.1852 24.642L32.1171 19.6745ZM31.9522 19.5107L36.8842 14.5433L36.8842 14.5433L31.9522 19.5107ZM30.8537 17.8325L24.2424 20.1326C24.2449 20.1398 24.2474 20.147 24.25 20.1543L30.8537 17.8325ZM30.7217 16.0444L37.5698 17.495C37.5709 17.4898 37.5719 17.4847 37.573 17.4795L30.7217 16.0444ZM31.5286 14.5335L36.4954 19.4661L31.5286 14.5335ZM36.2775 14.9615L31.3455 19.9289L31.3455 19.9289L36.2775 14.9615ZM36.651 15.3324L41.6178 20.265C42.9261 18.9476 43.6575 17.1644 43.651 15.3077C43.6444 13.4511 42.9005 11.673 41.583 10.3649L36.651 15.3324ZM33.1199 18.8879L28.1531 13.9553C26.8234 15.2942 26.0906 17.1133 26.1208 19C26.151 20.8868 26.9417 22.6814 28.3136 23.9771L33.1199 18.8879ZM34.8244 19.6843L34.4772 26.6757C34.502 26.6769 34.5267 26.678 34.5515 26.679L34.8244 19.6843ZM36.3982 19.0504L31.4314 14.1178L31.4314 14.1178L36.3982 19.0504ZM37.0628 16.9647L36.1745 10.0213C34.3285 10.2575 32.6524 11.2191 31.5169 12.6937C30.3813 14.1682 29.8797 16.0343 30.1229 17.8794L37.0628 16.9647ZM38.0341 16.8405L44.8773 15.3671C44.112 11.8125 40.7525 9.43563 37.1458 9.89705L38.0341 16.8405ZM32.266 15.2656L37.2328 20.1982L37.2328 20.1982L32.266 15.2656ZM31.7581 16.5725L38.7538 16.325C38.7532 16.3107 38.7527 16.2965 38.7521 16.2822L31.7581 16.5725ZM32.4114 18.1267L26.9122 22.4579C28.1526 24.0327 30.0085 25.0001 32.0098 25.1151C34.0111 25.2302 35.9657 24.4816 37.3782 23.0593L32.4114 18.1267ZM35.0224 15.4976L39.9892 20.4302C41.2975 19.1128 42.0289 17.3296 42.0224 15.473C42.0158 13.6163 41.2719 11.8383 39.9544 10.5301L35.0224 15.4976ZM34.9545 15.4302L39.8864 10.4627C39.7926 10.3695 39.6961 10.279 39.5971 10.1913L34.9545 15.4302ZM33.5308 14.7488L33.0771 21.7341C33.0919 21.735 33.1068 21.7359 33.1217 21.7368L33.5308 14.7488ZM41.1211 15.5657L46.088 20.4983C47.3963 19.1809 48.1276 17.3977 48.1211 15.541C48.1146 13.6844 47.3707 11.9064 46.0531 10.5982L41.1211 15.5657ZM40.2299 16.4631L35.298 21.4305C38.0412 24.1541 42.4728 24.1385 45.1967 21.3957L40.2299 16.4631ZM32.7782 9.06458L27.8114 4.13196C26.5031 5.44935 25.7717 7.23255 25.7783 9.08922C25.7848 10.9459 26.5287 12.7239 27.8463 14.032L32.7782 9.06458ZM33.6694 8.1672L38.6014 3.19975C35.8582 0.476146 31.4266 0.491739 28.7026 3.23458L33.6694 8.1672ZM19.8161 37.0171L12.7525 30.004L2.88854 39.9389L9.95213 46.952L19.8161 37.0171ZM12.7873 39.9041L14.7672 37.9104L4.83362 28.0452L2.8537 30.0388L12.7873 39.9041ZM14.7672 37.9104C14.7077 37.9704 14.5837 38.0816 14.3868 38.2006C14.186 38.322 13.9438 38.4306 13.672 38.5049L9.98111 25.0002C7.91364 25.5653 6.1945 26.6749 4.83362 28.0452L14.7672 37.9104ZM13.672 38.5049C13.3982 38.5797 13.0861 38.622 12.7564 38.6132C12.4284 38.6045 12.1476 38.547 11.9313 38.4776L16.2086 25.147C14.2068 24.5048 12.0748 24.428 9.98111 25.0002L13.672 38.5049ZM11.9654 38.4885C11.5195 38.3479 11.2944 38.1403 11.28 38.1261L21.0944 28.1422C19.7734 26.8437 18.1369 25.7548 16.1745 25.1362L11.9654 38.4885ZM11.2553 38.1016L11.7064 38.5496L21.5704 28.6147L21.1192 28.1667L11.2553 38.1016ZM11.7064 38.5496C11.723 38.5661 11.4995 38.3442 11.3434 37.861L24.6654 33.557C24.0205 31.561 22.8863 29.9212 21.5704 28.6147L11.7064 38.5496ZM11.3544 37.895C11.2785 37.6641 11.2172 37.3683 11.2079 37.026C11.1986 36.6822 11.2436 36.361 11.3206 36.084L24.8103 39.8291C25.397 37.7161 25.3222 35.5548 24.6543 33.523L11.3544 37.895ZM11.3152 36.1035C11.4715 35.534 11.7412 35.2173 11.8086 35.148L21.8424 44.9114C23.1558 43.5616 24.2521 41.8628 24.8157 39.8095L11.3152 36.1035ZM11.8587 35.0971L9.91729 37.0519L19.8509 46.9172L21.7923 44.9624L11.8587 35.0971ZM4.57998 39.7686L10.1154 45.2645L19.9793 35.3295L14.4439 29.8337L4.57998 39.7686ZM20.0142 45.2296L20.9873 44.2498L11.0536 34.3845L10.0806 35.3644L20.0142 45.2296ZM20.9873 44.2498C22.7987 42.4258 24.1972 39.7847 24 36.5527L10.0259 37.4053C9.98525 36.7384 10.104 36.0617 10.3597 35.4591C10.603 34.886 10.9022 34.537 11.0536 34.3845L20.9873 44.2498ZM24.0016 36.5808C23.8236 33.4571 22.2245 31.0945 20.6357 29.517L10.7717 39.452C10.8324 39.5122 10.1061 38.8125 10.0243 37.3771L24.0016 36.5808ZM20.6357 29.5171L20.2233 29.1076L10.3594 39.0425L10.7717 39.452L20.6357 29.5171ZM20.2233 29.1076C18.683 27.5783 16.3983 26.0345 13.3848 25.8079L12.3351 39.7685C10.9592 39.665 10.2955 38.9791 10.3594 39.0425L20.2233 29.1076ZM13.4394 25.8122C10.1982 25.543 7.51853 26.9094 5.67054 28.7357L15.5115 38.6934C15.33 38.8728 14.9434 39.1967 14.3246 39.4494C13.6754 39.7144 12.9636 39.8209 12.2805 39.7642L13.4394 25.8122ZM5.62422 28.782L4.54514 29.8685L14.4788 39.7338L15.5579 38.6472L5.62422 28.782ZM26.7255 25.6177C27.0988 25.7406 27.3828 25.8727 27.5564 25.9601C27.7376 26.0514 27.8726 26.1319 27.9537 26.1825C28.1083 26.2789 28.1812 26.3384 28.1516 26.3153L19.5628 37.3712C19.8814 37.6187 20.9379 38.4512 22.3455 38.9149L26.7255 25.6177ZM16.859 32.001C16.85 31.6018 16.9105 31.0633 17.1408 30.4723C17.3733 29.8755 17.7123 29.3969 18.0567 29.0501L27.9904 38.9154C29.9638 36.9283 30.9155 34.352 30.8554 31.6856L16.859 32.001ZM18.0567 29.0501C18.2625 28.8429 18.607 28.555 19.11 28.3063C19.6275 28.0505 20.2143 27.8858 20.825 27.8425L21.8149 41.8074C24.4066 41.6237 26.4971 40.4189 27.9904 38.9154L18.0567 29.0501ZM20.8971 27.8377C21.4924 27.8017 22.2065 27.8773 22.9466 28.1596C23.6837 28.4408 24.2491 28.8516 24.6448 29.2444L14.7808 39.1794C16.6188 41.0042 19.0918 41.9726 21.7428 41.8122L20.8971 27.8377ZM24.6448 29.2444C25.0071 29.6042 25.459 30.1953 25.7512 31.036C26.0494 31.8938 26.0806 32.7236 25.976 33.3998L12.1407 31.2583C11.6612 34.3565 12.771 37.1839 14.7808 39.1794L24.6448 29.2444ZM25.9774 33.3902C25.7811 34.6704 25.1492 35.2179 25.313 35.0529L15.3794 25.1877C14.0466 26.5297 12.5561 28.5497 12.1392 31.2679L25.9774 33.3902ZM25.313 35.0529L26.1801 34.1798L16.2465 24.3146L15.3794 25.1877L25.313 35.0529ZM26.1453 24.2797L25.7329 23.8703L15.869 33.8052L16.2813 34.2146L26.1453 24.2797ZM25.7329 23.8703C24.363 22.5102 22.2932 21.346 19.689 21.3778L19.8599 35.3768C19.0167 35.3871 18.1891 35.2101 17.4442 34.876C16.7224 34.5522 16.2054 34.1392 15.869 33.8052L25.7329 23.8703ZM19.7498 21.3774C16.9092 21.3874 14.8692 22.8199 13.7025 23.9948L23.6361 33.86C23.1951 34.3041 21.8919 35.3699 19.799 35.3773L19.7498 21.3774ZM13.7025 23.9948C12.5234 25.182 11.4836 26.8588 11.1814 28.9912L25.0429 30.9557C24.8476 32.3337 24.1792 33.3131 23.6361 33.86L13.7025 23.9948ZM11.1814 28.9912C10.8802 31.1167 11.3568 33.776 13.4445 35.8488L23.3084 25.9138C24.012 26.6124 24.5625 27.5078 24.8592 28.5269C25.1445 29.5069 25.127 30.3625 25.0429 30.9557L11.1814 28.9912ZM13.4096 25.9487L12.5136 26.8509L22.4472 36.7161L23.3432 35.8139L13.4096 25.9487ZM22.4124 26.8161C23.4067 27.8033 23.814 28.952 23.9306 29.7853L10.0658 31.726C10.3014 33.4096 11.0301 35.2435 12.5484 36.751L22.4124 26.8161ZM23.9325 29.7992C24.0511 30.6591 23.9056 31.3906 23.719 31.8863L10.616 26.9555C10.0846 28.3677 9.82616 29.989 10.0638 31.7121L23.9325 29.7992ZM23.7096 31.911C23.5067 32.4441 23.2152 32.8383 22.9662 33.089L13.0326 23.2238C12.0257 24.2377 11.1796 25.4748 10.6254 26.9308L23.7096 31.911ZM22.9662 33.089C22.7537 33.303 21.8589 34.0755 20.3107 34.1738L19.4232 20.202C16.586 20.3822 14.4463 21.8003 13.0326 23.2238L22.9662 33.089ZM20.3477 34.1714C19.635 34.2204 18.897 34.1096 18.2124 33.8382C17.5514 33.5762 17.0985 33.2283 16.8342 32.9784L26.453 22.806C24.7428 21.1889 22.3018 20.0037 19.3861 20.2044L20.3477 34.1714ZM16.7117 32.8597L19.1276 35.2584L28.9916 25.3235L26.5756 22.9248L16.7117 32.8597ZM19.1276 35.2584C19.9509 36.0758 21.1843 37.116 22.8337 37.7637L27.9512 24.7326C28.4041 24.9104 28.7007 25.1052 28.8376 25.2035C28.9787 25.3048 29.0292 25.3609 28.9916 25.3235L19.1276 35.2584ZM20.4605 36.2156L20.5381 36.2927L30.402 26.3577L30.3244 26.2807L20.4605 36.2156ZM20.5032 26.3926L19.5687 27.3336L29.5023 37.1989L30.4369 36.2579L20.5032 26.3926ZM27.3394 38.0089C28.5152 36.8249 29.3087 35.39 29.7163 33.8495L16.1819 30.2689C16.3795 29.5218 16.7887 28.765 17.4057 28.1437L27.3394 38.0089ZM29.7163 33.8495C30.1327 32.2753 30.172 30.4623 29.5333 28.6363L16.3184 33.2587C15.9206 32.1215 15.9754 31.0495 16.1819 30.2689L29.7163 33.8495ZM27.8578 25.98L26.7808 24.9107L16.9169 34.8456L17.9939 35.9149L27.8578 25.98ZM16.882 24.9455L16.1835 25.6489L26.1171 35.5141L26.8156 34.8108L16.882 24.9455ZM16.1835 25.6489C15.3179 26.5205 13.9583 28.0871 13.385 30.3102C12.6442 33.1829 13.4823 36.1079 15.5459 38.1567L25.4098 28.2218C25.9728 28.7807 26.5803 29.635 26.9019 30.7913C27.2245 31.9514 27.1466 33.0107 26.9415 33.806C26.5924 35.1598 25.8908 35.742 26.1171 35.5141L16.1835 25.6489ZM15.5459 38.1567C17.0517 39.6518 19.3185 40.7738 22.0282 40.5363L20.8059 26.5897C21.6914 26.5121 22.6251 26.6354 23.5118 26.9883C24.3731 27.331 24.9975 27.8125 25.4098 28.2218L15.5459 38.1567ZM22.0282 40.5363C24.3323 40.3343 26.1234 39.2333 27.3394 38.0089L17.4057 28.1437C18.0372 27.5078 19.1913 26.7312 20.8059 26.5897L22.0282 40.5363ZM17.6683 29.123L18.357 29.7489L27.7735 19.3889L27.0848 18.763L17.6683 29.123ZM30.0171 23.7495C30.074 24.2321 30.0487 24.8869 29.8015 25.6012C29.5546 26.3146 29.1717 26.8405 28.836 27.1785L18.9024 17.3133C16.7626 19.4679 15.7561 22.3576 16.1134 25.3883L30.0171 23.7495ZM28.836 27.1785C28.459 27.5581 27.2014 28.5549 25.2152 28.4508C23.4395 28.3578 22.5258 27.4426 22.5202 27.4371L32.3068 17.4261C31.0399 16.1876 28.9048 14.625 25.9478 14.47C22.7801 14.304 20.381 15.8245 18.9024 17.3133L28.836 27.1785ZM22.4815 27.3991L25.9502 30.843L35.8142 20.9081L32.3455 17.4642L22.4815 27.3991ZM25.9154 20.9429L25.0242 21.8403L34.9578 31.7056L35.849 30.8082L25.9154 20.9429ZM34.923 21.8055L31.4494 18.3567L21.5855 28.2916L25.059 31.7404L34.923 21.8055ZM31.4068 18.3147C30.3966 17.3288 28.4306 15.8231 25.586 15.7548L25.2501 29.7508C23.1081 29.6994 21.875 28.5746 21.6281 28.3336L31.4068 18.3147ZM25.6525 15.7567C22.6184 15.6551 20.4941 17.2338 19.3943 18.3411L29.3279 28.2064C28.9411 28.5958 27.5214 29.8272 25.1836 29.7489L25.6525 15.7567ZM19.3943 18.3411C18.1738 19.5701 17.2541 21.1891 16.9305 23.1062L30.7352 25.4366C30.5379 26.6055 29.9704 27.5595 29.3279 28.2064L19.3943 18.3411ZM16.9305 23.1062C16.6626 24.6935 16.8224 26.2599 17.324 27.6979L30.5429 23.087C30.7841 23.7783 30.8769 24.5973 30.7352 25.4366L16.9305 23.1062ZM19.0015 30.3599L22.7419 34.0736L32.6059 24.1387L28.8655 20.425L19.0015 30.3599ZM22.7071 24.1735L21.8159 25.0709L31.7495 34.9361L32.6407 34.0387L22.7071 24.1735ZM31.7147 25.0361L26.4655 19.8244L16.6015 29.7593L21.8507 34.971L31.7147 25.0361ZM26.5003 29.7244L27.3434 28.8756L17.4097 19.0103L16.5667 19.8592L26.5003 29.7244ZM28.3264 18.5153L27.4352 19.4126L37.3688 29.2779L38.26 28.3805L28.3264 18.5153ZM37.334 19.3778L32.0848 14.1661L22.2208 24.101L27.47 29.3127L37.334 19.3778ZM32.1196 24.0662L33.0108 23.1688L23.0772 13.3036L22.186 14.2009L32.1196 24.0662ZM23.112 23.2037L28.3612 28.4153L38.2252 18.4804L32.976 13.2687L23.112 23.2037ZM30.6202 12.8565C31.5516 13.7813 32.3106 15.1573 32.4312 16.8206L18.4679 17.8332C18.6156 19.8702 19.5337 21.5776 20.7562 22.7914L30.6202 12.8565ZM32.4392 16.9468C32.5659 19.2749 31.4493 20.9187 30.661 21.7124L20.7274 11.8472C19.5923 12.9902 18.3126 14.9987 18.4599 17.707L32.4392 16.9468ZM30.661 21.7124C29.8726 22.5063 28.2369 23.6337 25.9088 23.5236L26.5705 9.53921C23.8619 9.41105 21.8626 10.7041 20.7274 11.8472L30.661 21.7124ZM25.9088 23.5236C24.2273 23.444 22.7925 22.7033 21.8112 21.7291L31.6752 11.7942C30.4028 10.5309 28.6323 9.63677 26.5705 9.53921L25.9088 23.5236ZM21.8112 21.7291C20.8308 20.7556 20.0442 19.2876 19.9772 17.5246L33.9671 16.9928C33.8859 14.8561 32.9467 13.0566 31.6752 11.7942L21.8112 21.7291ZM19.9772 17.5246C19.8893 15.2116 21.0153 13.614 21.7559 12.8683L31.6895 22.7336C32.7769 21.6387 34.0693 19.6796 33.9671 16.9928L19.9772 17.5246ZM21.7559 12.8683C22.4965 12.1226 24.0858 10.986 26.3987 11.0576L25.9655 25.0509C28.6523 25.1341 30.602 23.8286 31.6895 22.7336L21.7559 12.8683ZM26.5254 11.0626C28.2711 11.1484 29.6905 11.9334 30.6202 12.8565L20.7562 22.7914C21.977 24.0035 23.7257 24.942 25.8388 25.0458L26.5254 11.0626ZM32.1158 14.8936C32.3055 14.7026 32.6542 14.4169 33.1795 14.1908C33.7193 13.9585 34.2792 13.8613 34.7837 13.8703L34.5351 27.8681C37.5585 27.9218 40.1514 26.6701 42.0494 24.7589L32.1158 14.8936ZM34.8079 13.8708C35.3567 13.8824 35.8783 14.0146 36.3168 14.2207C36.7344 14.4169 36.9708 14.6293 37.0491 14.7071L27.1852 24.642C28.9605 26.4046 31.4411 27.8025 34.5109 27.8676L34.8079 13.8708ZM37.0491 14.7071L36.8842 14.5433L27.0202 24.4782L27.1852 24.642L37.0491 14.7071ZM36.8842 14.5433C37.0006 14.6589 37.2695 14.9762 37.4574 15.5107L24.25 20.1543C24.8611 21.8925 25.8623 23.3286 27.0202 24.4782L36.8842 14.5433ZM37.465 15.5324C37.6381 16.03 37.7315 16.7312 37.5698 17.495L23.8736 14.5939C23.4646 16.525 23.646 18.4183 24.2424 20.1326L37.465 15.5324ZM37.573 17.4795C37.4269 18.1769 37.0593 18.8982 36.4954 19.4661L26.5618 9.60083C25.1692 11.003 24.2637 12.7316 23.8704 14.6093L37.573 17.4795ZM36.4954 19.4661C36.293 19.6699 35.8867 20.0102 35.249 20.2709C34.5833 20.543 33.8713 20.6429 33.2082 20.5883L34.3577 6.63558C31.1315 6.36979 28.4336 7.71605 26.5618 9.60083L36.4954 19.4661ZM33.2082 20.5883C31.8129 20.4734 31.1885 19.7731 31.3455 19.9289L41.2094 9.99401C39.691 8.48647 37.4037 6.88652 34.3577 6.63558L33.2082 20.5883ZM31.3455 19.9289L31.719 20.2998L41.583 10.3649L41.2094 9.99401L31.3455 19.9289ZM31.6842 10.3997L28.1531 13.9553L38.0867 23.8205L41.6178 20.265L31.6842 10.3997ZM28.3136 23.9771C29.8001 25.3809 31.8846 26.547 34.4772 26.6757L35.1716 12.6929C36.5522 12.7615 37.5004 13.3966 37.9262 13.7988L28.3136 23.9771ZM34.5515 26.679C37.1964 26.7822 39.5989 25.7614 41.365 23.983L31.4314 14.1178C31.8043 13.7423 32.3437 13.3379 33.057 13.0505C33.7763 12.7608 34.4855 12.6658 35.0974 12.6897L34.5515 26.679ZM41.365 23.983C42.348 22.9933 43.3212 21.604 43.7859 19.7856L30.2218 16.3194C30.5084 15.1978 31.0779 14.4737 31.4314 14.1178L41.365 23.983ZM43.7859 19.7856C44.1083 18.524 44.1623 17.2602 44.0028 16.05L30.1229 17.8794C30.0627 17.423 30.0774 16.8843 30.2218 16.3194L43.7859 19.7856ZM37.9511 23.9081L38.9224 23.7839L37.1458 9.89705L36.1745 10.0213L37.9511 23.9081ZM31.1909 18.3138C31.0767 17.7831 31.0616 17.0619 31.3061 16.2946C31.542 15.5544 31.9158 15.095 32.1158 14.8936L42.0494 24.7589C44.4116 22.3803 45.6665 19.0326 44.8773 15.3671L31.1909 18.3138ZM27.2992 10.333C25.569 12.0752 24.662 14.4024 24.7641 16.8628L38.7521 16.2822C38.7779 16.9041 38.6893 17.6393 38.3939 18.3994C38.0987 19.1592 37.6685 19.7595 37.2328 20.1982L27.2992 10.333ZM24.7625 16.82C24.848 19.2365 25.8785 21.1454 26.9122 22.4579L37.9106 13.7955C38.1091 14.0475 38.7041 14.9202 38.7538 16.325L24.7625 16.82ZM37.3782 23.0593L39.9892 20.4302L30.0556 10.565L27.4446 13.1941L37.3782 23.0593ZM39.9544 10.5301L39.8864 10.4627L30.0225 20.3976L30.0904 20.4651L39.9544 10.5301ZM39.5971 10.1913C38.3754 9.10857 36.4702 7.90884 33.9398 7.76073L33.1217 21.7368C31.5262 21.6434 30.5701 20.8979 30.3118 20.669L39.5971 10.1913ZM33.9845 7.76349C31.2376 7.58507 28.9045 8.71654 27.2992 10.333L37.2328 20.1982C36.8629 20.5707 36.2959 21.0136 35.5094 21.3349C34.7026 21.6646 33.8617 21.785 33.0771 21.7341L33.9845 7.76349ZM36.1543 10.6331L35.2631 11.5304L45.1967 21.3957L46.088 20.4983L36.1543 10.6331ZM45.1619 11.4956L37.7102 4.09713L27.8463 14.032L35.298 21.4305L45.1619 11.4956ZM37.745 13.9972L38.6363 13.0998L28.7026 3.23458L27.8114 4.13196L37.745 13.9972ZM28.7375 13.1347L36.1892 20.5331L46.0531 10.5982L38.6014 3.19975L28.7375 13.1347Z" fill="white" mask="url(#path-1-outside-1)"/>
</svg>
