<svg width="48" height="49" viewBox="0 0 48 49" fill="none" xmlns="http://www.w3.org/2000/svg">
<mask id="path-1-outside-1" maskUnits="userSpaceOnUse" x="0.652069" y="0.519287" width="47" height="48" fill="black">
<rect fill="white" x="0.652069" y="0.519287" width="47" height="48"/>
<path d="M11.0275 17.9559L10.1004 17.0172L12.0361 8.06241L6.5792 13.4523L5.65207 12.5136L12.7333 5.51929L13.6605 6.45794L11.7101 15.4465L17.1912 10.0326L18.1088 10.9616L11.0275 17.9559Z"/>
<path d="M13.4918 20.4508L12.6031 19.5511L17.8655 14.3534L18.7542 15.2531L13.4918 20.4508ZM19.1892 12.9018C19.3351 12.7576 19.5016 12.6797 19.6886 12.668C19.8787 12.6595 20.0603 12.7428 20.2332 12.9179C20.4062 13.093 20.4872 13.2755 20.4764 13.4656C20.4655 13.6557 20.3872 13.8228 20.2413 13.9669C20.0954 14.111 19.9289 14.1857 19.742 14.191C19.555 14.1963 19.3751 14.1114 19.2022 13.9363C19.0292 13.7612 18.9466 13.5802 18.9542 13.3934C18.965 13.2097 19.0433 13.0459 19.1892 12.9018Z"/>
<path d="M18.8059 20.9574L17.6602 20.9745L15.8121 22.7999L14.9234 21.9002L22.3937 14.5216L23.2824 15.4213L18.7642 19.884L19.8186 19.7939L23.1688 19.7227L24.2497 20.817L20.029 20.9408L19.2228 26.253L18.1803 25.1976L18.8059 20.9574Z"/>
<path d="M22.3493 24.0584C22.8648 23.5492 23.4278 23.1918 24.0381 22.9861C24.6516 22.7836 25.248 22.7519 25.8272 22.8908C26.4096 23.033 26.9298 23.3359 27.3878 23.7995C28.0955 24.5161 28.4191 25.3398 28.3586 26.2708C28.3013 27.205 27.8608 28.0788 27.0373 28.8922L26.974 28.9547C26.4617 29.4607 25.9036 29.8165 25.2998 30.0223C24.7023 30.228 24.1092 30.2598 23.5203 30.1176C22.9347 29.9787 22.4081 29.6725 21.9405 29.1991C21.2359 28.4858 20.9123 27.662 20.9697 26.7278C21.0302 25.7969 21.469 24.9279 22.2861 24.1209L22.3493 24.0584ZM23.1358 25.0687C22.5522 25.6452 22.2166 26.2425 22.129 26.8607C22.0446 27.4821 22.2265 28.0198 22.6749 28.4737C23.1264 28.9309 23.6635 29.1179 24.2859 29.0347C24.9116 28.9484 25.5471 28.5865 26.1923 27.9492C26.7695 27.3792 27.1003 26.7802 27.1847 26.1523C27.2756 25.5245 27.0968 24.9836 26.6485 24.5297C26.2098 24.0855 25.6792 23.9018 25.0567 23.9785C24.4343 24.0552 23.794 24.4186 23.1358 25.0687Z"/>
<path d="M26.4813 33.6018L25.5926 32.702L33.0629 25.3234L33.9516 26.2232L26.4813 33.6018Z"/>
<path d="M31.1169 38.2951C31.1694 38.1407 31.3126 37.916 31.5465 37.621C30.6989 37.6318 29.9884 37.3471 29.4152 36.7667C28.9028 36.2479 28.6276 35.6775 28.5895 35.0553C28.5579 34.4331 28.7674 33.8995 29.2181 33.4543C29.7661 32.9131 30.3958 32.7011 31.1073 32.8183C31.8252 32.9355 32.5572 33.3718 33.3034 34.1273L34.1681 35.0027L34.5815 34.5944C34.896 34.2838 35.0528 33.9431 35.0518 33.5725C35.0541 33.1987 34.8744 32.8286 34.5125 32.4623C34.1954 32.1413 33.8486 31.9522 33.4719 31.8951C33.0952 31.838 32.7917 31.9231 32.5615 32.1505L31.668 31.2459C31.9307 30.9865 32.2748 30.8291 32.7005 30.7737C33.1327 30.7184 33.577 30.7791 34.0336 30.956C34.4933 31.1361 34.9121 31.4174 35.29 31.8C35.8888 32.4063 36.2056 33.0318 36.2403 33.6766C36.2782 34.3181 36.0377 34.9079 35.5188 35.4461L33.0968 37.8384C32.6137 38.3156 32.2903 38.7567 32.1267 39.1617L32.0489 39.2386L31.1169 38.2951ZM30.3279 36.1246C30.6065 36.4067 30.9437 36.6021 31.3394 36.7109C31.7351 36.8197 32.1057 36.8156 32.4513 36.6985L33.531 35.632L32.8344 34.9268C31.7455 33.8244 30.8785 33.5919 30.2333 34.2292C29.9512 34.5078 29.8236 34.8196 29.8505 35.1646C29.8773 35.5096 30.0365 35.8296 30.3279 36.1246Z"/>
<path d="M36.2011 40.8062L41.356 38.136L42.3071 39.0989L34.1429 42.9832C32.9441 43.5204 31.9923 43.4324 31.2878 42.7191L31.1342 42.5344L30.866 42.1364L31.5955 41.4158L31.8163 41.6782C32.1173 41.983 32.4127 42.1588 32.7024 42.2057C32.9954 42.2559 33.36 42.1744 33.7964 41.9612L34.5283 41.6321L37.878 34.6148L38.8484 35.5972L36.2011 40.8062Z"/>
</mask>
<path d="M11.0275 17.9559L10.1004 17.0172L12.0361 8.06241L6.5792 13.4523L5.65207 12.5136L12.7333 5.51929L13.6605 6.45794L11.7101 15.4465L17.1912 10.0326L18.1088 10.9616L11.0275 17.9559Z" fill="#333333"/>
<path d="M13.4918 20.4508L12.6031 19.5511L17.8655 14.3534L18.7542 15.2531L13.4918 20.4508ZM19.1892 12.9018C19.3351 12.7576 19.5016 12.6797 19.6886 12.668C19.8787 12.6595 20.0603 12.7428 20.2332 12.9179C20.4062 13.093 20.4872 13.2755 20.4764 13.4656C20.4655 13.6557 20.3872 13.8228 20.2413 13.9669C20.0954 14.111 19.9289 14.1857 19.742 14.191C19.555 14.1963 19.3751 14.1114 19.2022 13.9363C19.0292 13.7612 18.9466 13.5802 18.9542 13.3934C18.965 13.2097 19.0433 13.0459 19.1892 12.9018Z" fill="#333333"/>
<path d="M18.8059 20.9574L17.6602 20.9745L15.8121 22.7999L14.9234 21.9002L22.3937 14.5216L23.2824 15.4213L18.7642 19.884L19.8186 19.7939L23.1688 19.7227L24.2497 20.817L20.029 20.9408L19.2228 26.253L18.1803 25.1976L18.8059 20.9574Z" fill="#333333"/>
<path d="M22.3493 24.0584C22.8648 23.5492 23.4278 23.1918 24.0381 22.9861C24.6516 22.7836 25.248 22.7519 25.8272 22.8908C26.4096 23.033 26.9298 23.3359 27.3878 23.7995C28.0955 24.5161 28.4191 25.3398 28.3586 26.2708C28.3013 27.205 27.8608 28.0788 27.0373 28.8922L26.974 28.9547C26.4617 29.4607 25.9036 29.8165 25.2998 30.0223C24.7023 30.228 24.1092 30.2598 23.5203 30.1176C22.9347 29.9787 22.4081 29.6725 21.9405 29.1991C21.2359 28.4858 20.9123 27.662 20.9697 26.7278C21.0302 25.7969 21.469 24.9279 22.2861 24.1209L22.3493 24.0584ZM23.1358 25.0687C22.5522 25.6452 22.2166 26.2425 22.129 26.8607C22.0446 27.4821 22.2265 28.0198 22.6749 28.4737C23.1264 28.9309 23.6635 29.1179 24.2859 29.0347C24.9116 28.9484 25.5471 28.5865 26.1923 27.9492C26.7695 27.3792 27.1003 26.7802 27.1847 26.1523C27.2756 25.5245 27.0968 24.9836 26.6485 24.5297C26.2098 24.0855 25.6792 23.9018 25.0567 23.9785C24.4343 24.0552 23.794 24.4186 23.1358 25.0687Z" fill="#333333"/>
<path d="M26.4813 33.6018L25.5926 32.702L33.0629 25.3234L33.9516 26.2232L26.4813 33.6018Z" fill="#333333"/>
<path d="M31.1169 38.2951C31.1694 38.1407 31.3126 37.916 31.5465 37.621C30.6989 37.6318 29.9884 37.3471 29.4152 36.7667C28.9028 36.2479 28.6276 35.6775 28.5895 35.0553C28.5579 34.4331 28.7674 33.8995 29.2181 33.4543C29.7661 32.9131 30.3958 32.7011 31.1073 32.8183C31.8252 32.9355 32.5572 33.3718 33.3034 34.1273L34.1681 35.0027L34.5815 34.5944C34.896 34.2838 35.0528 33.9431 35.0518 33.5725C35.0541 33.1987 34.8744 32.8286 34.5125 32.4623C34.1954 32.1413 33.8486 31.9522 33.4719 31.8951C33.0952 31.838 32.7917 31.9231 32.5615 32.1505L31.668 31.2459C31.9307 30.9865 32.2748 30.8291 32.7005 30.7737C33.1327 30.7184 33.577 30.7791 34.0336 30.956C34.4933 31.1361 34.9121 31.4174 35.29 31.8C35.8888 32.4063 36.2056 33.0318 36.2403 33.6766C36.2782 34.3181 36.0377 34.9079 35.5188 35.4461L33.0968 37.8384C32.6137 38.3156 32.2903 38.7567 32.1267 39.1617L32.0489 39.2386L31.1169 38.2951ZM30.3279 36.1246C30.6065 36.4067 30.9437 36.6021 31.3394 36.7109C31.7351 36.8197 32.1057 36.8156 32.4513 36.6985L33.531 35.632L32.8344 34.9268C31.7455 33.8244 30.8785 33.5919 30.2333 34.2292C29.9512 34.5078 29.8236 34.8196 29.8505 35.1646C29.8773 35.5096 30.0365 35.8296 30.3279 36.1246Z" fill="#333333"/>
<path d="M36.2011 40.8062L41.356 38.136L42.3071 39.0989L34.1429 42.9832C32.9441 43.5204 31.9923 43.4324 31.2878 42.7191L31.1342 42.5344L30.866 42.1364L31.5955 41.4158L31.8163 41.6782C32.1173 41.983 32.4127 42.1588 32.7024 42.2057C32.9954 42.2559 33.36 42.1744 33.7964 41.9612L34.5283 41.6321L37.878 34.6148L38.8484 35.5972L36.2011 40.8062Z" fill="#333333"/>
<path d="M11.0275 17.9559L10.1004 17.0172L12.0361 8.06241L6.5792 13.4523L5.65207 12.5136L12.7333 5.51929L13.6605 6.45794L11.7101 15.4465L17.1912 10.0326L18.1088 10.9616L11.0275 17.9559Z" stroke="white" stroke-width="10" stroke-linecap="round" stroke-linejoin="round" mask="url(#path-1-outside-1)"/>
<path d="M13.4918 20.4508L12.6031 19.5511L17.8655 14.3534L18.7542 15.2531L13.4918 20.4508ZM19.1892 12.9018C19.3351 12.7576 19.5016 12.6797 19.6886 12.668C19.8787 12.6595 20.0603 12.7428 20.2332 12.9179C20.4062 13.093 20.4872 13.2755 20.4764 13.4656C20.4655 13.6557 20.3872 13.8228 20.2413 13.9669C20.0954 14.111 19.9289 14.1857 19.742 14.191C19.555 14.1963 19.3751 14.1114 19.2022 13.9363C19.0292 13.7612 18.9466 13.5802 18.9542 13.3934C18.965 13.2097 19.0433 13.0459 19.1892 12.9018Z" stroke="white" stroke-width="10" stroke-linecap="round" stroke-linejoin="round" mask="url(#path-1-outside-1)"/>
<path d="M18.8059 20.9574L17.6602 20.9745L15.8121 22.7999L14.9234 21.9002L22.3937 14.5216L23.2824 15.4213L18.7642 19.884L19.8186 19.7939L23.1688 19.7227L24.2497 20.817L20.029 20.9408L19.2228 26.253L18.1803 25.1976L18.8059 20.9574Z" stroke="white" stroke-width="10" stroke-linecap="round" stroke-linejoin="round" mask="url(#path-1-outside-1)"/>
<path d="M22.3493 24.0584C22.8648 23.5492 23.4278 23.1918 24.0381 22.9861C24.6516 22.7836 25.248 22.7519 25.8272 22.8908C26.4096 23.033 26.9298 23.3359 27.3878 23.7995C28.0955 24.5161 28.4191 25.3398 28.3586 26.2708C28.3013 27.205 27.8608 28.0788 27.0373 28.8922L26.974 28.9547C26.4617 29.4607 25.9036 29.8165 25.2998 30.0223C24.7023 30.228 24.1092 30.2598 23.5203 30.1176C22.9347 29.9787 22.4081 29.6725 21.9405 29.1991C21.2359 28.4858 20.9123 27.662 20.9697 26.7278C21.0302 25.7969 21.469 24.9279 22.2861 24.1209L22.3493 24.0584ZM23.1358 25.0687C22.5522 25.6452 22.2166 26.2425 22.129 26.8607C22.0446 27.4821 22.2265 28.0198 22.6749 28.4737C23.1264 28.9309 23.6635 29.1179 24.2859 29.0347C24.9116 28.9484 25.5471 28.5865 26.1923 27.9492C26.7695 27.3792 27.1003 26.7802 27.1847 26.1523C27.2756 25.5245 27.0968 24.9836 26.6485 24.5297C26.2098 24.0855 25.6792 23.9018 25.0567 23.9785C24.4343 24.0552 23.794 24.4186 23.1358 25.0687Z" stroke="white" stroke-width="10" stroke-linecap="round" stroke-linejoin="round" mask="url(#path-1-outside-1)"/>
<path d="M26.4813 33.6018L25.5926 32.702L33.0629 25.3234L33.9516 26.2232L26.4813 33.6018Z" stroke="white" stroke-width="10" stroke-linecap="round" stroke-linejoin="round" mask="url(#path-1-outside-1)"/>
<path d="M31.1169 38.2951C31.1694 38.1407 31.3126 37.916 31.5465 37.621C30.6989 37.6318 29.9884 37.3471 29.4152 36.7667C28.9028 36.2479 28.6276 35.6775 28.5895 35.0553C28.5579 34.4331 28.7674 33.8995 29.2181 33.4543C29.7661 32.9131 30.3958 32.7011 31.1073 32.8183C31.8252 32.9355 32.5572 33.3718 33.3034 34.1273L34.1681 35.0027L34.5815 34.5944C34.896 34.2838 35.0528 33.9431 35.0518 33.5725C35.0541 33.1987 34.8744 32.8286 34.5125 32.4623C34.1954 32.1413 33.8486 31.9522 33.4719 31.8951C33.0952 31.838 32.7917 31.9231 32.5615 32.1505L31.668 31.2459C31.9307 30.9865 32.2748 30.8291 32.7005 30.7737C33.1327 30.7184 33.577 30.7791 34.0336 30.956C34.4933 31.1361 34.9121 31.4174 35.29 31.8C35.8888 32.4063 36.2056 33.0318 36.2403 33.6766C36.2782 34.3181 36.0377 34.9079 35.5188 35.4461L33.0968 37.8384C32.6137 38.3156 32.2903 38.7567 32.1267 39.1617L32.0489 39.2386L31.1169 38.2951ZM30.3279 36.1246C30.6065 36.4067 30.9437 36.6021 31.3394 36.7109C31.7351 36.8197 32.1057 36.8156 32.4513 36.6985L33.531 35.632L32.8344 34.9268C31.7455 33.8244 30.8785 33.5919 30.2333 34.2292C29.9512 34.5078 29.8236 34.8196 29.8505 35.1646C29.8773 35.5096 30.0365 35.8296 30.3279 36.1246Z" stroke="white" stroke-width="10" stroke-linecap="round" stroke-linejoin="round" mask="url(#path-1-outside-1)"/>
<path d="M36.2011 40.8062L41.356 38.136L42.3071 39.0989L34.1429 42.9832C32.9441 43.5204 31.9923 43.4324 31.2878 42.7191L31.1342 42.5344L30.866 42.1364L31.5955 41.4158L31.8163 41.6782C32.1173 41.983 32.4127 42.1588 32.7024 42.2057C32.9954 42.2559 33.36 42.1744 33.7964 41.9612L34.5283 41.6321L37.878 34.6148L38.8484 35.5972L36.2011 40.8062Z" stroke="white" stroke-width="10" stroke-linecap="round" stroke-linejoin="round" mask="url(#path-1-outside-1)"/>
</svg>
