<svg width="1203" height="770" viewBox="0 0 1203 770" fill="none" xmlns="http://www.w3.org/2000/svg">
<path d="M13.5914 31.6164C13.5868 30.8143 13.2967 30.191 12.7212 29.7464C12.1562 29.3017 11.1587 28.8439 9.72887 28.373C8.29903 27.9021 7.12971 27.4453 6.22088 27.0027C3.26464 25.5718 1.7792 23.5908 1.76456 21.0596C1.75727 19.7992 2.11543 18.6877 2.83904 17.7252C3.57301 16.7522 4.61032 15.9962 5.95098 15.4572C7.29157 14.9077 8.80039 14.6282 10.4774 14.6185C12.1128 14.609 13.578 14.8922 14.8731 15.4681C16.1785 16.0439 17.1937 16.8713 17.9187 17.9505C18.6437 19.0192 19.0101 20.2463 19.0182 21.6317L13.5495 21.6633C13.5441 20.7363 13.2535 20.0192 12.6777 19.5121C12.1122 19.0049 11.3451 18.7541 10.3764 18.7597C9.39725 18.7654 8.62249 18.9886 8.05211 19.4295C7.49209 19.8598 7.21401 20.4083 7.21786 21.0749C7.22124 21.6583 7.5368 22.1877 8.16457 22.6632C8.79227 23.1284 9.89404 23.6116 11.4699 24.1129C13.0457 24.6038 14.3404 25.138 15.3542 25.7155C17.8207 27.1179 19.0611 29.0639 19.0755 31.5534C19.087 33.5429 18.3461 35.1098 16.8527 36.2538C15.3593 37.3979 13.3053 37.9775 10.6908 37.9926C8.84705 38.0033 7.1733 37.6848 5.66953 37.0373C4.17612 36.3792 3.0459 35.4795 2.27887 34.3381C1.52219 33.1862 1.13952 31.8603 1.13084 30.3603L6.63075 30.3285C6.6378 31.5472 6.9555 32.4464 7.58387 33.0261C8.22259 33.5954 9.25027 33.8759 10.6669 33.8677C11.5731 33.8625 12.2856 33.6656 12.8042 33.2772C13.3331 32.8783 13.5955 32.3247 13.5914 31.6164ZM35.9765 27.8931L27.3517 27.943L27.383 33.3648L37.5704 33.3058L37.5948 37.5245L21.9231 37.6152L21.7916 14.8655L37.4944 14.7747L37.5189 19.009L27.3003 19.0681L27.3281 23.8649L35.9529 23.815L35.9765 27.8931ZM59.0313 26.4941C59.0442 28.7128 58.6441 30.6787 57.831 32.3918C57.018 34.1048 55.8538 35.4293 54.3383 36.3652C52.8332 37.2905 51.112 37.7588 49.1745 37.77C47.237 37.7812 45.5157 37.3485 44.0107 36.4718C42.5055 35.5846 41.3263 34.3154 40.4729 32.664C39.63 31.0126 39.1816 29.1142 39.1275 26.9686L39.1201 25.6874C39.1072 23.4582 39.5021 21.4924 40.3047 19.7898C41.1178 18.0767 42.282 16.7523 43.7974 15.8164C45.3233 14.8805 47.0602 14.4069 49.0081 14.3956C50.9351 14.3845 52.6565 14.8329 54.1722 15.7408C55.6879 16.6487 56.8673 17.9492 57.7104 19.6422C58.5639 21.3248 59.0022 23.2598 59.0253 25.4472L59.0313 26.4941ZM53.4478 25.5732C53.4347 23.3129 53.0446 21.6016 52.2774 20.4393C51.5206 19.2666 50.4391 18.6843 49.0329 18.6924C46.283 18.7083 44.8418 20.7792 44.7094 24.905L44.7034 26.577C44.7163 28.8061 45.096 30.5175 45.8425 31.7111C46.589 32.9047 47.6914 33.4973 49.1497 33.4889C50.5351 33.4809 51.5994 32.8861 52.3426 31.7047C53.0858 30.5233 53.4562 28.8285 53.4538 26.6201L53.4478 25.5732ZM13.8112 69.6157C13.8066 68.8137 13.5165 68.1903 12.941 67.7457C12.3759 67.3011 11.3785 66.8433 9.94865 66.3724C8.51882 65.9015 7.34949 65.4447 6.44066 65.002C3.48442 63.5712 1.99898 61.5902 1.98434 59.059C1.97705 57.7986 2.33521 56.6871 3.05882 55.7246C3.79279 54.7516 4.8301 53.9955 6.17076 53.4565C7.51135 52.9071 9.02018 52.6275 10.6972 52.6178C12.3326 52.6084 13.7978 52.8916 15.0928 53.4674C16.3983 54.0432 17.4135 54.8707 18.1385 55.9499C18.8634 57.0186 19.2299 58.2457 19.2379 59.6311L13.7693 59.6627C13.7639 58.7356 13.4733 58.0185 12.8974 57.5114C12.332 57.0043 11.5649 56.7535 10.5962 56.7591C9.61703 56.7648 8.84227 56.988 8.27189 57.4288C7.71187 57.8591 7.43379 58.4076 7.43765 59.0743C7.44102 59.6576 7.75659 60.1871 8.38435 60.6626C9.01205 61.1277 10.1138 61.6109 11.6897 62.1123C13.2654 62.6031 14.5602 63.1373 15.574 63.7148C18.0405 65.1172 19.2809 67.0632 19.2953 69.5528C19.3068 71.5423 18.5659 73.1091 17.0725 74.2532C15.5791 75.3973 13.5251 75.9769 10.9106 75.992C9.06683 76.0027 7.39309 75.6842 5.88932 75.0366C4.3959 74.3786 3.26568 73.4789 2.49865 72.3375C1.74197 71.1856 1.3593 69.8596 1.35062 68.3597L6.85053 68.3278C6.85758 69.5466 7.17529 70.4458 7.80365 71.0255C8.44237 71.5947 9.47005 71.8753 10.8867 71.8671C11.7929 71.8618 12.5053 71.665 13.0239 71.2766C13.5529 70.8777 13.8153 70.3241 13.8112 69.6157ZM36.1963 65.8925L27.5715 65.9423L27.6028 71.3641L37.7901 71.3052L37.8145 75.5239L22.1429 75.6145L22.0114 52.8649L37.7142 52.7741L37.7387 57.0084L27.5201 57.0675L27.5479 61.8643L36.1727 61.8144L36.1963 65.8925ZM59.0486 75.4011L53.5955 75.4326L45.4513 61.3232L45.5332 75.4792L40.0489 75.511L39.9173 52.7613L45.4016 52.7296L53.5302 66.8391L53.4483 52.6831L58.917 52.6514L59.0486 75.4011ZM68.3609 75.3472L62.8922 75.3788L62.7607 52.6292L68.2293 52.5976L68.3609 75.3472ZM91.3756 64.3077C91.3884 66.5264 90.9883 68.4923 90.1753 70.2053C89.3623 71.9184 88.198 73.2429 86.6826 74.1787C85.1775 75.1041 83.4562 75.5724 81.5187 75.5836C79.5813 75.5948 77.86 75.1621 76.3549 74.2853C74.8497 73.3982 73.6705 72.1289 72.8172 70.4776C71.9743 68.8262 71.5258 66.9277 71.4717 64.7822L71.4643 63.5009C71.4514 61.2718 71.8463 59.3059 72.649 57.6034C73.462 55.8903 74.6262 54.5658 76.1417 53.63C77.6675 52.694 79.4044 52.2204 81.3523 52.2092C83.2793 52.198 85.0007 52.6464 86.5164 53.5543C88.0321 54.4622 89.2115 55.7627 90.0547 57.4558C90.9082 59.1384 91.3464 61.0734 91.3695 63.2608L91.3756 64.3077ZM85.792 63.3868C85.7789 61.1264 85.3888 59.4151 84.6217 58.2529C83.8649 57.0801 82.7834 56.4978 81.3772 56.506C78.6272 56.5219 77.186 58.5928 77.0536 62.7186L77.0477 64.3905C77.0606 66.6197 77.4403 68.331 78.1868 69.5246C78.9333 70.7183 80.0357 71.3109 81.494 71.3024C82.8794 71.2944 83.9437 70.6997 84.6868 69.5183C85.43 68.3369 85.8004 66.642 85.7981 64.4337L85.792 63.3868ZM102.673 67.1174L99.7046 67.1345L99.751 75.1656L94.2667 75.1974L94.1351 52.4477L103.088 52.396C105.786 52.3804 107.899 52.9671 109.427 54.1562C110.954 55.3453 111.724 57.0336 111.737 59.2211C111.746 60.8044 111.431 62.1187 110.791 63.1641C110.162 64.2094 109.167 65.0589 107.806 65.7127L112.609 74.8569L112.61 75.0913L106.735 75.1253L102.673 67.1174ZM99.6801 62.9002L103.149 62.8802C104.19 62.8741 104.97 62.5988 105.488 62.0541C106.016 61.499 106.277 60.7318 106.271 59.7527C106.266 58.7735 105.996 58.0095 105.461 57.4604C104.927 56.901 104.144 56.6243 103.113 56.6303L99.6439 56.6503L99.6801 62.9002Z" fill="url(#paint0_linear)"/>
<path d="M20.2536 715.605C20.1899 717.189 19.7709 718.592 18.9967 719.815C18.2225 721.028 17.1289 721.972 15.7162 722.647C14.3138 723.322 12.7064 723.664 10.8939 723.675C7.90436 723.692 5.5446 722.732 3.81461 720.794C2.08462 718.856 1.20936 716.111 1.18881 712.559L1.1823 711.434C1.16941 709.205 1.54356 707.255 2.30474 705.584C3.07627 703.902 4.18858 702.604 5.64164 701.689C7.09465 700.764 8.77947 700.296 10.6961 700.285C13.4565 700.269 15.6794 700.985 17.3649 702.434C19.0503 703.872 20.015 705.867 20.2589 708.417L14.7903 708.449C14.7406 707.064 14.3859 706.071 13.7261 705.471C13.0664 704.87 12.0647 704.574 10.721 704.582C9.3564 704.59 8.35937 705.106 7.72986 706.13C7.10036 707.155 6.77646 708.787 6.75817 711.027L6.76748 712.636C6.78151 715.063 7.09362 716.796 7.7038 717.834C8.3244 718.872 9.37948 719.387 10.869 719.378C12.1294 719.371 13.0912 719.068 13.7545 718.471C14.4177 717.873 14.7664 716.928 14.8006 715.636L20.2536 715.605ZM42.0941 712.275C42.1069 714.494 41.7068 716.46 40.8938 718.173C40.0808 719.886 38.9166 721.211 37.4011 722.146C35.896 723.072 34.1748 723.54 32.2373 723.551C30.2998 723.563 28.5785 723.13 27.0734 722.253C25.5683 721.366 24.389 720.097 23.5357 718.445C22.6928 716.794 22.2443 714.895 22.1903 712.75L22.1829 711.469C22.17 709.24 22.5649 707.274 23.3675 705.571C24.1805 703.858 25.3448 702.534 26.8602 701.598C28.3861 700.662 30.123 700.188 32.0708 700.177C33.9979 700.166 35.7193 700.614 37.235 701.522C38.7506 702.43 39.9301 703.73 40.7732 705.424C41.6267 707.106 42.065 709.041 42.0881 711.229L42.0941 712.275ZM36.5106 711.355C36.4975 709.094 36.1074 707.383 35.3402 706.221C34.5834 705.048 33.5019 704.466 32.0957 704.474C29.3457 704.49 27.9046 706.561 27.7722 710.686L27.7662 712.358C27.7791 714.587 28.1588 716.299 28.9053 717.492C29.6518 718.686 30.7542 719.279 32.2125 719.27C33.5979 719.262 34.6622 718.667 35.4054 717.486C36.1486 716.305 36.519 714.61 36.5166 712.401L36.5106 711.355ZM63.9849 723.055L58.5319 723.087L50.3877 708.977L50.4695 723.133L44.9853 723.165L44.8537 700.415L50.338 700.384L58.4666 714.493L58.3847 700.337L63.8534 700.306L63.9849 723.055ZM84.7369 704.419L77.9089 704.459L78.016 722.974L72.5317 723.006L72.4246 704.49L65.7216 704.529L65.6971 700.295L84.7124 700.185L84.7369 704.419ZM101.225 713.199L92.6006 713.249L92.6319 718.671L102.819 718.612L102.844 722.83L87.1721 722.921L87.0405 700.171L102.743 700.081L102.768 704.315L92.5492 704.374L92.577 709.171L101.202 709.121L101.225 713.199ZM124.078 722.708L118.625 722.739L110.48 708.63L110.562 722.786L105.078 722.818L104.946 700.068L110.431 700.036L118.559 714.146L118.477 699.99L123.946 699.958L124.078 722.708ZM144.83 704.072L138.002 704.111L138.109 722.627L132.624 722.658L132.517 704.143L125.814 704.182L125.79 699.947L144.805 699.837L144.83 704.072ZM9.18344 738.622L14.353 754.421L19.3239 738.564L26.5425 738.522L26.6741 761.272L21.1742 761.303L21.1435 755.991L21.6118 745.113L16.2055 761.332L12.5806 761.353L6.97134 745.182L7.56557 756.07L7.5963 761.382L2.11202 761.414L1.98044 738.664L9.18344 738.622ZM43.3524 756.925L35.8369 756.969L34.549 761.226L28.6897 761.26L36.9017 738.462L42.0579 738.432L50.5956 761.133L44.7051 761.167L43.3524 756.925ZM37.1249 752.727L42.0154 752.698L39.5167 744.822L37.1249 752.727ZM71.2671 761.014L65.8141 761.045L57.6698 746.936L57.7517 761.092L52.2674 761.124L52.1358 738.374L57.6201 738.342L65.7487 752.452L65.6669 738.296L71.1355 738.264L71.2671 761.014ZM87.9141 756.667L80.3986 756.711L79.1107 760.968L73.2514 761.002L81.4635 738.204L86.6196 738.175L95.1573 760.876L89.2668 760.91L87.9141 756.667ZM81.6866 752.469L86.5772 752.441L84.0784 744.564L81.6866 752.469ZM115.094 757.948C114.256 758.89 113.026 759.652 111.404 760.235C109.782 760.817 108.003 761.114 106.065 761.125C103.086 761.142 100.701 760.245 98.9089 758.432C97.1171 756.619 96.1493 754.088 96.0055 750.839L95.9785 748.871C95.9656 746.631 96.3501 744.676 97.1321 743.004C97.9141 741.323 99.0368 740.03 100.5 739.126C101.974 738.211 103.68 737.748 105.617 737.737C108.451 737.72 110.652 738.358 112.222 739.652C113.803 740.934 114.731 742.861 115.006 745.432L109.725 745.463C109.53 744.193 109.118 743.289 108.49 742.751C107.862 742.213 106.975 741.948 105.829 741.954C104.454 741.962 103.395 742.552 102.652 743.723C101.909 744.894 101.538 746.562 101.54 748.729L101.548 750.104C101.561 752.375 101.957 754.081 102.734 755.222C103.522 756.353 104.749 756.914 106.416 756.904C107.843 756.896 108.904 756.572 109.598 755.933L109.577 752.401L105.765 752.423L105.743 748.658L115.04 748.604L115.094 757.948ZM132.351 751.02L123.726 751.07L123.757 756.491L133.945 756.432L133.969 760.651L118.298 760.742L118.166 737.992L133.869 737.901L133.893 742.136L123.675 742.195L123.703 746.991L132.327 746.942L132.351 751.02ZM144.61 752.558L141.641 752.575L141.688 760.606L136.204 760.638L136.072 737.889L145.025 737.837C147.723 737.821 149.836 738.408 151.363 739.597C152.891 740.786 153.661 742.474 153.674 744.662C153.683 746.245 153.368 747.56 152.728 748.605C152.099 749.65 151.103 750.5 149.743 751.153L154.546 760.298L154.547 760.532L148.672 760.566L144.61 752.558ZM141.617 748.341L145.086 748.321C146.127 748.315 146.907 748.04 147.425 747.495C147.953 746.94 148.214 746.173 148.208 745.193C148.202 744.214 147.932 743.45 147.398 742.901C146.864 742.342 146.081 742.065 145.049 742.071L141.581 742.091L141.617 748.341ZM168.777 754.403C168.773 753.601 168.483 752.977 167.907 752.533C167.342 752.088 166.345 751.63 164.915 751.159C163.485 750.689 162.316 750.232 161.407 749.789C158.451 748.358 156.965 746.377 156.95 743.846C156.943 742.586 157.301 741.474 158.025 740.512C158.759 739.539 159.796 738.783 161.137 738.244C162.478 737.694 163.986 737.415 165.663 737.405C167.299 737.395 168.764 737.679 170.059 738.254C171.364 738.83 172.38 739.658 173.105 740.737C173.83 741.806 174.196 743.033 174.204 744.418L168.735 744.45C168.73 743.523 168.439 742.806 167.864 742.298C167.298 741.791 166.531 741.541 165.562 741.546C164.583 741.552 163.808 741.775 163.238 742.216C162.678 742.646 162.4 743.195 162.404 743.861C162.407 744.445 162.723 744.974 163.351 745.45C163.978 745.915 165.08 746.398 166.656 746.899C168.232 747.39 169.526 747.924 170.54 748.502C173.007 749.904 174.247 751.85 174.261 754.34C174.273 756.329 173.532 757.896 172.039 759.04C170.545 760.184 168.491 760.764 165.877 760.779C164.033 760.79 162.359 760.471 160.855 759.824C159.362 759.166 158.232 758.266 157.465 757.125C156.708 755.973 156.325 754.647 156.317 753.147L161.817 753.115C161.824 754.334 162.141 755.233 162.77 755.813C163.409 756.382 164.436 756.662 165.853 756.654C166.759 756.649 167.471 756.452 167.99 756.064C168.519 755.665 168.781 755.111 168.777 754.403Z" fill="url(#paint1_linear)"/>
<path d="M20.2536 715.605C20.1899 717.189 19.7709 718.592 18.9967 719.815C18.2225 721.028 17.1289 721.972 15.7162 722.647C14.3138 723.322 12.7064 723.664 10.8939 723.675C7.90436 723.692 5.5446 722.732 3.81461 720.794C2.08462 718.856 1.20936 716.111 1.18881 712.559L1.1823 711.434C1.16941 709.205 1.54356 707.255 2.30474 705.584C3.07627 703.902 4.18858 702.604 5.64164 701.689C7.09465 700.764 8.77947 700.296 10.6961 700.285C13.4565 700.269 15.6794 700.985 17.3649 702.434C19.0503 703.872 20.015 705.867 20.2589 708.417L14.7903 708.449C14.7406 707.064 14.3859 706.071 13.7261 705.471C13.0664 704.87 12.0647 704.574 10.721 704.582C9.3564 704.59 8.35937 705.106 7.72986 706.13C7.10036 707.155 6.77646 708.787 6.75817 711.027L6.76748 712.636C6.78151 715.063 7.09362 716.796 7.7038 717.834C8.3244 718.872 9.37948 719.387 10.869 719.378C12.1294 719.371 13.0912 719.068 13.7545 718.471C14.4177 717.873 14.7664 716.928 14.8006 715.636L20.2536 715.605ZM42.0941 712.275C42.1069 714.494 41.7068 716.46 40.8938 718.173C40.0808 719.886 38.9166 721.211 37.4011 722.146C35.896 723.072 34.1748 723.54 32.2373 723.551C30.2998 723.563 28.5785 723.13 27.0734 722.253C25.5683 721.366 24.389 720.097 23.5357 718.445C22.6928 716.794 22.2443 714.895 22.1903 712.75L22.1829 711.469C22.17 709.24 22.5649 707.274 23.3675 705.571C24.1805 703.858 25.3448 702.534 26.8602 701.598C28.3861 700.662 30.123 700.188 32.0708 700.177C33.9979 700.166 35.7193 700.614 37.235 701.522C38.7506 702.43 39.9301 703.73 40.7732 705.424C41.6267 707.106 42.065 709.041 42.0881 711.229L42.0941 712.275ZM36.5106 711.355C36.4975 709.094 36.1074 707.383 35.3402 706.221C34.5834 705.048 33.5019 704.466 32.0957 704.474C29.3457 704.49 27.9046 706.561 27.7722 710.686L27.7662 712.358C27.7791 714.587 28.1588 716.299 28.9053 717.492C29.6518 718.686 30.7542 719.279 32.2125 719.27C33.5979 719.262 34.6622 718.667 35.4054 717.486C36.1486 716.305 36.519 714.61 36.5166 712.401L36.5106 711.355ZM63.9849 723.055L58.5319 723.087L50.3877 708.977L50.4695 723.133L44.9853 723.165L44.8537 700.415L50.338 700.384L58.4666 714.493L58.3847 700.337L63.8534 700.306L63.9849 723.055ZM84.7369 704.419L77.9089 704.459L78.016 722.974L72.5317 723.006L72.4246 704.49L65.7216 704.529L65.6971 700.295L84.7124 700.185L84.7369 704.419ZM101.225 713.199L92.6006 713.249L92.6319 718.671L102.819 718.612L102.844 722.83L87.1721 722.921L87.0405 700.171L102.743 700.081L102.768 704.315L92.5492 704.374L92.577 709.171L101.202 709.121L101.225 713.199ZM124.078 722.708L118.625 722.739L110.48 708.63L110.562 722.786L105.078 722.818L104.946 700.068L110.431 700.036L118.559 714.146L118.477 699.99L123.946 699.958L124.078 722.708ZM144.83 704.072L138.002 704.111L138.109 722.627L132.624 722.658L132.517 704.143L125.814 704.182L125.79 699.947L144.805 699.837L144.83 704.072ZM9.18344 738.622L14.353 754.421L19.3239 738.564L26.5425 738.522L26.6741 761.272L21.1742 761.303L21.1435 755.991L21.6118 745.113L16.2055 761.332L12.5806 761.353L6.97134 745.182L7.56557 756.07L7.5963 761.382L2.11202 761.414L1.98044 738.664L9.18344 738.622ZM43.3524 756.925L35.8369 756.969L34.549 761.226L28.6897 761.26L36.9017 738.462L42.0579 738.432L50.5956 761.133L44.7051 761.167L43.3524 756.925ZM37.1249 752.727L42.0154 752.698L39.5167 744.822L37.1249 752.727ZM71.2671 761.014L65.8141 761.045L57.6698 746.936L57.7517 761.092L52.2674 761.124L52.1358 738.374L57.6201 738.342L65.7487 752.452L65.6669 738.296L71.1355 738.264L71.2671 761.014ZM87.9141 756.667L80.3986 756.711L79.1107 760.968L73.2514 761.002L81.4635 738.204L86.6196 738.175L95.1573 760.876L89.2668 760.91L87.9141 756.667ZM81.6866 752.469L86.5772 752.441L84.0784 744.564L81.6866 752.469ZM115.094 757.948C114.256 758.89 113.026 759.652 111.404 760.235C109.782 760.817 108.003 761.114 106.065 761.125C103.086 761.142 100.701 760.245 98.9089 758.432C97.1171 756.619 96.1493 754.088 96.0055 750.839L95.9785 748.871C95.9656 746.631 96.3501 744.676 97.1321 743.004C97.9141 741.323 99.0368 740.03 100.5 739.126C101.974 738.211 103.68 737.748 105.617 737.737C108.451 737.72 110.652 738.358 112.222 739.652C113.803 740.934 114.731 742.861 115.006 745.432L109.725 745.463C109.53 744.193 109.118 743.289 108.49 742.751C107.862 742.213 106.975 741.948 105.829 741.954C104.454 741.962 103.395 742.552 102.652 743.723C101.909 744.894 101.538 746.562 101.54 748.729L101.548 750.104C101.561 752.375 101.957 754.081 102.734 755.222C103.522 756.353 104.749 756.914 106.416 756.904C107.843 756.896 108.904 756.572 109.598 755.933L109.577 752.401L105.765 752.423L105.743 748.658L115.04 748.604L115.094 757.948ZM132.351 751.02L123.726 751.07L123.757 756.491L133.945 756.432L133.969 760.651L118.298 760.742L118.166 737.992L133.869 737.901L133.893 742.136L123.675 742.195L123.703 746.991L132.327 746.942L132.351 751.02ZM144.61 752.558L141.641 752.575L141.688 760.606L136.204 760.638L136.072 737.889L145.025 737.837C147.723 737.821 149.836 738.408 151.363 739.597C152.891 740.786 153.661 742.474 153.674 744.662C153.683 746.245 153.368 747.56 152.728 748.605C152.099 749.65 151.103 750.5 149.743 751.153L154.546 760.298L154.547 760.532L148.672 760.566L144.61 752.558ZM141.617 748.341L145.086 748.321C146.127 748.315 146.907 748.04 147.425 747.495C147.953 746.94 148.214 746.173 148.208 745.193C148.202 744.214 147.932 743.45 147.398 742.901C146.864 742.342 146.081 742.065 145.049 742.071L141.581 742.091L141.617 748.341ZM168.777 754.403C168.773 753.601 168.483 752.977 167.907 752.533C167.342 752.088 166.345 751.63 164.915 751.159C163.485 750.689 162.316 750.232 161.407 749.789C158.451 748.358 156.965 746.377 156.95 743.846C156.943 742.586 157.301 741.474 158.025 740.512C158.759 739.539 159.796 738.783 161.137 738.244C162.478 737.694 163.986 737.415 165.663 737.405C167.299 737.395 168.764 737.679 170.059 738.254C171.364 738.83 172.38 739.658 173.105 740.737C173.83 741.806 174.196 743.033 174.204 744.418L168.735 744.45C168.73 743.523 168.439 742.806 167.864 742.298C167.298 741.791 166.531 741.541 165.562 741.546C164.583 741.552 163.808 741.775 163.238 742.216C162.678 742.646 162.4 743.195 162.404 743.861C162.407 744.445 162.723 744.974 163.351 745.45C163.978 745.915 165.08 746.398 166.656 746.899C168.232 747.39 169.526 747.924 170.54 748.502C173.007 749.904 174.247 751.85 174.261 754.34C174.273 756.329 173.532 757.896 172.039 759.04C170.545 760.184 168.491 760.764 165.877 760.779C164.033 760.79 162.359 760.471 160.855 759.824C159.362 759.166 158.232 758.266 157.465 757.125C156.708 755.973 156.325 754.647 156.317 753.147L161.817 753.115C161.824 754.334 162.141 755.233 162.77 755.813C163.409 756.382 164.436 756.662 165.853 756.654C166.759 756.649 167.471 756.452 167.99 756.064C168.519 755.665 168.781 755.111 168.777 754.403Z" fill="url(#paint2_linear)"/>
<path d="M1155.89 716.222C1155.88 715.42 1155.59 714.797 1155.02 714.352C1154.45 713.908 1153.46 713.45 1152.03 712.979C1150.6 712.508 1149.43 712.051 1148.52 711.609C1145.56 710.178 1144.08 708.197 1144.06 705.665C1144.05 704.405 1144.41 703.294 1145.14 702.331C1145.87 701.358 1146.91 700.602 1148.25 700.063C1149.59 699.514 1151.1 699.234 1152.77 699.224C1154.41 699.215 1155.88 699.498 1157.17 700.074C1158.48 700.65 1159.49 701.477 1160.22 702.556C1160.94 703.625 1161.31 704.852 1161.32 706.238L1155.85 706.269C1155.84 705.342 1155.55 704.625 1154.97 704.118C1154.41 703.611 1153.64 703.36 1152.67 703.366C1151.69 703.371 1150.92 703.594 1150.35 704.035C1149.79 704.466 1149.51 705.014 1149.52 705.681C1149.52 706.264 1149.83 706.794 1150.46 707.269C1151.09 707.734 1152.19 708.217 1153.77 708.719C1155.34 709.21 1156.64 709.744 1157.65 710.321C1160.12 711.724 1161.36 713.67 1161.37 716.159C1161.38 718.149 1160.64 719.716 1159.15 720.86C1157.66 722.004 1155.6 722.583 1152.99 722.598C1151.14 722.609 1149.47 722.291 1147.97 721.643C1146.47 720.985 1145.34 720.085 1144.58 718.944C1143.82 717.792 1143.44 716.466 1143.43 714.966L1148.93 714.934C1148.94 716.153 1149.25 717.052 1149.88 717.632C1150.52 718.201 1151.55 718.482 1152.96 718.474C1153.87 718.468 1154.58 718.271 1155.1 717.883C1155.63 717.484 1155.89 716.931 1155.89 716.222ZM1178.27 712.499L1169.65 712.549L1169.68 717.971L1179.87 717.912L1179.89 722.13L1164.22 722.221L1164.09 699.471L1179.79 699.381L1179.82 703.615L1169.6 703.674L1169.63 708.471L1178.25 708.421L1178.27 712.499ZM1201.33 711.1C1201.34 713.319 1200.94 715.285 1200.13 716.998C1199.32 718.711 1198.15 720.035 1196.64 720.971C1195.13 721.896 1193.41 722.365 1191.47 722.376C1189.53 722.387 1187.81 721.954 1186.31 721.078C1184.8 720.19 1183.62 718.921 1182.77 717.27C1181.93 715.618 1181.48 713.72 1181.42 711.574L1181.42 710.293C1181.4 708.064 1181.8 706.098 1182.6 704.396C1183.42 702.683 1184.58 701.358 1186.09 700.422C1187.62 699.486 1189.36 699.013 1191.31 699.001C1193.23 698.99 1194.95 699.439 1196.47 700.347C1197.99 701.255 1199.16 702.555 1200.01 704.248C1200.86 705.931 1201.3 707.866 1201.32 710.053L1201.33 711.1ZM1195.75 710.179C1195.73 707.919 1195.34 706.207 1194.57 705.045C1193.82 703.872 1192.74 703.29 1191.33 703.298C1188.58 703.314 1187.14 705.385 1187.01 709.511L1187 711.183C1187.01 713.412 1187.39 715.123 1188.14 716.317C1188.89 717.511 1189.99 718.103 1191.45 718.095C1192.83 718.087 1193.9 717.492 1194.64 716.311C1195.38 715.129 1195.75 713.434 1195.75 711.226L1195.75 710.179ZM1001.62 753.459C1001.55 755.043 1001.13 756.446 1000.36 757.669C999.586 758.882 998.492 759.826 997.08 760.501C995.677 761.176 994.07 761.518 992.257 761.529C989.268 761.546 986.908 760.586 985.178 758.648C983.448 756.71 982.573 753.965 982.552 750.413L982.546 749.288C982.533 747.059 982.907 745.109 983.668 743.437C984.44 741.756 985.552 740.458 987.005 739.543C988.458 738.618 990.143 738.15 992.06 738.139C994.82 738.123 997.043 738.839 998.728 740.288C1000.41 741.726 1001.38 743.72 1001.62 746.271L996.154 746.303C996.104 744.918 995.749 743.925 995.09 743.325C994.43 742.724 993.428 742.428 992.084 742.436C990.72 742.444 989.723 742.96 989.093 743.984C988.464 745.009 988.14 746.641 988.122 748.881L988.131 750.49C988.145 752.917 988.457 754.65 989.067 755.688C989.688 756.726 990.743 757.241 992.233 757.232C993.493 757.225 994.455 756.922 995.118 756.325C995.781 755.727 996.13 754.782 996.164 753.49L1001.62 753.459ZM1023.46 750.129C1023.47 752.348 1023.07 754.314 1022.26 756.027C1021.44 757.74 1020.28 759.065 1018.76 760C1017.26 760.926 1015.54 761.394 1013.6 761.405C1011.66 761.416 1009.94 760.984 1008.44 760.107C1006.93 759.22 1005.75 757.951 1004.9 756.299C1004.06 754.648 1003.61 752.749 1003.55 750.604L1003.55 749.323C1003.53 747.093 1003.93 745.128 1004.73 743.425C1005.54 741.712 1006.71 740.388 1008.22 739.452C1009.75 738.516 1011.49 738.042 1013.43 738.031C1015.36 738.02 1017.08 738.468 1018.6 739.376C1020.11 740.284 1021.29 741.584 1022.14 743.277C1022.99 744.96 1023.43 746.895 1023.45 749.082L1023.46 750.129ZM1017.87 749.208C1017.86 746.948 1017.47 745.237 1016.7 744.075C1015.95 742.902 1014.87 742.32 1013.46 742.328C1010.71 742.344 1009.27 744.414 1009.14 748.54L1009.13 750.212C1009.14 752.441 1009.52 754.153 1010.27 755.346C1011.02 756.54 1012.12 757.133 1013.58 757.124C1014.96 757.116 1016.03 756.521 1016.77 755.34C1017.51 754.159 1017.88 752.464 1017.88 750.255L1017.87 749.208ZM1031.79 753.269L1031.83 760.987L1026.35 761.019L1026.22 738.269L1035.3 738.217C1037.03 738.207 1038.57 738.521 1039.91 739.159C1041.26 739.787 1042.3 740.692 1043.04 741.875C1043.78 743.048 1044.16 744.385 1044.17 745.884C1044.18 748.103 1043.39 749.884 1041.81 751.226C1040.23 752.558 1038.06 753.232 1035.29 753.248L1031.79 753.269ZM1031.76 749.034L1035.36 749.014C1036.42 749.007 1037.23 748.737 1037.77 748.203C1038.33 747.668 1038.61 746.917 1038.61 745.948C1038.6 744.885 1038.31 744.038 1037.73 743.406C1037.15 742.774 1036.37 742.456 1035.38 742.451L1031.73 742.472L1031.76 749.034ZM1055.45 747.976L1059.58 738.076L1065.5 738.042L1058.25 752.663L1058.3 760.834L1052.74 760.866L1052.69 752.695L1045.29 738.159L1051.19 738.125L1055.45 747.976ZM1085.14 752.194L1087.67 737.914L1093.11 737.883L1088.41 760.66L1082.72 760.693L1079.6 747.742L1076.69 760.728L1071.02 760.761L1066.04 738.039L1071.5 738.008L1074.19 752.258L1077.23 737.974L1081.89 737.947L1085.14 752.194ZM1103.79 752.54L1100.82 752.557L1100.86 760.588L1095.38 760.62L1095.25 737.87L1104.2 737.818C1106.9 737.803 1109.01 738.39 1110.54 739.579C1112.07 740.768 1112.84 742.456 1112.85 744.643C1112.86 746.227 1112.54 747.541 1111.9 748.587C1111.27 749.632 1110.28 750.481 1108.92 751.135L1113.72 760.279L1113.72 760.514L1107.85 760.548L1103.79 752.54ZM1100.79 748.323L1104.26 748.303C1105.3 748.297 1106.08 748.021 1106.6 747.477C1107.13 746.921 1107.39 746.154 1107.38 745.175C1107.38 744.196 1107.11 743.432 1106.57 742.883C1106.04 742.323 1105.26 742.047 1104.22 742.053L1100.76 742.073L1100.79 748.323ZM1122.1 760.465L1116.63 760.497L1116.5 737.747L1121.97 737.716L1122.1 760.465ZM1143.19 741.827L1136.36 741.867L1136.47 760.382L1130.99 760.414L1130.88 741.899L1124.18 741.937L1124.15 737.703L1143.17 737.593L1143.19 741.827ZM1159.68 750.607L1151.06 750.657L1151.09 756.079L1161.28 756.02L1161.3 760.239L1145.63 760.329L1145.5 737.58L1161.2 737.489L1161.22 741.723L1151.01 741.782L1151.03 746.579L1159.66 746.529L1159.68 750.607ZM1171.94 752.146L1168.97 752.163L1169.02 760.194L1163.53 760.226L1163.4 737.476L1172.36 737.424C1175.05 737.409 1177.17 737.995 1178.69 739.184C1180.22 740.374 1180.99 742.062 1181 744.249C1181.01 745.833 1180.7 747.147 1180.06 748.192C1179.43 749.238 1178.43 750.087 1177.07 750.741L1181.88 759.885L1181.88 760.12L1176 760.153L1171.94 752.146ZM1168.95 747.928L1172.42 747.908C1173.46 747.902 1174.24 747.627 1174.75 747.082C1175.28 746.527 1175.54 745.76 1175.54 744.781C1175.53 743.802 1175.26 743.038 1174.73 742.489C1174.19 741.929 1173.41 741.653 1172.38 741.658L1168.91 741.679L1168.95 747.928ZM1196.11 753.99C1196.1 753.188 1195.81 752.565 1195.24 752.12C1194.67 751.676 1193.68 751.218 1192.25 750.747C1190.82 750.276 1189.65 749.819 1188.74 749.377C1185.78 747.946 1184.3 745.965 1184.28 743.433C1184.27 742.173 1184.63 741.062 1185.36 740.099C1186.09 739.126 1187.13 738.37 1188.47 737.831C1189.81 737.282 1191.32 737.002 1192.99 736.992C1194.63 736.983 1196.09 737.266 1197.39 737.842C1198.69 738.418 1199.71 739.245 1200.44 740.324C1201.16 741.393 1201.53 742.62 1201.53 744.006L1196.07 744.037C1196.06 743.11 1195.77 742.393 1195.19 741.886C1194.63 741.379 1193.86 741.128 1192.89 741.134C1191.91 741.139 1191.14 741.362 1190.57 741.803C1190.01 742.234 1189.73 742.782 1189.73 743.449C1189.74 744.032 1190.05 744.562 1190.68 745.037C1191.31 745.502 1192.41 745.985 1193.99 746.487C1195.56 746.978 1196.86 747.512 1197.87 748.089C1200.34 749.492 1201.58 751.438 1201.59 753.927C1201.6 755.917 1200.86 757.484 1199.37 758.628C1197.88 759.772 1195.82 760.351 1193.21 760.366C1191.36 760.377 1189.69 760.059 1188.19 759.411C1186.69 758.753 1185.56 757.853 1184.8 756.712C1184.04 755.56 1183.66 754.234 1183.65 752.734L1189.15 752.702C1189.15 753.921 1189.47 754.82 1190.1 755.4C1190.74 755.969 1191.77 756.25 1193.18 756.242C1194.09 756.236 1194.8 756.039 1195.32 755.651C1195.85 755.252 1196.11 754.699 1196.11 753.99Z" fill="url(#paint3_linear)"/>
<path d="M1155.74 31.2222C1155.73 30.4202 1155.44 29.7968 1154.87 29.3522C1154.3 28.9076 1153.3 28.4498 1151.87 27.9789C1150.44 27.508 1149.27 27.0512 1148.36 26.6085C1145.41 25.1777 1143.92 23.1967 1143.91 20.6655C1143.9 19.4051 1144.26 18.2936 1144.98 17.3311C1145.72 16.3581 1146.75 15.602 1148.09 15.063C1149.44 14.5136 1150.94 14.234 1152.62 14.2243C1154.26 14.2149 1155.72 14.4981 1157.02 15.0739C1158.32 15.6497 1159.34 16.4772 1160.06 17.5564C1160.79 18.6251 1161.15 19.8522 1161.16 21.2376L1155.69 21.2692C1155.69 20.3421 1155.4 19.625 1154.82 19.1179C1154.26 18.6108 1153.49 18.36 1152.52 18.3656C1151.54 18.3713 1150.77 18.5945 1150.2 19.0353C1149.64 19.4657 1149.36 20.0141 1149.36 20.6808C1149.37 21.2641 1149.68 21.7936 1150.31 22.2691C1150.94 22.7342 1152.04 23.2174 1153.61 23.7188C1155.19 24.2097 1156.48 24.7438 1157.5 25.3213C1159.96 26.7237 1161.2 28.6697 1161.22 31.1593C1161.23 33.1488 1160.49 34.7156 1159 35.8597C1157.5 37.0038 1155.45 37.5834 1152.83 37.5985C1150.99 37.6092 1149.32 37.2907 1147.81 36.6431C1146.32 35.9851 1145.19 35.0854 1144.42 33.944C1143.67 32.7921 1143.28 31.4661 1143.27 29.9662L1148.77 29.9343C1148.78 31.1531 1149.1 32.0523 1149.73 32.632C1150.37 33.2012 1151.39 33.4818 1152.81 33.4736C1153.72 33.4683 1154.43 33.2715 1154.95 32.8831C1155.48 32.4842 1155.74 31.9306 1155.74 31.2222ZM1178.12 27.499L1169.5 27.5488L1169.53 32.9706L1179.71 32.9117L1179.74 37.1304L1164.07 37.221L1163.94 14.4714L1179.64 14.3806L1179.66 18.6149L1169.44 18.674L1169.47 23.4708L1178.1 23.4209L1178.12 27.499ZM1201.18 26.1C1201.19 28.3187 1200.79 30.2846 1199.97 31.9976C1199.16 33.7107 1198 35.0352 1196.48 35.971C1194.98 36.8964 1193.26 37.3647 1191.32 37.3759C1189.38 37.3871 1187.66 36.9544 1186.15 36.0776C1184.65 35.1905 1183.47 33.9212 1182.62 32.2699C1181.77 30.6185 1181.33 28.72 1181.27 26.5745L1181.26 25.2932C1181.25 23.0641 1181.65 21.0982 1182.45 19.3957C1183.26 17.6826 1184.43 16.3581 1185.94 15.4223C1187.47 14.4863 1189.2 14.0127 1191.15 14.0015C1193.08 13.9903 1194.8 14.4387 1196.32 15.3466C1197.83 16.2546 1199.01 17.555 1199.85 19.2481C1200.71 20.9307 1201.15 22.8657 1201.17 25.0531L1201.18 26.1ZM1195.59 25.1791C1195.58 22.9187 1195.19 21.2074 1194.42 20.0452C1193.66 18.8724 1192.58 18.2902 1191.18 18.2983C1188.43 18.3142 1186.99 20.3851 1186.85 24.5109L1186.85 26.1828C1186.86 28.412 1187.24 30.1233 1187.99 31.317C1188.73 32.5106 1189.84 33.1032 1191.29 33.0947C1192.68 33.0867 1193.74 32.492 1194.49 31.3106C1195.23 30.1292 1195.6 28.4343 1195.6 26.226L1195.59 25.1791ZM1097.02 52.8591L1102.19 68.6576L1107.16 52.8004L1114.37 52.7587L1114.51 75.5083L1109.01 75.5401L1108.98 70.2277L1109.44 59.3498L1104.04 75.5689L1100.41 75.5898L1094.8 59.4189L1095.4 70.3062L1095.43 75.6187L1089.94 75.6504L1089.81 52.9008L1097.02 52.8591ZM1123.85 75.4543L1118.38 75.4859L1118.25 52.7363L1123.72 52.7046L1123.85 75.4543ZM1127.66 75.4322L1127.53 52.6826L1134.86 52.6402C1136.87 52.6286 1138.68 53.0765 1140.29 53.9838C1141.9 54.8808 1143.16 56.16 1144.06 57.8215C1144.98 59.4724 1145.45 61.3291 1145.47 63.3915L1145.47 64.4384C1145.49 66.5217 1145.05 68.394 1144.18 70.0554C1143.31 71.7062 1142.08 73.005 1140.48 73.9518C1138.89 74.8881 1137.12 75.3671 1135.15 75.3889L1127.66 75.4322ZM1133.04 56.8852L1133.12 71.1818L1135.03 71.1708C1136.6 71.1617 1137.81 70.5974 1138.64 69.478C1139.48 68.3481 1139.89 66.679 1139.88 64.4707L1139.87 63.4864C1139.86 61.2885 1139.43 59.6347 1138.58 58.525C1137.73 57.4154 1136.5 56.8652 1134.88 56.8745L1133.04 56.8852ZM1148.35 75.3126L1148.22 52.5629L1155.55 52.5206C1157.56 52.5089 1159.37 52.9568 1160.98 53.8642C1162.59 54.7611 1163.84 56.0403 1164.75 57.7018C1165.66 59.3528 1166.13 61.2095 1166.16 63.2719L1166.16 64.3187C1166.17 66.402 1165.74 68.2744 1164.87 69.9357C1164 71.5866 1162.77 72.8854 1161.17 73.8321C1159.58 74.7684 1157.8 75.2475 1155.83 75.2693L1148.35 75.3126ZM1153.73 56.7655L1153.81 71.0622L1155.72 71.0511C1157.29 71.042 1158.49 70.4778 1159.33 69.3583C1160.17 68.2285 1160.58 66.5594 1160.57 64.3511L1160.56 63.3667C1160.55 61.1689 1160.12 59.5151 1159.27 58.4054C1158.42 57.2957 1157.18 56.7455 1155.57 56.7549L1153.73 56.7655ZM1174.5 70.9425L1184.04 70.8873L1184.07 75.106L1169.04 75.1929L1168.91 52.4433L1174.39 52.4116L1174.5 70.9425ZM1200.43 65.3705L1191.81 65.4204L1191.84 70.8422L1202.03 70.7833L1202.05 75.002L1186.38 75.0926L1186.25 52.343L1201.95 52.2522L1201.98 56.4865L1191.76 56.5456L1191.79 61.3424L1200.41 61.2925L1200.43 65.3705Z" fill="url(#paint4_linear)"/>
<circle cx="602" cy="385" r="384.5" fill="#F8F8F8" stroke="#EAEAEA"/>
<circle cx="602" cy="385" r="248" fill="#FEFEFE"/>
<line x1="342.354" y1="131.646" x2="858.354" y2="647.646" stroke="#D6D6D6"/>
<path d="M442 83L430.923 141.374C427.347 160.222 433.322 179.619 446.883 193.188L787.98 534.468C802.277 548.773 822.993 554.597 842.649 549.839L937 527" stroke="#D6D6D6"/>
<path d="M280 236L351.186 220.329C370.512 216.074 390.674 221.967 404.668 235.961L752.234 583.527C765.289 596.582 771.349 615.072 768.553 633.322L756.5 712" stroke="#D6D6D6"/>
<path d="M769 74L780.077 132.374C783.653 151.222 777.678 170.619 764.117 184.188L423.02 525.468C408.723 539.773 388.007 545.597 368.351 540.839L274 518" stroke="#D6D6D6"/>
<path d="M931 227L859.814 211.329C840.488 207.074 820.326 212.967 806.332 226.961L458.766 574.527C445.711 587.582 439.651 606.072 442.447 624.322L454.5 703" stroke="#D6D6D6"/>
<line y1="-0.5" x2="729.734" y2="-0.5" transform="matrix(-0.707107 0.707107 0.707107 0.707107 858 132)" stroke="#D6D6D6"/>
<rect x="748.112" y="224.941" width="23" height="72.5962" transform="rotate(44.2601 748.112 224.941)" fill="white"/>
<rect x="749.053" y="269" width="23" height="43.0615" transform="rotate(44.2601 749.053 269)" fill="white"/>
<rect x="756.423" y="484.354" width="23" height="38.4889" transform="rotate(135.291 756.423 484.354)" fill="white"/>
<rect x="746.549" y="517.603" width="23" height="55.7248" transform="rotate(135.291 746.549 517.603)" fill="white"/>
<rect x="730.757" y="545.885" width="23" height="65.9705" transform="rotate(135.291 730.757 545.885)" fill="white"/>
<rect x="498.345" y="547.898" width="23" height="48.9025" transform="rotate(-135.175 498.345 547.898)" fill="white"/>
<rect x="709.886" y="220.458" width="23" height="45.9372" transform="rotate(45.717 709.886 220.458)" fill="white"/>
<rect x="464.313" y="535.898" width="23" height="61.204" transform="rotate(-135.175 464.313 535.898)" fill="white"/>
<rect x="448.313" y="516.623" width="23" height="61.204" transform="rotate(-135.175 448.313 516.623)" fill="white"/>
<rect x="419" y="263.806" width="23" height="61.204" transform="rotate(-43.4114 419 263.806)" fill="white"/>
<rect x="453" y="259.806" width="23" height="36.5011" transform="rotate(-43.4114 453 259.806)" fill="white"/>
<rect x="461" y="219.806" width="23" height="62.0468" transform="rotate(-43.4114 461 219.806)" fill="white"/>
<path d="M476.746 225.739L473.736 222.854L471.262 224.081L470.285 223.145L479.915 218.588L480.745 219.383L476.608 229.203L475.635 228.272L476.746 225.739ZM474.769 222.348L477.212 224.689L479.209 220.155L474.769 222.348Z" fill="#333333"/>
<path d="M483.413 225.48L482.799 226.18C483.699 226.058 484.478 226.312 485.136 226.943C486.265 228.024 486.224 229.206 485.014 230.489L481.632 234.018L480.719 233.143L484.105 229.609C484.471 229.221 484.655 228.851 484.657 228.5C484.662 228.152 484.483 227.803 484.117 227.453C483.821 227.169 483.486 226.999 483.11 226.942C482.735 226.886 482.362 226.926 481.991 227.063L478.345 230.868L477.432 229.993L482.549 224.653L483.413 225.48Z" fill="#333333"/>
<path d="M485.388 232.41C486.173 231.591 486.998 231.119 487.862 230.994C488.73 230.866 489.478 231.103 490.107 231.705C490.732 232.304 491.022 232.993 490.977 233.77L493.645 230.987L494.558 231.862L487.293 239.443L486.454 238.639L486.958 238.024C486.164 238.121 485.442 237.858 484.79 237.234C484.171 236.641 483.909 235.903 484.003 235.022C484.1 234.143 484.54 233.295 485.322 232.479L485.388 232.41ZM486.202 233.389C485.622 233.994 485.293 234.588 485.215 235.17C485.137 235.752 485.319 236.254 485.76 236.676C486.339 237.231 487.011 237.376 487.775 237.112L490.126 234.659C490.335 233.894 490.157 233.24 489.591 232.698C489.144 232.269 488.629 232.107 488.048 232.213C487.467 232.319 486.852 232.711 486.202 233.389Z" fill="#333333"/>
<path d="M495.628 238.758C495.512 238.602 495.374 238.447 495.212 238.293C494.613 237.719 493.963 237.584 493.26 237.889L489.628 241.68L488.715 240.805L493.832 235.465L494.721 236.316L494.144 236.947C494.901 236.757 495.554 236.925 496.103 237.452C496.281 237.622 496.394 237.774 496.442 237.909L495.628 238.758Z" fill="#333333"/>
<path d="M494.163 246.215C493.439 245.521 493.077 244.72 493.077 243.811C493.08 242.899 493.463 242.045 494.226 241.248L494.387 241.081C494.895 240.551 495.447 240.175 496.045 239.953C496.65 239.73 497.245 239.676 497.831 239.789C498.423 239.902 498.931 240.162 499.356 240.569C500.05 241.234 500.371 241.98 500.317 242.806C500.264 243.632 499.829 244.471 499.013 245.324L498.648 245.704L495.031 242.237C494.539 242.776 494.284 243.349 494.265 243.955C494.252 244.561 494.472 245.082 494.926 245.517C495.249 245.826 495.585 246.022 495.935 246.105C496.285 246.188 496.648 246.201 497.024 246.144L497.165 247.113C496.059 247.372 495.058 247.073 494.163 246.215ZM498.637 241.319C498.269 240.966 497.83 240.804 497.321 240.834C496.816 240.861 496.302 241.088 495.779 241.515L498.454 244.079L498.52 244.009C498.939 243.52 499.157 243.042 499.176 242.574C499.198 242.103 499.019 241.685 498.637 241.319Z" fill="#333333"/>
<path d="M503.336 252.402L508.274 249.304L509.187 250.178L502.515 254.029L501.774 253.32L504.355 248.028L499.213 250.865L498.473 250.155L502.04 243.33L502.948 244.2L500.169 249.206L505.243 246.4L505.979 247.104L503.336 252.402Z" fill="#333333"/>
<path d="M691.884 260.985L684.821 253.971L686.8 251.978C687.411 251.363 688.086 250.955 688.827 250.753C689.567 250.55 690.315 250.57 691.07 250.812C691.828 251.051 692.534 251.492 693.187 252.134L693.638 252.582C694.305 253.244 694.76 253.953 695.004 254.709C695.252 255.462 695.272 256.211 695.065 256.957C694.862 257.698 694.449 258.389 693.826 259.03L691.884 260.985ZM686.512 253.801L692.047 259.297L693.02 258.317C693.733 257.599 694.064 256.82 694.013 255.979C693.965 255.135 693.528 254.303 692.704 253.485L692.291 253.075C691.489 252.279 690.679 251.85 689.86 251.788C689.041 251.72 688.285 252.029 687.591 252.715L686.512 253.801Z" fill="#333333"/>
<path d="M701.536 251.266C701.381 251.215 701.155 251.074 700.857 250.843C700.876 251.691 700.598 252.404 700.024 252.983C699.51 253.5 698.942 253.781 698.32 253.825C697.698 253.863 697.162 253.658 696.713 253.212C696.166 252.669 695.948 252.042 696.058 251.329C696.169 250.61 696.598 249.874 697.346 249.12L698.213 248.247L697.801 247.838C697.487 247.526 697.145 247.373 696.774 247.377C696.401 247.379 696.032 247.562 695.669 247.927C695.351 248.248 695.166 248.596 695.112 248.973C695.059 249.351 695.147 249.653 695.376 249.881L694.48 250.784C694.218 250.523 694.058 250.181 693.998 249.756C693.939 249.324 693.995 248.879 694.168 248.421C694.343 247.959 694.62 247.538 694.999 247.156C695.6 246.552 696.223 246.229 696.867 246.188C697.508 246.144 698.1 246.379 698.644 246.892L701.06 249.291C701.542 249.769 701.986 250.088 702.392 250.248L702.47 250.325L701.536 251.266ZM699.373 252.076C699.652 251.795 699.844 251.456 699.949 251.059C700.054 250.662 700.046 250.292 699.926 249.947L698.849 248.878L698.15 249.582C697.058 250.681 696.834 251.55 697.478 252.189C697.759 252.469 698.072 252.593 698.417 252.563C698.762 252.533 699.08 252.371 699.373 252.076Z" fill="#333333"/>
<path d="M699.377 242.943L700.065 243.569C699.959 242.667 700.227 241.893 700.869 241.246C701.971 240.137 703.152 240.199 704.414 241.432L707.882 244.876L706.991 245.773L703.517 242.324C703.136 241.952 702.769 241.761 702.418 241.753C702.07 241.741 701.718 241.915 701.361 242.274C701.072 242.565 700.896 242.897 700.833 243.271C700.77 243.645 700.803 244.019 700.934 244.392L704.674 248.106L703.783 249.004L698.534 243.792L699.377 242.943Z" fill="#333333"/>
<path d="M710.293 242.448L709.402 243.345L704.153 238.134L705.044 237.236L710.293 242.448ZM702.688 236.824C702.543 236.679 702.463 236.514 702.45 236.327C702.439 236.137 702.521 235.954 702.694 235.78C702.868 235.605 703.049 235.522 703.24 235.531C703.43 235.54 703.598 235.617 703.743 235.762C703.889 235.906 703.965 236.072 703.972 236.259C703.979 236.446 703.896 236.626 703.723 236.801C703.549 236.976 703.369 237.06 703.182 237.054C702.998 237.045 702.834 236.968 702.688 236.824Z" fill="#333333"/>
<path d="M714.083 238.826C713.376 239.538 712.568 239.885 711.659 239.869C710.747 239.85 709.9 239.452 709.117 238.675L708.952 238.511C708.431 237.994 708.065 237.434 707.854 236.832C707.642 236.224 707.598 235.628 707.722 235.044C707.845 234.454 708.114 233.951 708.529 233.533C709.206 232.851 709.958 232.544 710.783 232.612C711.608 232.68 712.44 233.13 713.277 233.961L713.651 234.332L710.12 237.888C710.65 238.389 711.218 238.654 711.824 238.684C712.43 238.708 712.955 238.497 713.398 238.05C713.713 237.733 713.915 237.401 714.004 237.053C714.093 236.704 714.113 236.342 714.063 235.965L715.034 235.84C715.273 236.951 714.956 237.947 714.083 238.826ZM709.266 234.266C708.906 234.628 708.737 235.063 708.758 235.573C708.776 236.078 708.994 236.596 709.411 237.127L712.022 234.498L711.955 234.43C711.473 234.003 710.998 233.776 710.531 233.749C710.06 233.718 709.639 233.89 709.266 234.266Z" fill="#333333"/>
<path d="M718.121 234.566L717.23 235.463L709.778 228.065L710.669 227.167L718.121 234.566Z" fill="#333333"/>
<path d="M451 499.286L448.115 502.297L449.343 504.77L448.406 505.748L443.85 496.117L444.644 495.288L454.465 499.425L453.533 500.397L451 499.286ZM447.61 501.264L449.951 498.82L445.417 496.824L447.61 501.264Z" fill="#333333"/>
<path d="M450.742 492.62L451.442 493.233C451.319 492.333 451.573 491.554 452.204 490.896C453.286 489.768 454.468 489.809 455.751 491.019L459.28 494.401L458.405 495.314L454.871 491.927C454.483 491.562 454.113 491.378 453.761 491.376C453.413 491.37 453.064 491.55 452.714 491.915C452.43 492.211 452.26 492.547 452.204 492.922C452.147 493.297 452.187 493.67 452.324 494.041L456.13 497.688L455.255 498.601L449.914 493.483L450.742 492.62Z" fill="#333333"/>
<path d="M463.759 489.727C463.603 489.678 463.374 489.541 463.073 489.316C463.107 490.163 462.842 490.881 462.278 491.47C461.773 491.996 461.21 492.287 460.59 492.342C459.968 492.391 459.429 492.196 458.972 491.758C458.416 491.225 458.187 490.601 458.284 489.887C458.382 489.166 458.798 488.422 459.532 487.656L460.384 486.767L459.964 486.365C459.645 486.059 459.3 485.912 458.93 485.923C458.556 485.931 458.191 486.121 457.835 486.493C457.523 486.818 457.343 487.17 457.296 487.548C457.25 487.927 457.343 488.228 457.577 488.451L456.697 489.369C456.43 489.114 456.264 488.774 456.197 488.35C456.129 487.92 456.178 487.474 456.342 487.013C456.509 486.548 456.779 486.122 457.151 485.734C457.741 485.118 458.357 484.784 459.001 484.732C459.641 484.677 460.237 484.901 460.79 485.405L463.248 487.76C463.738 488.23 464.188 488.541 464.597 488.693L464.676 488.769L463.759 489.727ZM461.611 490.575C461.885 490.289 462.071 489.946 462.169 489.548C462.267 489.149 462.252 488.779 462.126 488.437L461.03 487.387L460.344 488.102C459.272 489.221 459.064 490.094 459.719 490.722C460.005 490.996 460.32 491.115 460.664 491.079C461.008 491.042 461.324 490.874 461.611 490.575Z" fill="#333333"/>
<path d="M460.422 479.93L461.715 481.169L462.67 480.172L463.376 480.848L462.421 481.845L465.732 485.019C465.946 485.224 466.15 485.334 466.344 485.349C466.534 485.361 466.732 485.26 466.937 485.046C467.038 484.941 467.157 484.777 467.294 484.555L468.034 485.265C467.87 485.568 467.679 485.833 467.461 486.06C467.07 486.468 466.652 486.658 466.207 486.628C465.761 486.599 465.311 486.367 464.857 485.932L461.546 482.758L460.614 483.731L459.908 483.054L460.84 482.082L459.547 480.843L460.422 479.93Z" fill="#333333"/>
<path d="M465.991 481.953C465.468 481.452 465.095 480.899 464.873 480.294C464.653 479.686 464.605 479.091 464.728 478.508C464.854 477.922 465.143 477.394 465.594 476.923C466.29 476.196 467.105 475.85 468.037 475.885C468.973 475.917 469.858 476.333 470.694 477.134L470.758 477.195C471.278 477.694 471.649 478.242 471.871 478.84C472.094 479.431 472.142 480.023 472.016 480.616C471.893 481.205 471.601 481.74 471.141 482.22C470.447 482.944 469.633 483.29 468.697 483.259C467.765 483.224 466.884 482.809 466.055 482.014L465.991 481.953ZM466.979 481.139C467.572 481.706 468.178 482.026 468.798 482.096C469.422 482.163 469.954 481.967 470.396 481.506C470.84 481.042 471.012 480.5 470.912 479.88C470.809 479.257 470.429 478.632 469.775 478.004C469.189 477.443 468.581 477.129 467.951 477.062C467.321 476.988 466.785 477.182 466.344 477.642C465.912 478.093 465.743 478.629 465.837 479.249C465.93 479.869 466.311 480.499 466.979 481.139Z" fill="#333333"/>
<path d="M475.417 477.56L474.542 478.473L466.961 471.209L467.836 470.295L475.417 477.56Z" fill="#333333"/>
<path d="M477.159 473.065L474.348 467.986L475.284 467.009L479.391 475.063C479.961 476.247 479.899 477.2 479.206 477.924L479.025 478.083L478.635 478.362L477.894 477.652L478.151 477.425C478.447 477.115 478.615 476.815 478.654 476.524C478.696 476.23 478.604 475.868 478.379 475.437L478.03 474.715L470.923 471.559L471.879 470.562L477.159 473.065Z" fill="#333333"/>
<path d="M728.488 472.011C727.899 470.999 727.581 470.145 727.534 469.45C727.493 468.754 727.713 468.157 728.192 467.657C728.734 467.091 729.408 466.839 730.211 466.903C731.022 466.966 731.789 467.345 732.513 468.038C733.006 468.511 733.354 469.028 733.556 469.587C733.762 470.15 733.809 470.7 733.698 471.238C733.59 471.778 733.346 472.248 732.964 472.646L732.011 471.733C732.428 471.299 732.616 470.826 732.576 470.314C732.539 469.799 732.269 469.301 731.766 468.818C731.298 468.37 730.834 468.124 730.372 468.079C729.916 468.034 729.514 468.194 729.164 468.559C728.883 468.852 728.768 469.219 728.82 469.659C728.877 470.1 729.124 470.689 729.559 471.428C729.997 472.169 730.286 472.803 730.426 473.329C730.572 473.854 730.597 474.329 730.5 474.753C730.406 475.181 730.184 475.577 729.834 475.942C729.276 476.525 728.601 476.774 727.809 476.691C727.021 476.605 726.247 476.198 725.487 475.469C724.993 474.996 724.622 474.461 724.374 473.864C724.129 473.263 724.048 472.686 724.13 472.133C724.215 471.583 724.457 471.1 724.858 470.682L725.81 471.595C725.394 472.029 725.224 472.526 725.301 473.085C725.383 473.644 725.693 474.18 726.229 474.694C726.729 475.174 727.21 475.439 727.673 475.49C728.135 475.542 728.534 475.391 728.872 475.039C729.209 474.687 729.346 474.298 729.282 473.87C729.221 473.44 728.956 472.82 728.488 472.011Z" fill="#333333"/>
<path d="M732.558 482.056C732.606 481.9 732.743 481.672 732.969 481.37C732.122 481.404 731.404 481.139 730.815 480.575C730.288 480.07 729.997 479.508 729.942 478.887C729.894 478.266 730.088 477.726 730.527 477.269C731.059 476.713 731.683 476.484 732.398 476.581C733.118 476.679 733.862 477.095 734.629 477.83L735.517 478.681L735.919 478.261C736.225 477.942 736.372 477.597 736.361 477.227C736.353 476.853 736.164 476.488 735.792 476.132C735.466 475.82 735.114 475.64 734.736 475.594C734.358 475.547 734.057 475.64 733.833 475.874L732.915 474.994C733.17 474.728 733.51 474.561 733.934 474.494C734.365 474.427 734.81 474.475 735.272 474.639C735.736 474.807 736.162 475.076 736.551 475.448C737.166 476.038 737.5 476.655 737.552 477.298C737.608 477.938 737.384 478.535 736.88 479.087L734.524 481.545C734.055 482.035 733.743 482.485 733.591 482.894L733.515 482.973L732.558 482.056ZM731.709 479.908C731.996 480.182 732.338 480.368 732.737 480.466C733.135 480.564 733.506 480.55 733.848 480.423L734.898 479.327L734.182 478.642C733.063 477.57 732.19 477.361 731.563 478.016C731.288 478.302 731.169 478.617 731.206 478.961C731.242 479.305 731.41 479.621 731.709 479.908Z" fill="#333333"/>
<path d="M735.852 485.213L734.939 484.338L740.057 478.997L740.97 479.872L735.852 485.213ZM741.34 477.51C741.482 477.362 741.646 477.279 741.833 477.262C742.023 477.249 742.206 477.327 742.384 477.497C742.562 477.668 742.648 477.848 742.642 478.038C742.636 478.228 742.563 478.398 742.421 478.546C742.279 478.694 742.115 478.773 741.928 478.783C741.741 478.794 741.559 478.714 741.381 478.544C741.204 478.373 741.116 478.195 741.118 478.008C741.124 477.824 741.198 477.658 741.34 477.51Z" fill="#333333"/>
<path d="M739.798 483.787C740.584 482.968 741.408 482.495 742.273 482.371C743.14 482.243 743.888 482.48 744.517 483.082C745.142 483.681 745.432 484.369 745.387 485.147L748.055 482.363L748.968 483.238L741.703 490.82L740.864 490.016L741.369 489.4C740.574 489.498 739.852 489.235 739.2 488.61C738.582 488.017 738.319 487.28 738.413 486.398C738.511 485.519 738.95 484.672 739.732 483.856L739.798 483.787ZM740.612 484.765C740.032 485.371 739.703 485.965 739.625 486.546C739.547 487.128 739.729 487.63 740.17 488.053C740.749 488.608 741.421 488.753 742.186 488.489L744.536 486.036C744.745 485.27 744.567 484.617 744.001 484.074C743.554 483.646 743.039 483.484 742.458 483.59C741.877 483.696 741.262 484.088 740.612 484.765Z" fill="#333333"/>
<path d="M466.278 260.825L465.342 259.904L472.323 252.81L473.258 253.73L466.278 260.825Z" fill="#333333"/>
<path d="M470.274 259.482C471.083 258.661 471.915 258.195 472.771 258.084C473.631 257.971 474.374 258.223 475.001 258.84C475.644 259.473 475.923 260.194 475.836 261.003L476.455 260.462L477.278 261.272L472.215 266.418C471.544 267.1 470.812 267.438 470.019 267.431C469.23 267.428 468.494 267.091 467.812 266.42C467.432 266.046 467.14 265.598 466.936 265.078C466.732 264.558 466.673 264.062 466.759 263.591L467.759 263.51C467.676 264.368 467.914 265.072 468.472 265.622C468.911 266.053 469.373 266.265 469.86 266.258C470.35 266.254 470.815 266.028 471.256 265.58L471.702 265.126C470.933 265.187 470.236 264.911 469.612 264.297C468.995 263.69 468.739 262.949 468.845 262.075C468.954 261.204 469.43 260.34 470.274 259.482ZM471.08 260.476C470.495 261.071 470.156 261.659 470.064 262.239C469.976 262.817 470.15 263.322 470.589 263.753C471.157 264.312 471.829 264.465 472.604 264.21L474.972 261.803C475.191 261.028 475.025 260.369 474.473 259.825C474.034 259.394 473.524 259.227 472.941 259.325C472.359 259.424 471.738 259.807 471.08 260.476Z" fill="#333333"/>
<path d="M475.858 264.967C476.366 264.451 476.924 264.085 477.531 263.871C478.142 263.66 478.738 263.619 479.319 263.75C479.903 263.884 480.428 264.179 480.892 264.636C481.61 265.343 481.946 266.162 481.898 267.093C481.854 268.028 481.426 268.908 480.615 269.733L480.552 269.797C480.047 270.31 479.494 270.674 478.893 270.888C478.299 271.102 477.706 271.143 477.116 271.009C476.528 270.878 475.997 270.58 475.523 270.113C474.808 269.41 474.473 268.591 474.517 267.656C474.564 266.724 474.99 265.849 475.796 265.03L475.858 264.967ZM476.659 265.966C476.084 266.551 475.757 267.153 475.678 267.772C475.602 268.395 475.792 268.93 476.247 269.377C476.705 269.828 477.244 270.007 477.866 269.915C478.49 269.82 479.12 269.449 479.756 268.803C480.325 268.224 480.647 267.621 480.723 266.992C480.805 266.363 480.618 265.824 480.164 265.377C479.719 264.939 479.185 264.763 478.564 264.849C477.943 264.934 477.308 265.307 476.659 265.966Z" fill="#333333"/>
<path d="M486.087 271.531C485.973 271.374 485.836 271.217 485.677 271.06C485.086 270.479 484.437 270.336 483.73 270.631L480.048 274.374L479.147 273.487L484.334 268.214L485.211 269.077L484.627 269.701C485.386 269.521 486.036 269.698 486.579 270.231C486.754 270.404 486.865 270.558 486.911 270.693L486.087 271.531Z" fill="#333333"/>
<path d="M715.228 276.526L712.304 279.499L713.499 281.988L712.549 282.953L708.12 273.263L708.926 272.444L718.691 276.711L717.747 277.671L715.228 276.526ZM711.812 278.459L714.185 276.047L709.678 273.99L711.812 278.459Z" fill="#333333"/>
<path d="M720.455 274.918L719.568 275.819L712.084 268.455L712.971 267.554L720.455 274.918Z" fill="#333333"/>
<path d="M724.129 271.379C723.426 272.093 722.62 272.445 721.711 272.433C720.799 272.417 719.95 272.023 719.164 271.25L718.998 271.087C718.475 270.572 718.107 270.014 717.892 269.413C717.678 268.806 717.631 268.21 717.752 267.626C717.873 267.035 718.14 266.53 718.552 266.111C719.226 265.426 719.976 265.115 720.802 265.18C721.627 265.244 722.461 265.69 723.302 266.518L723.677 266.887L720.163 270.458C720.696 270.957 721.265 271.22 721.871 271.247C722.477 271.268 723.001 271.054 723.442 270.606C723.755 270.288 723.955 269.954 724.043 269.605C724.13 269.257 724.148 268.894 724.097 268.517L725.067 268.388C725.311 269.498 724.999 270.495 724.129 271.379ZM719.293 266.84C718.935 267.204 718.767 267.64 718.791 268.149C718.811 268.655 719.031 269.172 719.451 269.7L722.05 267.059L721.981 266.992C721.498 266.568 721.022 266.343 720.555 266.317C720.084 266.289 719.663 266.463 719.293 266.84Z" fill="#333333"/>
<path d="M725.479 263.116L724.705 260.053L725.74 259L726.65 263.29L731.065 264.134L730.039 265.177L726.867 264.454L727.642 267.614L726.611 268.661L725.696 264.26L721.392 263.42L722.418 262.377L725.479 263.116Z" fill="#333333"/>
<path d="M735.16 259.973C735.005 259.923 734.778 259.783 734.48 259.553C734.503 260.401 734.228 261.115 733.656 261.696C733.145 262.216 732.578 262.5 731.956 262.546C731.335 262.587 730.798 262.385 730.347 261.941C729.798 261.401 729.577 260.774 729.684 260.061C729.791 259.341 730.217 258.603 730.961 257.846L731.824 256.969L731.41 256.562C731.095 256.252 730.752 256.1 730.382 256.106C730.008 256.109 729.64 256.294 729.279 256.661C728.963 256.983 728.779 257.332 728.727 257.71C728.675 258.087 728.765 258.389 728.995 258.616L728.104 259.523C727.84 259.264 727.678 258.922 727.617 258.497C727.555 258.066 727.61 257.621 727.78 257.162C727.953 256.699 728.229 256.277 728.606 255.893C729.204 255.286 729.824 254.96 730.469 254.916C731.11 254.869 731.703 255.101 732.248 255.612L734.675 258C735.159 258.476 735.605 258.793 736.012 258.951L736.09 259.028L735.16 259.973ZM733.001 260.793C733.279 260.51 733.47 260.17 733.573 259.773C733.676 259.376 733.666 259.005 733.544 258.662L732.463 257.597L731.767 258.304C730.681 259.408 730.461 260.279 731.107 260.915C731.39 261.193 731.703 261.316 732.048 261.284C732.392 261.252 732.71 261.089 733.001 260.793Z" fill="#333333"/>
<path d="M732.865 251.76L733.556 252.382C733.446 251.481 733.71 250.705 734.35 250.056C735.446 248.941 736.627 248.998 737.894 250.225L741.378 253.653L740.491 254.555L737.002 251.122C736.619 250.751 736.252 250.562 735.9 250.555C735.552 250.545 735.201 250.721 734.846 251.081C734.558 251.374 734.384 251.707 734.322 252.081C734.261 252.456 734.296 252.829 734.428 253.202L738.185 256.898L737.298 257.8L732.026 252.612L732.865 251.76Z" fill="#333333"/>
<path d="M739.82 249.876C739.011 249.08 738.55 248.249 738.437 247.383C738.32 246.514 738.567 245.769 739.177 245.149C739.785 244.532 740.477 244.25 741.254 244.305L738.506 241.601L739.393 240.7L746.877 248.064L746.062 248.892L745.454 248.38C745.541 249.175 745.268 249.895 744.635 250.538C744.034 251.149 743.293 251.401 742.413 251.295C741.535 251.187 740.694 250.736 739.888 249.943L739.82 249.876ZM740.809 249.075C741.407 249.663 741.996 250 742.577 250.086C743.158 250.171 743.662 249.996 744.091 249.561C744.653 248.989 744.807 248.319 744.553 247.551L742.131 245.168C741.369 244.949 740.713 245.119 740.163 245.677C739.728 246.119 739.56 246.631 739.658 247.214C739.756 247.796 740.14 248.417 740.809 249.075Z" fill="#333333"/>
<path d="M750.508 244.569C749.805 245.283 748.999 245.635 748.09 245.623C747.178 245.608 746.329 245.213 745.543 244.44L745.377 244.277C744.854 243.762 744.485 243.204 744.271 242.604C744.057 241.996 744.01 241.4 744.131 240.816C744.252 240.225 744.518 239.721 744.931 239.301C745.605 238.616 746.355 238.305 747.181 238.37C748.006 238.434 748.84 238.88 749.681 239.708L750.056 240.077L746.542 243.649C747.074 244.147 747.644 244.41 748.25 244.437C748.856 244.458 749.379 244.244 749.82 243.796C750.134 243.478 750.334 243.144 750.421 242.795C750.509 242.447 750.527 242.084 750.475 241.707L751.446 241.579C751.69 242.688 751.378 243.685 750.508 244.569ZM745.671 240.03C745.313 240.394 745.146 240.83 745.17 241.339C745.19 241.845 745.41 242.362 745.83 242.891L748.429 240.25L748.36 240.182C747.877 239.758 747.401 239.533 746.934 239.508C746.463 239.479 746.042 239.653 745.671 240.03Z" fill="#333333"/>
<path d="M751.509 234.429C751.352 234.543 751.195 234.679 751.039 234.839C750.457 235.43 750.314 236.079 750.61 236.785L754.352 240.467L753.465 241.369L748.193 236.181L749.056 235.304L749.679 235.889C749.499 235.13 749.676 234.479 750.209 233.937C750.382 233.761 750.536 233.65 750.671 233.604L751.509 234.429Z" fill="#333333"/>
<path d="M469.391 520.284L466.466 523.256L467.661 525.746L466.712 526.71L462.282 517.02L463.088 516.202L472.853 520.468L471.909 521.428L469.391 520.284ZM465.974 522.216L468.347 519.804L463.84 517.747L465.974 522.216Z" fill="#333333"/>
<path d="M469.221 513.614L469.912 514.237C469.802 513.336 470.066 512.56 470.705 511.91C471.802 510.796 472.983 510.853 474.25 512.08L477.734 515.508L476.847 516.409L473.358 512.977C472.975 512.606 472.607 512.417 472.256 512.41C471.908 512.4 471.557 512.575 471.202 512.936C470.914 513.228 470.74 513.562 470.678 513.936C470.617 514.31 470.652 514.684 470.784 515.057L474.541 518.753L473.654 519.655L468.381 514.467L469.221 513.614Z" fill="#333333"/>
<path d="M476.176 511.731C475.367 510.935 474.906 510.104 474.792 509.238C474.676 508.369 474.923 507.624 475.533 507.004C476.14 506.386 476.833 506.105 477.61 506.16L474.862 503.456L475.748 502.555L483.233 509.919L482.418 510.747L481.81 510.235C481.897 511.03 481.624 511.749 480.991 512.393C480.39 513.003 479.649 513.256 478.769 513.15C477.891 513.041 477.05 512.591 476.244 511.798L476.176 511.731ZM477.165 510.93C477.763 511.518 478.352 511.855 478.933 511.94C479.514 512.026 480.018 511.851 480.446 511.416C481.009 510.844 481.163 510.174 480.909 509.406L478.487 507.023C477.725 506.804 477.069 506.973 476.519 507.532C476.084 507.974 475.916 508.486 476.014 509.069C476.112 509.651 476.496 510.272 477.165 510.93Z" fill="#333333"/>
<path d="M482.658 501.575C482.501 501.689 482.344 501.826 482.187 501.985C481.606 502.576 481.463 503.225 481.759 503.932L485.501 507.614L484.614 508.515L479.342 503.328L480.204 502.451L480.828 503.036C480.648 502.276 480.825 501.626 481.358 501.083C481.531 500.908 481.685 500.797 481.82 500.751L482.658 501.575Z" fill="#333333"/>
<path d="M490.095 503.139C489.392 503.854 488.586 504.205 487.677 504.193C486.765 504.178 485.916 503.784 485.13 503.01L484.964 502.847C484.441 502.333 484.073 501.775 483.858 501.174C483.644 500.567 483.597 499.971 483.718 499.387C483.839 498.796 484.106 498.291 484.518 497.872C485.192 497.187 485.942 496.876 486.768 496.94C487.593 497.004 488.427 497.45 489.268 498.278L489.643 498.647L486.129 502.219C486.662 502.718 487.231 502.98 487.837 503.008C488.443 503.029 488.966 502.815 489.408 502.367C489.721 502.048 489.921 501.715 490.009 501.366C490.096 501.017 490.114 500.655 490.063 500.278L491.033 500.149C491.277 501.259 490.965 502.256 490.095 503.139ZM485.259 498.601C484.901 498.965 484.733 499.401 484.757 499.91C484.777 500.416 484.997 500.933 485.417 501.461L488.016 498.82L487.947 498.753C487.464 498.328 486.988 498.103 486.521 498.078C486.05 498.05 485.629 498.224 485.259 498.601Z" fill="#333333"/>
<path d="M496.402 494.049L493.37 489.07L494.257 488.169L498.019 494.891L497.3 495.622L492.043 492.972L494.812 498.151L494.092 498.882L487.315 495.225L488.197 494.328L493.165 497.174L490.426 492.062L491.141 491.336L496.402 494.049Z" fill="#333333"/>
<path d="M707.39 493.12C706.814 492.1 706.508 491.242 706.47 490.546C706.438 489.85 706.666 489.255 707.151 488.762C707.701 488.203 708.378 487.96 709.181 488.034C709.99 488.108 710.752 488.497 711.467 489.2C711.954 489.68 712.295 490.201 712.49 490.763C712.688 491.329 712.728 491.879 712.609 492.415C712.495 492.954 712.244 493.42 711.857 493.813L710.917 492.888C711.339 492.459 711.533 491.989 711.5 491.477C711.47 490.961 711.206 490.459 710.709 489.97C710.248 489.516 709.787 489.264 709.325 489.213C708.871 489.162 708.466 489.316 708.111 489.677C707.827 489.966 707.707 490.331 707.753 490.772C707.805 491.213 708.043 491.806 708.468 492.55C708.896 493.298 709.177 493.935 709.31 494.463C709.45 494.99 709.468 495.465 709.365 495.888C709.265 496.314 709.038 496.708 708.683 497.068C708.118 497.643 707.44 497.884 706.649 497.79C705.862 497.694 705.093 497.276 704.343 496.538C703.856 496.058 703.492 495.518 703.252 494.918C703.015 494.314 702.941 493.736 703.03 493.184C703.122 492.636 703.371 492.155 703.777 491.742L704.718 492.668C704.296 493.096 704.119 493.591 704.188 494.151C704.264 494.711 704.566 495.252 705.096 495.773C705.59 496.259 706.067 496.53 706.528 496.588C706.99 496.645 707.391 496.5 707.733 496.153C708.075 495.805 708.217 495.417 708.159 494.989C708.104 494.558 707.848 493.935 707.39 493.12Z" fill="#333333"/>
<path d="M710.163 502.265C709.449 501.561 709.097 500.755 709.109 499.847C709.125 498.934 709.519 498.085 710.292 497.299L710.455 497.134C710.97 496.611 711.528 496.242 712.129 496.028C712.736 495.813 713.332 495.766 713.916 495.887C714.507 496.008 715.012 496.275 715.431 496.687C716.116 497.362 716.427 498.112 716.363 498.937C716.298 499.763 715.852 500.596 715.025 501.437L714.655 501.813L711.084 498.298C710.585 498.831 710.322 499.4 710.295 500.006C710.274 500.612 710.488 501.136 710.936 501.577C711.255 501.89 711.588 502.09 711.937 502.178C712.286 502.265 712.648 502.283 713.025 502.232L713.154 503.202C712.044 503.447 711.047 503.134 710.163 502.265ZM714.702 497.428C714.338 497.07 713.902 496.903 713.393 496.926C712.887 496.946 712.37 497.166 711.842 497.586L714.483 500.185L714.55 500.117C714.974 499.633 715.199 499.158 715.225 498.69C715.253 498.219 715.079 497.799 714.702 497.428Z" fill="#333333"/>
<path d="M720.403 503.363C720.289 503.206 720.153 503.05 719.993 502.893C719.402 502.311 718.753 502.168 718.047 502.464L714.365 506.206L713.463 505.319L718.651 500.047L719.528 500.91L718.943 501.534C719.702 501.353 720.353 501.53 720.895 502.064C721.071 502.237 721.182 502.39 721.228 502.525L720.403 503.363Z" fill="#333333"/>
<path d="M719.27 505.758C720.078 504.936 720.911 504.47 721.767 504.36C722.627 504.247 723.37 504.499 723.997 505.116C724.64 505.748 724.918 506.47 724.831 507.279L725.45 506.738L726.274 507.548L721.211 512.693C720.54 513.376 719.808 513.714 719.015 513.707C718.225 513.704 717.49 513.367 716.807 512.695C716.427 512.321 716.135 511.874 715.931 511.354C715.727 510.833 715.668 510.338 715.755 509.866L716.755 509.786C716.672 510.644 716.909 511.347 717.468 511.897C717.907 512.329 718.369 512.541 718.856 512.534C719.345 512.53 719.811 512.304 720.252 511.855L720.698 511.402C719.928 511.463 719.231 511.187 718.608 510.573C717.991 509.966 717.735 509.225 717.841 508.351C717.949 507.48 718.426 506.616 719.27 505.758ZM720.075 506.752C719.49 507.347 719.152 507.934 719.06 508.515C718.971 509.093 719.146 509.597 719.585 510.029C720.153 510.588 720.825 510.741 721.599 510.486L723.968 508.079C724.187 507.304 724.021 506.644 723.468 506.101C723.03 505.67 722.519 505.503 721.937 505.601C721.354 505.699 720.734 506.083 720.075 506.752Z" fill="#333333"/>
<path d="M724.643 516.511C723.928 515.808 723.577 515.002 723.589 514.093C723.604 513.181 723.998 512.332 724.772 511.546L724.935 511.38C725.449 510.857 726.007 510.488 726.608 510.274C727.215 510.059 727.811 510.013 728.395 510.134C728.986 510.255 729.491 510.521 729.91 510.933C730.595 511.608 730.906 512.358 730.842 513.183C730.777 514.009 730.331 514.842 729.504 515.684L729.134 516.059L725.563 512.545C725.064 513.077 724.801 513.646 724.774 514.252C724.753 514.858 724.967 515.382 725.415 515.823C725.734 516.136 726.067 516.337 726.416 516.424C726.765 516.511 727.127 516.529 727.504 516.478L727.633 517.449C726.523 517.693 725.526 517.38 724.643 516.511ZM729.181 511.674C728.817 511.316 728.381 511.149 727.872 511.172C727.366 511.193 726.849 511.413 726.321 511.833L728.962 514.431L729.029 514.363C729.454 513.879 729.678 513.404 729.704 512.936C729.732 512.466 729.558 512.045 729.181 511.674Z" fill="#333333"/>
<path d="M730.898 519.875L736.014 517.132L736.979 518.081L728.871 522.081C727.68 522.636 726.727 522.561 726.013 521.858L725.857 521.676L725.583 521.282L726.302 520.551L726.526 520.81C726.832 521.11 727.13 521.282 727.42 521.325C727.714 521.371 728.077 521.284 728.51 521.064L729.237 520.725L732.487 513.661L733.471 514.629L730.898 519.875Z" fill="#333333"/>
<path d="M435.028 272.956L434.1 272.017L436.036 263.062L430.579 268.452L429.652 267.514L436.733 260.519L437.66 261.458L435.71 270.446L441.191 265.033L442.109 265.962L435.028 272.956Z" fill="#333333"/>
<path d="M437.492 275.451L436.603 274.551L441.865 269.353L442.754 270.253L437.492 275.451ZM443.189 267.902C443.335 267.758 443.502 267.68 443.689 267.668C443.879 267.659 444.06 267.743 444.233 267.918C444.406 268.093 444.487 268.276 444.476 268.466C444.466 268.656 444.387 268.823 444.241 268.967C444.095 269.111 443.929 269.186 443.742 269.191C443.555 269.196 443.375 269.111 443.202 268.936C443.029 268.761 442.947 268.58 442.954 268.393C442.965 268.21 443.043 268.046 443.189 267.902Z" fill="#333333"/>
<path d="M442.806 275.957L441.66 275.974L439.812 277.8L438.923 276.9L446.394 269.522L447.282 270.421L442.764 274.884L443.819 274.794L447.169 274.723L448.25 275.817L444.029 275.941L443.223 281.253L442.18 280.198L442.806 275.957Z" fill="#333333"/>
<path d="M446.349 279.058C446.865 278.549 447.428 278.192 448.038 277.986C448.652 277.784 449.248 277.752 449.827 277.891C450.41 278.033 450.93 278.336 451.388 278.8C452.096 279.516 452.419 280.34 452.359 281.271C452.301 282.205 451.861 283.079 451.037 283.892L450.974 283.955C450.462 284.461 449.904 284.817 449.3 285.022C448.702 285.228 448.109 285.26 447.52 285.118C446.935 284.979 446.408 284.672 445.941 284.199C445.236 283.486 444.912 282.662 444.97 281.728C445.03 280.797 445.469 279.928 446.286 279.121L446.349 279.058ZM447.136 280.069C446.552 280.645 446.217 281.243 446.129 281.861C446.045 282.482 446.227 283.02 446.675 283.474C447.126 283.931 447.663 284.118 448.286 284.035C448.912 283.948 449.547 283.587 450.192 282.949C450.769 282.379 451.1 281.78 451.185 281.152C451.276 280.525 451.097 279.984 450.649 279.53C450.21 279.086 449.679 278.902 449.057 278.978C448.434 279.055 447.794 279.419 447.136 280.069Z" fill="#333333"/>
<path d="M450.481 288.602L449.593 287.702L457.063 280.323L457.952 281.223L450.481 288.602Z" fill="#333333"/>
<path d="M455.117 293.295C455.169 293.141 455.313 292.916 455.546 292.621C454.699 292.632 453.988 292.347 453.415 291.767C452.903 291.248 452.628 290.677 452.59 290.055C452.558 289.433 452.767 288.899 453.218 288.454C453.766 287.913 454.396 287.701 455.107 287.818C455.825 287.935 456.557 288.372 457.303 289.127L458.168 290.003L458.582 289.594C458.896 289.284 459.053 288.943 459.052 288.573C459.054 288.199 458.874 287.829 458.512 287.462C458.195 287.141 457.849 286.952 457.472 286.895C457.095 286.838 456.792 286.923 456.562 287.151L455.668 286.246C455.931 285.986 456.275 285.829 456.701 285.774C457.133 285.718 457.577 285.779 458.034 285.956C458.493 286.136 458.912 286.417 459.29 286.8C459.889 287.406 460.206 288.032 460.24 288.677C460.278 289.318 460.038 289.908 459.519 290.446L457.097 292.838C456.614 293.316 456.29 293.757 456.127 294.162L456.049 294.239L455.117 293.295ZM454.328 291.125C454.607 291.407 454.944 291.602 455.339 291.711C455.735 291.82 456.106 291.816 456.451 291.698L457.531 290.632L456.834 289.927C455.746 288.824 454.879 288.592 454.233 289.229C453.951 289.508 453.824 289.82 453.85 290.165C453.877 290.51 454.037 290.83 454.328 291.125Z" fill="#333333"/>
<path d="M460.201 295.806L465.356 293.136L466.307 294.099L458.143 297.983C456.944 298.52 455.992 298.432 455.288 297.719L455.134 297.534L454.866 297.136L455.596 296.416L455.816 296.678C456.117 296.983 456.413 297.159 456.702 297.206C456.995 297.256 457.36 297.174 457.796 296.961L458.528 296.632L461.878 289.615L462.848 290.597L460.201 295.806Z" fill="#333333"/>
<path d="M733.209 301.562L735.947 304.335L735.014 305.257L728.019 298.176L730.631 295.596C731.406 294.831 732.208 294.429 733.036 294.393C733.868 294.353 734.605 294.659 735.249 295.31C735.928 295.998 736.236 296.741 736.173 297.54C736.11 298.332 735.678 299.124 734.877 299.915L733.209 301.562ZM732.455 300.799L734.133 299.141C734.632 298.648 734.9 298.154 734.935 297.658C734.967 297.158 734.764 296.687 734.325 296.242C733.909 295.821 733.443 295.615 732.927 295.625C732.411 295.634 731.917 295.863 731.443 296.312L729.712 298.022L732.455 300.799Z" fill="#333333"/>
<path d="M744.347 296.038C744.192 295.986 743.968 295.843 743.673 295.609C743.683 296.456 743.399 297.167 742.818 297.74C742.3 298.253 741.729 298.528 741.107 298.566C740.485 298.597 739.951 298.388 739.506 297.937C738.965 297.389 738.753 296.759 738.87 296.048C738.987 295.33 739.423 294.598 740.179 293.852L741.054 292.987L740.646 292.574C740.335 292.259 739.995 292.103 739.624 292.103C739.25 292.101 738.88 292.281 738.514 292.643C738.193 292.96 738.004 293.307 737.947 293.683C737.89 294.06 737.975 294.364 738.202 294.594L737.298 295.487C737.038 295.225 736.881 294.88 736.825 294.455C736.77 294.023 736.831 293.578 737.008 293.122C737.188 292.662 737.469 292.243 737.852 291.865C738.458 291.266 739.083 290.95 739.728 290.915C740.37 290.877 740.96 291.118 741.498 291.636L743.89 294.059C744.367 294.542 744.808 294.865 745.213 295.029L745.29 295.106L744.347 296.038ZM742.176 296.827C742.458 296.549 742.654 296.212 742.763 295.816C742.871 295.42 742.867 295.05 742.75 294.704L741.684 293.624L740.978 294.321C739.876 295.41 739.643 296.277 740.281 296.922C740.559 297.204 740.871 297.332 741.216 297.305C741.561 297.278 741.881 297.119 742.176 296.827Z" fill="#333333"/>
<path d="M746.968 291.037L744.28 285.708L745.199 284.8L748.51 291.926L747.824 292.604L740.72 289.224L741.639 288.317L746.968 291.037Z" fill="#333333"/>
<path d="M753.474 287.215C752.761 287.92 751.95 288.259 751.041 288.234C750.13 288.206 749.286 287.8 748.511 287.015L748.348 286.85C747.832 286.328 747.472 285.765 747.266 285.161C747.06 284.551 747.022 283.954 747.151 283.372C747.281 282.783 747.554 282.282 747.973 281.869C748.657 281.193 749.411 280.893 750.236 280.969C751.06 281.045 751.887 281.503 752.716 282.343L753.086 282.717L749.521 286.238C750.047 286.744 750.612 287.015 751.218 287.051C751.824 287.081 752.35 286.875 752.798 286.433C753.115 286.119 753.32 285.788 753.413 285.441C753.505 285.093 753.528 284.731 753.482 284.353L754.455 284.239C754.683 285.352 754.356 286.344 753.474 287.215ZM748.703 282.608C748.34 282.967 748.166 283.401 748.182 283.91C748.195 284.416 748.408 284.936 748.82 285.47L751.456 282.867L751.389 282.799C750.912 282.367 750.439 282.135 749.972 282.103C749.502 282.068 749.079 282.236 748.703 282.608Z" fill="#333333"/>
<path d="M757.454 283.092L756.554 283.981L749.175 276.511L750.075 275.622L757.454 283.092Z" fill="#333333"/>
<path d="M497.507 535.473L500.245 538.246L499.311 539.168L492.317 532.087L494.929 529.507C495.704 528.742 496.505 528.34 497.334 528.304C498.166 528.264 498.903 528.57 499.547 529.221C500.226 529.909 500.534 530.652 500.471 531.451C500.408 532.243 499.976 533.035 499.175 533.826L497.507 535.473ZM496.753 534.71L498.431 533.052C498.93 532.559 499.197 532.065 499.233 531.569C499.265 531.069 499.061 530.598 498.623 530.153C498.206 529.732 497.74 529.526 497.225 529.536C496.709 529.545 496.215 529.774 495.741 530.223L494.01 531.933L496.753 534.71Z" fill="#333333"/>
<path d="M508.645 529.949C508.49 529.897 508.265 529.754 507.97 529.52C507.981 530.367 507.697 531.078 507.116 531.651C506.597 532.164 506.027 532.439 505.405 532.477C504.783 532.508 504.249 532.299 503.804 531.848C503.263 531.3 503.051 530.671 503.168 529.959C503.285 529.241 503.721 528.509 504.477 527.763L505.352 526.898L504.944 526.485C504.633 526.17 504.293 526.014 503.922 526.014C503.548 526.012 503.178 526.192 502.812 526.554C502.491 526.871 502.302 527.218 502.245 527.594C502.187 527.971 502.273 528.275 502.5 528.505L501.595 529.398C501.336 529.136 501.179 528.791 501.123 528.366C501.068 527.934 501.129 527.489 501.305 527.033C501.486 526.573 501.767 526.154 502.149 525.776C502.756 525.177 503.381 524.861 504.026 524.826C504.668 524.788 505.257 525.029 505.796 525.547L508.188 527.97C508.665 528.453 509.106 528.776 509.511 528.94L509.588 529.017L508.645 529.949ZM506.474 530.738C506.756 530.46 506.952 530.123 507.06 529.727C507.169 529.331 507.165 528.961 507.048 528.615L505.981 527.535L505.276 528.232C504.174 529.321 503.941 530.188 504.579 530.833C504.857 531.115 505.169 531.243 505.514 531.216C505.859 531.189 506.179 531.03 506.474 530.738Z" fill="#333333"/>
<path d="M511.266 524.948L508.578 519.619L509.497 518.711L512.808 525.837L512.122 526.515L505.018 523.135L505.937 522.228L511.266 524.948Z" fill="#333333"/>
<path d="M517.772 521.126C517.059 521.831 516.248 522.17 515.339 522.145C514.427 522.117 513.584 521.711 512.809 520.926L512.646 520.761C512.13 520.239 511.769 519.676 511.564 519.072C511.358 518.462 511.32 517.865 511.449 517.283C511.578 516.694 511.852 516.193 512.27 515.78C512.955 515.104 513.709 514.804 514.533 514.88C515.358 514.956 516.185 515.414 517.014 516.254L517.384 516.628L513.819 520.149C514.345 520.655 514.91 520.926 515.516 520.962C516.121 520.992 516.648 520.786 517.095 520.344C517.413 520.03 517.618 519.699 517.711 519.352C517.803 519.004 517.826 518.642 517.78 518.264L518.752 518.15C518.981 519.263 518.654 520.255 517.772 521.126ZM513.001 516.519C512.637 516.878 512.464 517.312 512.48 517.821C512.493 518.327 512.706 518.847 513.118 519.381L515.754 516.778L515.687 516.71C515.21 516.278 514.737 516.046 514.27 516.014C513.8 515.979 513.377 516.147 513.001 516.519Z" fill="#333333"/>
<path d="M521.752 517.003L520.852 517.892L513.473 510.422L514.373 509.533L521.752 517.003Z" fill="#333333"/>
<path d="M682.752 517.133L690.592 513.387L691.601 514.408L681.925 518.776L681.109 517.949L685.601 508.334L686.605 509.35L682.752 517.133Z" fill="#333333"/>
<path d="M686.287 523.192L685.398 522.293L692.869 514.914L693.757 515.814L686.287 523.192Z" fill="#333333"/>
<path d="M690.923 527.886C690.975 527.731 691.118 527.507 691.352 527.212C690.505 527.222 689.794 526.938 689.221 526.357C688.709 525.839 688.433 525.268 688.395 524.646C688.364 524.024 688.573 523.49 689.024 523.045C689.572 522.504 690.202 522.292 690.913 522.409C691.631 522.526 692.363 522.962 693.109 523.718L693.974 524.593L694.387 524.185C694.702 523.874 694.859 523.534 694.858 523.163C694.86 522.789 694.68 522.419 694.318 522.053C694.001 521.732 693.654 521.543 693.278 521.486C692.901 521.429 692.598 521.514 692.367 521.741L691.474 520.836C691.737 520.577 692.081 520.42 692.506 520.364C692.939 520.309 693.383 520.37 693.839 520.547C694.299 520.727 694.718 521.008 695.096 521.391C695.695 521.997 696.011 522.622 696.046 523.267C696.084 523.909 695.844 524.499 695.325 525.037L692.903 527.429C692.42 527.906 692.096 528.347 691.933 528.752L691.855 528.829L690.923 527.886ZM690.134 525.715C690.412 525.997 690.75 526.193 691.145 526.302C691.541 526.41 691.912 526.406 692.257 526.289L693.337 525.223L692.64 524.517C691.551 523.415 690.684 523.182 690.039 523.82C689.757 524.098 689.629 524.41 689.656 524.755C689.683 525.1 689.842 525.42 690.134 525.715Z" fill="#333333"/>
<path d="M695.524 527.194C696.331 526.396 697.169 525.947 698.036 525.846C698.907 525.742 699.648 526 700.26 526.619C700.868 527.235 701.14 527.931 701.074 528.707L703.817 525.998L704.705 526.898L697.235 534.276L696.418 533.449L696.939 532.848C696.143 532.924 695.428 532.641 694.793 531.999C694.191 531.389 693.949 530.645 694.068 529.766C694.189 528.89 694.652 528.055 695.456 527.261L695.524 527.194ZM696.311 528.194C695.714 528.784 695.369 529.368 695.275 529.948C695.181 530.527 695.349 531.034 695.778 531.468C696.342 532.039 697.009 532.203 697.781 531.959L700.198 529.572C700.428 528.813 700.268 528.154 699.717 527.597C699.282 527.156 698.772 526.98 698.188 527.07C697.604 527.16 696.979 527.535 696.311 528.194Z" fill="#333333"/>
<path d="M699.584 536.655L698.695 535.755L703.958 530.557L704.846 531.457L699.584 536.655ZM705.281 529.105C705.427 528.961 705.594 528.883 705.781 528.872C705.971 528.863 706.152 528.946 706.325 529.122C706.498 529.297 706.579 529.479 706.569 529.669C706.558 529.859 706.479 530.026 706.333 530.171C706.188 530.315 706.021 530.389 705.834 530.395C705.647 530.4 705.467 530.315 705.294 530.14C705.121 529.965 705.039 529.784 705.046 529.597C705.057 529.413 705.135 529.25 705.281 529.105Z" fill="#333333"/>
<path d="M707.109 533.748L706.549 534.348C707.384 534.286 708.125 534.582 708.772 535.237C709.499 535.973 709.712 536.753 709.41 537.576C709.836 537.501 710.265 537.526 710.696 537.651C711.13 537.78 711.536 538.035 711.914 538.418C713.054 539.572 713.022 540.763 711.819 541.989L708.293 545.472L707.405 544.572L710.877 541.142C711.253 540.771 711.449 540.408 711.464 540.054C711.482 539.696 711.291 539.315 710.891 538.909C710.561 538.575 710.187 538.397 709.768 538.375C709.352 538.35 708.958 538.486 708.586 538.784L705.094 542.233L704.2 541.328L707.649 537.922C708.414 537.167 708.427 536.414 707.687 535.665C707.104 535.075 706.454 534.92 705.737 535.199L701.895 538.994L701.006 538.094L706.268 532.896L707.109 533.748Z" fill="#333333"/>
<path d="M710.604 547.811L709.715 546.912L714.977 541.714L715.866 542.614L710.604 547.811ZM716.301 540.262C716.447 540.118 716.614 540.04 716.801 540.029C716.991 540.02 717.172 540.103 717.345 540.278C717.518 540.454 717.599 540.636 717.588 540.826C717.578 541.016 717.499 541.183 717.353 541.327C717.207 541.472 717.041 541.546 716.854 541.552C716.667 541.557 716.487 541.472 716.314 541.297C716.141 541.122 716.059 540.941 716.066 540.754C716.077 540.57 716.155 540.406 716.301 540.262Z" fill="#333333"/>
<path d="M718.998 547.399C718.886 547.241 718.752 547.082 718.595 546.923C718.012 546.333 717.365 546.181 716.654 546.466L712.919 550.156L712.031 549.256L717.293 544.058L718.158 544.934L717.564 545.549C718.326 545.379 718.974 545.565 719.509 546.107C719.682 546.282 719.79 546.437 719.834 546.573L718.998 547.399Z" fill="#333333"/>
<circle cx="602" cy="385" r="124" fill="#FEFEFE"/>
<g filter="url(#filter0_d)">
<circle cx="601.327" cy="384.74" r="110" transform="rotate(10.8503 601.327 384.74)" fill="url(#paint5_linear)"/>
<circle cx="601.327" cy="384.74" r="110.5" transform="rotate(10.8503 601.327 384.74)" stroke="white"/>
</g>
<path d="M579.922 377.047C579.922 375.656 579.562 374.609 578.844 373.906C578.141 373.188 576.852 372.445 574.977 371.68C571.555 370.383 569.094 368.867 567.594 367.133C566.094 365.383 565.344 363.32 565.344 360.945C565.344 358.07 566.359 355.766 568.391 354.031C570.438 352.281 573.031 351.406 576.172 351.406C578.266 351.406 580.133 351.852 581.773 352.742C583.414 353.617 584.672 354.859 585.547 356.469C586.438 358.078 586.883 359.906 586.883 361.953H580.016C580.016 360.359 579.672 359.148 578.984 358.32C578.312 357.477 577.336 357.055 576.055 357.055C574.852 357.055 573.914 357.414 573.242 358.133C572.57 358.836 572.234 359.789 572.234 360.992C572.234 361.93 572.609 362.781 573.359 363.547C574.109 364.297 575.438 365.078 577.344 365.891C580.672 367.094 583.086 368.57 584.586 370.32C586.102 372.07 586.859 374.297 586.859 377C586.859 379.969 585.914 382.289 584.023 383.961C582.133 385.633 579.562 386.469 576.312 386.469C574.109 386.469 572.102 386.016 570.289 385.109C568.477 384.203 567.055 382.906 566.023 381.219C565.008 379.531 564.5 377.539 564.5 375.242H571.414C571.414 377.211 571.797 378.641 572.562 379.531C573.328 380.422 574.578 380.867 576.312 380.867C578.719 380.867 579.922 379.594 579.922 377.047Z" fill="white"/>
<path d="M609.055 371.234H598.32V380.281H611.023V386H591.43V351.875H610.977V357.617H598.32V365.68H609.055V371.234Z" fill="white"/>
<path d="M639.031 372.008C639.031 376.586 637.945 380.141 635.773 382.672C633.617 385.203 630.617 386.469 626.773 386.469C622.945 386.469 619.938 385.219 617.75 382.719C615.562 380.203 614.453 376.688 614.422 372.172V366.336C614.422 361.648 615.508 357.992 617.68 355.367C619.852 352.727 622.867 351.406 626.727 351.406C630.523 351.406 633.516 352.703 635.703 355.297C637.891 357.875 639 361.5 639.031 366.172V372.008ZM632.117 366.289C632.117 363.211 631.68 360.922 630.805 359.422C629.93 357.922 628.57 357.172 626.727 357.172C624.898 357.172 623.547 357.898 622.672 359.352C621.797 360.789 621.344 362.984 621.312 365.938V372.008C621.312 374.992 621.758 377.195 622.648 378.617C623.539 380.023 624.914 380.727 626.773 380.727C628.57 380.727 629.906 380.039 630.781 378.664C631.656 377.273 632.102 375.125 632.117 372.219V366.289Z" fill="white"/>
<path d="M580.645 402.799H574.67V419H569.871V402.799H564.006V399.094H580.645V402.799Z" fill="white"/>
<path d="M595.027 410.564H587.48V415.309H596.395V419H582.682V399.094H596.422V402.799H587.48V406.996H595.027V410.564Z" fill="white"/>
<path d="M609.656 415.281H603.08L601.932 419H596.805L604.105 399.094H608.617L615.973 419H610.818L609.656 415.281ZM604.229 411.576H608.508L606.361 404.672L604.229 411.576Z" fill="white"/>
<path d="M623.738 399.094L628.182 412.943L632.611 399.094H638.928V419H634.115V414.352L634.58 404.836L629.768 419H626.596L621.77 404.822L622.234 414.352V419H617.436V399.094H623.738Z" fill="white"/>
<defs>
<filter id="filter0_d" x="466.416" y="250.83" width="269.821" height="269.821" filterUnits="userSpaceOnUse" color-interpolation-filters="sRGB">
<feFlood flood-opacity="0" result="BackgroundImageFix"/>
<feColorMatrix in="SourceAlpha" type="matrix" values="0 0 0 0 0 0 0 0 0 0 0 0 0 0 0 0 0 0 127 0"/>
<feOffset dy="1"/>
<feGaussianBlur stdDeviation="2.5"/>
<feColorMatrix type="matrix" values="0 0 0 0 0 0 0 0 0 0 0 0 0 0 0 0 0 0 0.15 0"/>
<feBlend mode="normal" in2="BackgroundImageFix" result="effect1_dropShadow"/>
<feBlend mode="normal" in="SourceGraphic" in2="effect1_dropShadow" result="shape"/>
</filter>
<linearGradient id="paint0_linear" x1="64.087" y1="7.37079" x2="64.4711" y2="73.7753" gradientUnits="userSpaceOnUse">
<stop stop-color="#3CB9FF"/>
<stop offset="1" stop-color="#215FFF"/>
</linearGradient>
<linearGradient id="paint1_linear" x1="111.304" y1="692.781" x2="111.688" y2="759.186" gradientUnits="userSpaceOnUse">
<stop stop-color="#3CB9FF"/>
<stop offset="1" stop-color="#215FFF"/>
</linearGradient>
<linearGradient id="paint2_linear" x1="111.304" y1="692.781" x2="111.688" y2="759.186" gradientUnits="userSpaceOnUse">
<stop stop-color="#AC3DF0"/>
<stop offset="1" stop-color="#7E1ABC"/>
</linearGradient>
<linearGradient id="paint3_linear" x1="1079.16" y1="692.712" x2="1079.55" y2="759.117" gradientUnits="userSpaceOnUse">
<stop stop-color="#EF33BC"/>
<stop offset="1" stop-color="#AC28AA"/>
</linearGradient>
<linearGradient id="paint4_linear" x1="1138.09" y1="7.37079" x2="1138.47" y2="73.7753" gradientUnits="userSpaceOnUse">
<stop stop-color="#FF9B25"/>
<stop offset="1" stop-color="#FF6421"/>
</linearGradient>
<linearGradient id="paint5_linear" x1="740.775" y1="349.54" x2="485.743" y2="353.138" gradientUnits="userSpaceOnUse">
<stop stop-color="#D81F9F"/>
<stop offset="1" stop-color="#424AFD"/>
</linearGradient>
</defs>
</svg>
