<svg width="49" height="53" viewBox="0 0 49 53" fill="none" xmlns="http://www.w3.org/2000/svg">
<mask id="path-1-outside-1" maskUnits="userSpaceOnUse" x="-0.891357" y="0.33374" width="50" height="52" fill="black">
<rect fill="white" x="-0.891357" y="0.33374" width="50" height="52"/>
<path d="M6.75235 14.133L14.5918 10.3869L15.6006 11.4083L5.92529 15.7763L5.10864 14.9495L9.60067 5.33374L10.6047 6.35021L6.75235 14.133Z"/>
<path d="M10.2871 20.1923L9.39842 19.2926L16.8688 11.914L17.7575 12.8137L10.2871 20.1923Z"/>
<path d="M14.9228 24.8856C14.9753 24.7313 15.1185 24.5066 15.3523 24.2115C14.5047 24.2224 13.7943 23.9377 13.221 23.3573C12.7086 22.8385 12.4334 22.268 12.3954 21.6458C12.3638 21.0237 12.5733 20.4901 13.024 20.0449C13.5719 19.5037 14.2016 19.2917 14.9131 19.4088C15.631 19.5261 16.3631 19.9624 17.1092 20.7179L17.9739 21.5933L18.3873 21.185C18.7018 20.8743 18.8586 20.5337 18.8577 20.1631C18.86 19.7893 18.6802 19.4192 18.3183 19.0528C18.0013 18.7318 17.6544 18.5428 17.2777 18.4857C16.901 18.4286 16.5976 18.5137 16.3674 18.7411L15.4739 17.8365C15.7365 17.5771 16.0807 17.4197 16.5064 17.3643C16.9386 17.309 17.3829 17.3697 17.8394 17.5466C18.2991 17.7266 18.7179 18.008 19.0958 18.3906C19.6947 18.9969 20.0115 19.6224 20.0462 20.2671C20.0841 20.9087 19.8436 21.4985 19.3247 22.0367L16.9026 24.429C16.4195 24.9062 16.0961 25.3473 15.9325 25.7523L15.8547 25.8291L14.9228 24.8856ZM14.1338 22.7152C14.4124 22.9973 14.7495 23.1927 15.1452 23.3015C15.5409 23.4103 15.9116 23.4061 16.2571 23.289L17.3368 22.2226L16.6403 21.5174C15.5514 20.415 14.6844 20.1824 14.0391 20.8198C13.757 21.0984 13.6294 21.4102 13.6563 21.7551C13.6832 22.1001 13.8423 22.4201 14.1338 22.7152Z"/>
<path d="M19.524 24.1938C20.3314 23.3964 21.1688 22.9472 22.0363 22.8462C22.907 22.742 23.6482 22.9996 24.2599 23.6188C24.8684 24.2349 25.1396 24.931 25.0736 25.7073L27.8166 22.9979L28.7053 23.8977L21.2349 31.2763L20.4183 30.4495L20.9392 29.8485C20.1428 29.9241 19.4275 29.6409 18.7934 28.999C18.1914 28.3894 17.9494 27.6451 18.0676 26.7661C18.1891 25.8903 18.6518 25.0553 19.4559 24.2611L19.524 24.1938ZM20.3106 25.1944C19.714 25.7837 19.3688 26.3681 19.275 26.9476C19.1812 27.527 19.3488 28.034 19.778 28.4685C20.3416 29.0391 21.0093 29.2028 21.781 28.9594L24.1981 26.5719C24.4284 25.8128 24.2681 25.1544 23.7173 24.5968C23.2817 24.1558 22.7721 23.9802 22.1882 24.0701C21.6044 24.1599 20.9785 24.5347 20.3106 25.1944Z"/>
<path d="M23.584 33.6545L22.6953 32.7548L27.9576 27.5571L28.8463 28.4568L23.584 33.6545ZM29.2814 26.1055C29.4273 25.9613 29.5937 25.8834 29.7807 25.8717C29.9709 25.8632 30.1524 25.9465 30.3254 26.1216C30.4983 26.2967 30.5794 26.4792 30.5685 26.6693C30.5577 26.8594 30.4793 27.0264 30.3334 27.1706C30.1875 27.3147 30.0211 27.3894 29.8341 27.3947C29.6472 27.4 29.4673 27.3151 29.2943 27.14C29.1214 26.9649 29.0387 26.7839 29.0463 26.5971C29.0571 26.4134 29.1355 26.2496 29.2814 26.1055Z"/>
<path d="M31.1089 30.7476L30.5493 31.3483C31.3843 31.2858 32.1253 31.582 32.7722 32.237C33.4992 32.973 33.7119 33.7526 33.4103 34.5757C33.8361 34.501 34.2646 34.5262 34.6956 34.6513C35.1299 34.7796 35.536 35.0351 35.9139 35.4177C37.054 36.572 37.0224 37.7625 35.8193 38.9893L32.2932 42.4721L31.4045 41.5723L34.8771 38.1424C35.2532 37.7709 35.4488 37.408 35.4639 37.0536C35.4822 36.696 35.2912 36.3146 34.8909 35.9093C34.561 35.5753 34.1867 35.3974 33.7679 35.3755C33.3524 35.3503 32.9584 35.4865 32.5859 35.7839L29.0939 39.233L28.2004 38.3284L31.6487 34.9225C32.4138 34.1667 32.4266 33.4143 31.6868 32.6653C31.1039 32.0752 30.4539 31.9197 29.7368 32.1989L25.8946 35.9939L25.0059 35.0941L30.2682 29.8964L31.1089 30.7476Z"/>
<path d="M34.6039 44.8114L33.7152 43.9117L38.9775 38.714L39.8662 39.6137L34.6039 44.8114ZM40.3013 37.2623C40.4472 37.1182 40.6136 37.0403 40.8006 37.0286C40.9908 37.0201 41.1723 37.1034 41.3453 37.2785C41.5182 37.4535 41.5992 37.6361 41.5884 37.8262C41.5776 38.0162 41.4992 38.1833 41.3533 38.3274C41.2074 38.4716 41.041 38.5463 40.854 38.5516C40.6671 38.5568 40.4871 38.4719 40.3142 38.2969C40.1413 38.1218 40.0586 37.9408 40.0662 37.7539C40.077 37.5703 40.1553 37.4065 40.3013 37.2623Z"/>
<path d="M42.9979 44.3992C42.8861 44.2406 42.7518 44.0819 42.5948 43.923C42.012 43.3329 41.3652 43.1807 40.6545 43.4663L36.9193 47.1556L36.0306 46.2559L41.2929 41.0582L42.1576 41.9336L41.5641 42.5487C42.3256 42.3794 42.9738 42.5655 43.5086 43.1069C43.6816 43.282 43.7902 43.4374 43.8345 43.573L42.9979 44.3992Z"/>
</mask>
<path d="M6.75235 14.133L14.5918 10.3869L15.6006 11.4083L5.92529 15.7763L5.10864 14.9495L9.60067 5.33374L10.6047 6.35021L6.75235 14.133Z" fill="#333333"/>
<path d="M10.2871 20.1923L9.39842 19.2926L16.8688 11.914L17.7575 12.8137L10.2871 20.1923Z" fill="#333333"/>
<path d="M14.9228 24.8856C14.9753 24.7313 15.1185 24.5066 15.3523 24.2115C14.5047 24.2224 13.7943 23.9377 13.221 23.3573C12.7086 22.8385 12.4334 22.268 12.3954 21.6458C12.3638 21.0237 12.5733 20.4901 13.024 20.0449C13.5719 19.5037 14.2016 19.2917 14.9131 19.4088C15.631 19.5261 16.3631 19.9624 17.1092 20.7179L17.9739 21.5933L18.3873 21.185C18.7018 20.8743 18.8586 20.5337 18.8577 20.1631C18.86 19.7893 18.6802 19.4192 18.3183 19.0528C18.0013 18.7318 17.6544 18.5428 17.2777 18.4857C16.901 18.4286 16.5976 18.5137 16.3674 18.7411L15.4739 17.8365C15.7365 17.5771 16.0807 17.4197 16.5064 17.3643C16.9386 17.309 17.3829 17.3697 17.8394 17.5466C18.2991 17.7266 18.7179 18.008 19.0958 18.3906C19.6947 18.9969 20.0115 19.6224 20.0462 20.2671C20.0841 20.9087 19.8436 21.4985 19.3247 22.0367L16.9026 24.429C16.4195 24.9062 16.0961 25.3473 15.9325 25.7523L15.8547 25.8291L14.9228 24.8856ZM14.1338 22.7152C14.4124 22.9973 14.7495 23.1927 15.1452 23.3015C15.5409 23.4103 15.9116 23.4061 16.2571 23.289L17.3368 22.2226L16.6403 21.5174C15.5514 20.415 14.6844 20.1824 14.0391 20.8198C13.757 21.0984 13.6294 21.4102 13.6563 21.7551C13.6832 22.1001 13.8423 22.4201 14.1338 22.7152Z" fill="#333333"/>
<path d="M19.524 24.1938C20.3314 23.3964 21.1688 22.9472 22.0363 22.8462C22.907 22.742 23.6482 22.9996 24.2599 23.6188C24.8684 24.2349 25.1396 24.931 25.0736 25.7073L27.8166 22.9979L28.7053 23.8977L21.2349 31.2763L20.4183 30.4495L20.9392 29.8485C20.1428 29.9241 19.4275 29.6409 18.7934 28.999C18.1914 28.3894 17.9494 27.6451 18.0676 26.7661C18.1891 25.8903 18.6518 25.0553 19.4559 24.2611L19.524 24.1938ZM20.3106 25.1944C19.714 25.7837 19.3688 26.3681 19.275 26.9476C19.1812 27.527 19.3488 28.034 19.778 28.4685C20.3416 29.0391 21.0093 29.2028 21.781 28.9594L24.1981 26.5719C24.4284 25.8128 24.2681 25.1544 23.7173 24.5968C23.2817 24.1558 22.7721 23.9802 22.1882 24.0701C21.6044 24.1599 20.9785 24.5347 20.3106 25.1944Z" fill="#333333"/>
<path d="M23.584 33.6545L22.6953 32.7548L27.9576 27.5571L28.8463 28.4568L23.584 33.6545ZM29.2814 26.1055C29.4273 25.9613 29.5937 25.8834 29.7807 25.8717C29.9709 25.8632 30.1524 25.9465 30.3254 26.1216C30.4983 26.2967 30.5794 26.4792 30.5685 26.6693C30.5577 26.8594 30.4793 27.0264 30.3334 27.1706C30.1875 27.3147 30.0211 27.3894 29.8341 27.3947C29.6472 27.4 29.4673 27.3151 29.2943 27.14C29.1214 26.9649 29.0387 26.7839 29.0463 26.5971C29.0571 26.4134 29.1355 26.2496 29.2814 26.1055Z" fill="#333333"/>
<path d="M31.1089 30.7476L30.5493 31.3483C31.3843 31.2858 32.1253 31.582 32.7722 32.237C33.4992 32.973 33.7119 33.7526 33.4103 34.5757C33.8361 34.501 34.2646 34.5262 34.6956 34.6513C35.1299 34.7796 35.536 35.0351 35.9139 35.4177C37.054 36.572 37.0224 37.7625 35.8193 38.9893L32.2932 42.4721L31.4045 41.5723L34.8771 38.1424C35.2532 37.7709 35.4488 37.408 35.4639 37.0536C35.4822 36.696 35.2912 36.3146 34.8909 35.9093C34.561 35.5753 34.1867 35.3974 33.7679 35.3755C33.3524 35.3503 32.9584 35.4865 32.5859 35.7839L29.0939 39.233L28.2004 38.3284L31.6487 34.9225C32.4138 34.1667 32.4266 33.4143 31.6868 32.6653C31.1039 32.0752 30.4539 31.9197 29.7368 32.1989L25.8946 35.9939L25.0059 35.0941L30.2682 29.8964L31.1089 30.7476Z" fill="#333333"/>
<path d="M34.6039 44.8114L33.7152 43.9117L38.9775 38.714L39.8662 39.6137L34.6039 44.8114ZM40.3013 37.2623C40.4472 37.1182 40.6136 37.0403 40.8006 37.0286C40.9908 37.0201 41.1723 37.1034 41.3453 37.2785C41.5182 37.4535 41.5992 37.6361 41.5884 37.8262C41.5776 38.0162 41.4992 38.1833 41.3533 38.3274C41.2074 38.4716 41.041 38.5463 40.854 38.5516C40.6671 38.5568 40.4871 38.4719 40.3142 38.2969C40.1413 38.1218 40.0586 37.9408 40.0662 37.7539C40.077 37.5703 40.1553 37.4065 40.3013 37.2623Z" fill="#333333"/>
<path d="M42.9979 44.3992C42.8861 44.2406 42.7518 44.0819 42.5948 43.923C42.012 43.3329 41.3652 43.1807 40.6545 43.4663L36.9193 47.1556L36.0306 46.2559L41.2929 41.0582L42.1576 41.9336L41.5641 42.5487C42.3256 42.3794 42.9738 42.5655 43.5086 43.1069C43.6816 43.282 43.7902 43.4374 43.8345 43.573L42.9979 44.3992Z" fill="#333333"/>
<path d="M6.75235 14.133L14.5918 10.3869L15.6006 11.4083L5.92529 15.7763L5.10864 14.9495L9.60067 5.33374L10.6047 6.35021L6.75235 14.133Z" stroke="white" stroke-width="10" stroke-linecap="round" stroke-linejoin="round" mask="url(#path-1-outside-1)"/>
<path d="M10.2871 20.1923L9.39842 19.2926L16.8688 11.914L17.7575 12.8137L10.2871 20.1923Z" stroke="white" stroke-width="10" stroke-linecap="round" stroke-linejoin="round" mask="url(#path-1-outside-1)"/>
<path d="M14.9228 24.8856C14.9753 24.7313 15.1185 24.5066 15.3523 24.2115C14.5047 24.2224 13.7943 23.9377 13.221 23.3573C12.7086 22.8385 12.4334 22.268 12.3954 21.6458C12.3638 21.0237 12.5733 20.4901 13.024 20.0449C13.5719 19.5037 14.2016 19.2917 14.9131 19.4088C15.631 19.5261 16.3631 19.9624 17.1092 20.7179L17.9739 21.5933L18.3873 21.185C18.7018 20.8743 18.8586 20.5337 18.8577 20.1631C18.86 19.7893 18.6802 19.4192 18.3183 19.0528C18.0013 18.7318 17.6544 18.5428 17.2777 18.4857C16.901 18.4286 16.5976 18.5137 16.3674 18.7411L15.4739 17.8365C15.7365 17.5771 16.0807 17.4197 16.5064 17.3643C16.9386 17.309 17.3829 17.3697 17.8394 17.5466C18.2991 17.7266 18.7179 18.008 19.0958 18.3906C19.6947 18.9969 20.0115 19.6224 20.0462 20.2671C20.0841 20.9087 19.8436 21.4985 19.3247 22.0367L16.9026 24.429C16.4195 24.9062 16.0961 25.3473 15.9325 25.7523L15.8547 25.8291L14.9228 24.8856ZM14.1338 22.7152C14.4124 22.9973 14.7495 23.1927 15.1452 23.3015C15.5409 23.4103 15.9116 23.4061 16.2571 23.289L17.3368 22.2226L16.6403 21.5174C15.5514 20.415 14.6844 20.1824 14.0391 20.8198C13.757 21.0984 13.6294 21.4102 13.6563 21.7551C13.6832 22.1001 13.8423 22.4201 14.1338 22.7152Z" stroke="white" stroke-width="10" stroke-linecap="round" stroke-linejoin="round" mask="url(#path-1-outside-1)"/>
<path d="M19.524 24.1938C20.3314 23.3964 21.1688 22.9472 22.0363 22.8462C22.907 22.742 23.6482 22.9996 24.2599 23.6188C24.8684 24.2349 25.1396 24.931 25.0736 25.7073L27.8166 22.9979L28.7053 23.8977L21.2349 31.2763L20.4183 30.4495L20.9392 29.8485C20.1428 29.9241 19.4275 29.6409 18.7934 28.999C18.1914 28.3894 17.9494 27.6451 18.0676 26.7661C18.1891 25.8903 18.6518 25.0553 19.4559 24.2611L19.524 24.1938ZM20.3106 25.1944C19.714 25.7837 19.3688 26.3681 19.275 26.9476C19.1812 27.527 19.3488 28.034 19.778 28.4685C20.3416 29.0391 21.0093 29.2028 21.781 28.9594L24.1981 26.5719C24.4284 25.8128 24.2681 25.1544 23.7173 24.5968C23.2817 24.1558 22.7721 23.9802 22.1882 24.0701C21.6044 24.1599 20.9785 24.5347 20.3106 25.1944Z" stroke="white" stroke-width="10" stroke-linecap="round" stroke-linejoin="round" mask="url(#path-1-outside-1)"/>
<path d="M23.584 33.6545L22.6953 32.7548L27.9576 27.5571L28.8463 28.4568L23.584 33.6545ZM29.2814 26.1055C29.4273 25.9613 29.5937 25.8834 29.7807 25.8717C29.9709 25.8632 30.1524 25.9465 30.3254 26.1216C30.4983 26.2967 30.5794 26.4792 30.5685 26.6693C30.5577 26.8594 30.4793 27.0264 30.3334 27.1706C30.1875 27.3147 30.0211 27.3894 29.8341 27.3947C29.6472 27.4 29.4673 27.3151 29.2943 27.14C29.1214 26.9649 29.0387 26.7839 29.0463 26.5971C29.0571 26.4134 29.1355 26.2496 29.2814 26.1055Z" stroke="white" stroke-width="10" stroke-linecap="round" stroke-linejoin="round" mask="url(#path-1-outside-1)"/>
<path d="M31.1089 30.7476L30.5493 31.3483C31.3843 31.2858 32.1253 31.582 32.7722 32.237C33.4992 32.973 33.7119 33.7526 33.4103 34.5757C33.8361 34.501 34.2646 34.5262 34.6956 34.6513C35.1299 34.7796 35.536 35.0351 35.9139 35.4177C37.054 36.572 37.0224 37.7625 35.8193 38.9893L32.2932 42.4721L31.4045 41.5723L34.8771 38.1424C35.2532 37.7709 35.4488 37.408 35.4639 37.0536C35.4822 36.696 35.2912 36.3146 34.8909 35.9093C34.561 35.5753 34.1867 35.3974 33.7679 35.3755C33.3524 35.3503 32.9584 35.4865 32.5859 35.7839L29.0939 39.233L28.2004 38.3284L31.6487 34.9225C32.4138 34.1667 32.4266 33.4143 31.6868 32.6653C31.1039 32.0752 30.4539 31.9197 29.7368 32.1989L25.8946 35.9939L25.0059 35.0941L30.2682 29.8964L31.1089 30.7476Z" stroke="white" stroke-width="10" stroke-linecap="round" stroke-linejoin="round" mask="url(#path-1-outside-1)"/>
<path d="M34.6039 44.8114L33.7152 43.9117L38.9775 38.714L39.8662 39.6137L34.6039 44.8114ZM40.3013 37.2623C40.4472 37.1182 40.6136 37.0403 40.8006 37.0286C40.9908 37.0201 41.1723 37.1034 41.3453 37.2785C41.5182 37.4535 41.5992 37.6361 41.5884 37.8262C41.5776 38.0162 41.4992 38.1833 41.3533 38.3274C41.2074 38.4716 41.041 38.5463 40.854 38.5516C40.6671 38.5568 40.4871 38.4719 40.3142 38.2969C40.1413 38.1218 40.0586 37.9408 40.0662 37.7539C40.077 37.5703 40.1553 37.4065 40.3013 37.2623Z" stroke="white" stroke-width="10" stroke-linecap="round" stroke-linejoin="round" mask="url(#path-1-outside-1)"/>
<path d="M42.9979 44.3992C42.8861 44.2406 42.7518 44.0819 42.5948 43.923C42.012 43.3329 41.3652 43.1807 40.6545 43.4663L36.9193 47.1556L36.0306 46.2559L41.2929 41.0582L42.1576 41.9336L41.5641 42.5487C42.3256 42.3794 42.9738 42.5655 43.5086 43.1069C43.6816 43.282 43.7902 43.4374 43.8345 43.573L42.9979 44.3992Z" stroke="white" stroke-width="10" stroke-linecap="round" stroke-linejoin="round" mask="url(#path-1-outside-1)"/>
</svg>
