<svg width="47" height="49" viewBox="0 0 47 49" fill="none" xmlns="http://www.w3.org/2000/svg">
<path d="M19.3227 37.5065C19.748 37.0743 20.0003 36.5037 20.0362 35.9022C20.6182 35.8582 21.1874 35.6114 21.6288 35.1627L22.5158 34.2613C22.9638 33.806 23.2199 33.1971 23.2332 32.5603C24.1764 32.3586 25.0435 31.8872 25.7728 31.146C26.149 30.7636 26.4691 30.3406 26.7192 29.8823C26.8911 29.7775 27.0528 29.6502 27.1999 29.5006L28.015 28.6722C28.2601 28.4231 28.4424 28.1356 28.5619 27.8294C28.8661 27.7049 29.1506 27.518 29.3958 27.2689L30.2827 26.3674C30.7478 25.8948 31.006 25.2568 31.0006 24.5938C30.9981 24.2821 30.9374 23.977 30.8248 23.6928C32.4128 23.6652 33.7915 22.9962 34.8773 21.8927C35.8669 20.8869 36.4785 19.6724 36.5939 18.3321C37.4072 18.4975 38.2698 18.2498 38.8743 17.6355L39.5935 16.9045C40.072 16.4182 40.3187 15.773 40.3113 15.1222C40.9623 15.119 41.6034 14.8617 42.0818 14.3756L42.8009 13.6447C43.5805 12.8523 43.7433 11.6404 43.2005 10.6704L39.4384 3.94793C39.0542 3.26145 38.3694 2.79583 37.5897 2.69108C36.81 2.58634 36.0265 2.85469 35.4748 3.41544L34.5878 4.3169C34.1695 4.74207 33.9295 5.28696 33.8796 5.84975C33.3165 5.9089 32.7757 6.15864 32.3584 6.58273L31.644 7.30877C31.2268 7.73285 30.9858 8.27767 30.9358 8.84162C30.3737 8.90066 29.8328 9.14964 29.4146 9.5746L28.5325 10.4712C28.1893 10.82 27.9606 11.2566 27.8651 11.7241C27.0612 12.0123 26.3454 12.499 25.7358 13.1187C25.1243 13.7401 24.6865 14.4721 24.4266 15.2818C24.2864 15.3041 24.147 15.3386 24.0099 15.3855C23.3316 15.6177 22.8505 16.0511 22.5763 16.3298C22.2535 16.6579 21.9898 17.0144 21.7855 17.392C21.6573 17.4806 21.5356 17.5824 21.4224 17.6975L20.932 18.1959L20.5018 17.7726C20.0292 17.3076 19.3912 17.0494 18.7281 17.0547C18.0651 17.0601 17.4314 17.3286 16.9664 17.8013L16.0794 18.7027C15.111 19.6869 15.1239 21.2698 16.108 22.2381L16.4531 22.5777C15.7159 23.456 15.3142 24.496 15.2687 25.6153C13.8788 25.6328 12.7493 26.3174 11.9231 27.157C11.5345 27.5519 11.2172 27.9844 10.9739 28.4466C10.7817 28.5573 10.6012 28.6954 10.4384 28.8609L9.59936 29.7137C9.06175 30.2601 8.82656 30.991 8.89211 31.6988L7.08876 30.9109C6.13935 30.4961 5.03246 30.7099 4.30581 31.4484L3.50035 32.2671C2.77331 33.006 2.5777 34.1169 3.00864 35.0597L7.43767 44.7496C7.77964 45.4978 8.46776 46.0298 9.2779 46.1725C10.088 46.3151 10.9165 46.0501 11.4934 45.4637L12.4427 44.4989C13.1818 43.7478 13.3705 42.6138 12.9146 41.6638L12.4796 40.7576L12.9469 40.2828L13.8741 40.7042C14.8295 41.1385 15.9545 40.9298 16.6906 40.1817L17.6351 39.2217C17.7711 39.0835 17.889 38.9316 17.9878 38.7696C18.1472 38.6688 18.2977 38.5483 18.4357 38.408L19.3227 37.5065ZM24.2693 15.8828C24.2578 15.9385 24.2471 15.9943 24.2374 16.05C24.2072 16.2221 24.1852 16.3939 24.1712 16.5653C23.9894 16.6985 23.8172 16.8415 23.654 16.9914C23.5064 16.9645 23.3569 16.951 23.2075 16.9509L24.2693 15.8828ZM20.1229 19.174L19.6148 18.6741L18.7484 19.5546L17.8614 20.4561L16.995 21.3367L17.3683 21.704C17.1519 21.8695 16.9459 22.0522 16.7511 22.2502L20.1229 19.174ZM17.2496 23.3614C16.7546 24.0655 16.4826 24.888 16.4866 25.7716C16.1838 25.689 15.8658 25.6359 15.5329 25.62L17.2496 23.3614Z" fill="#333333" stroke="white" stroke-width="5" stroke-linecap="round" stroke-linejoin="round"/>
</svg>
