<svg width="47" height="49" viewBox="0 0 47 49" fill="none" xmlns="http://www.w3.org/2000/svg">
<mask id="path-1-outside-1" maskUnits="userSpaceOnUse" x="-0.150497" y="0.00854492" width="47" height="49" fill="black">
<rect fill="white" x="-0.150497" y="0.00854492" width="47" height="49"/>
<path d="M13.0001 37.2863L10.115 40.2971L11.3426 42.7705L10.4062 43.7477L5.8495 34.1172L6.64408 33.288L16.4648 37.4252L15.5331 38.3975L13.0001 37.2863ZM9.60952 39.2635L11.9507 36.8203L7.41654 34.8235L9.60952 39.2635Z"/>
<path d="M12.7419 30.6197L13.4416 31.2333C13.3192 30.3334 13.5734 29.5544 14.204 28.8964C15.2855 27.7677 16.4677 27.8086 17.7505 29.019L21.2795 32.4007L20.4046 33.3137L16.8706 29.9273C16.4825 29.5617 16.1127 29.3778 15.7614 29.3757C15.4131 29.3702 15.064 29.5501 14.714 29.9153C14.4303 30.2114 14.2601 30.5471 14.2037 30.9222C14.1472 31.2973 14.1874 31.6703 14.3242 32.0413L18.1296 35.6878L17.2546 36.6009L11.9143 31.4835L12.7419 30.6197Z"/>
<path d="M25.7585 27.7266C25.6027 27.6783 25.3742 27.5414 25.0729 27.3157C25.107 28.1627 24.8419 28.8807 24.2775 29.4697C23.773 29.9962 23.2103 30.287 22.5894 30.3421C21.9684 30.3908 21.4292 30.196 20.9718 29.7577C20.4157 29.2249 20.1865 28.6012 20.284 27.8868C20.3815 27.1659 20.7975 26.4222 21.5322 25.6555L22.3835 24.7671L21.964 24.3651C21.6448 24.0592 21.3 23.9119 20.9296 23.923C20.5559 23.9309 20.1909 24.1208 19.8346 24.4927C19.5224 24.8184 19.343 25.1703 19.2962 25.5485C19.2495 25.9266 19.3429 26.2276 19.5766 26.4514L18.6969 27.3695C18.4303 27.1141 18.2635 26.7743 18.1965 26.3503C18.1293 25.9198 18.1778 25.474 18.342 25.0128C18.5094 24.5483 18.7791 24.1219 19.1512 23.7337C19.7408 23.1183 20.3574 22.7845 21.0009 22.7321C21.6411 22.6765 22.2374 22.9007 22.7896 23.4047L25.2476 25.76C25.7379 26.2298 26.1877 26.5409 26.5971 26.6934L26.676 26.7691L25.7585 27.7266ZM23.6106 28.5749C23.8849 28.2887 24.071 27.9463 24.1689 27.5477C24.2667 27.1492 24.2524 26.7788 24.1258 26.4366L23.0301 25.3867L22.3443 26.1023C21.2723 27.2211 21.0636 28.0942 21.7184 28.7217C22.0047 28.996 22.3199 29.115 22.664 29.0786C23.0081 29.0423 23.3236 28.8744 23.6106 28.5749Z"/>
<path d="M22.4215 17.9298L23.7146 19.169L24.67 18.172L25.3758 18.8483L24.4204 19.8453L27.7323 23.0189C27.9462 23.2238 28.15 23.3339 28.3437 23.3491C28.5341 23.3612 28.7318 23.2603 28.9367 23.0464C29.0376 22.9411 29.1566 22.7774 29.2937 22.5553L30.0341 23.2647C29.8697 23.568 29.6787 23.8331 29.4612 24.0602C29.0702 24.4682 28.652 24.6576 28.2066 24.6284C27.7611 24.5993 27.3114 24.3671 26.8573 23.932L23.5455 20.7584L22.6137 21.7307L21.9079 21.0544L22.8397 20.0821L21.5465 18.8429L22.4215 17.9298Z"/>
<path d="M27.9908 19.9529C27.4677 19.4516 27.0949 18.8987 26.8725 18.2942C26.6532 17.6865 26.6051 17.0912 26.728 16.5084C26.8541 15.9223 27.1426 15.394 27.5935 14.9235C28.2904 14.1963 29.1049 13.8502 30.0372 13.8851C30.9726 13.9167 31.8582 14.333 32.6939 15.1338L32.7581 15.1953C33.278 15.6935 33.6491 16.2416 33.8713 16.8396C34.0934 17.4312 34.1415 18.0232 34.0156 18.6158C33.8927 19.205 33.6012 19.7398 33.1408 20.2202C32.4471 20.9441 31.6326 21.2903 30.6972 21.2586C29.7649 21.2237 28.8842 20.809 28.055 20.0144L27.9908 19.9529ZM28.9791 19.1389C29.5714 19.7065 30.1777 20.0256 30.7981 20.0961C31.4216 20.1634 31.9541 19.9667 32.3955 19.5061C32.8401 19.0421 33.0123 18.5002 32.912 17.8802C32.8085 17.2571 32.4293 16.6318 31.7745 16.0044C31.1888 15.4431 30.581 15.1289 29.951 15.0618C29.3209 14.9882 28.7852 15.1817 28.3438 15.6424C27.9118 16.0932 27.7427 16.6286 27.8365 17.2487C27.9303 17.8688 28.3112 18.4989 28.9791 19.1389Z"/>
<path d="M37.417 15.5602L36.542 16.4733L28.9608 9.20857L29.8358 8.29547L37.417 15.5602Z"/>
<path d="M39.1584 11.0653L36.3474 5.98581L37.2839 5.00854L41.3912 13.0628C41.9611 14.2465 41.8993 15.2003 41.2056 15.9242L41.0252 16.0828L40.6347 16.3618L39.8944 15.6524L40.1506 15.4245C40.447 15.1152 40.6147 14.8151 40.6536 14.5242C40.6957 14.23 40.6041 13.8677 40.379 13.4374L40.03 12.7147L32.9232 9.55923L33.8786 8.56223L39.1584 11.0653Z"/>
</mask>
<path d="M13.0001 37.2863L10.115 40.2971L11.3426 42.7705L10.4062 43.7477L5.8495 34.1172L6.64408 33.288L16.4648 37.4252L15.5331 38.3975L13.0001 37.2863ZM9.60952 39.2635L11.9507 36.8203L7.41654 34.8235L9.60952 39.2635Z" fill="#333333"/>
<path d="M12.7419 30.6197L13.4416 31.2333C13.3192 30.3334 13.5734 29.5544 14.204 28.8964C15.2855 27.7677 16.4677 27.8086 17.7505 29.019L21.2795 32.4007L20.4046 33.3137L16.8706 29.9273C16.4825 29.5617 16.1127 29.3778 15.7614 29.3757C15.4131 29.3702 15.064 29.5501 14.714 29.9153C14.4303 30.2114 14.2601 30.5471 14.2037 30.9222C14.1472 31.2973 14.1874 31.6703 14.3242 32.0413L18.1296 35.6878L17.2546 36.6009L11.9143 31.4835L12.7419 30.6197Z" fill="#333333"/>
<path d="M25.7585 27.7266C25.6027 27.6783 25.3742 27.5414 25.0729 27.3157C25.107 28.1627 24.8419 28.8807 24.2775 29.4697C23.773 29.9962 23.2103 30.287 22.5894 30.3421C21.9684 30.3908 21.4292 30.196 20.9718 29.7577C20.4157 29.2249 20.1865 28.6012 20.284 27.8868C20.3815 27.1659 20.7975 26.4222 21.5322 25.6555L22.3835 24.7671L21.964 24.3651C21.6448 24.0592 21.3 23.9119 20.9296 23.923C20.5559 23.9309 20.1909 24.1208 19.8346 24.4927C19.5224 24.8184 19.343 25.1703 19.2962 25.5485C19.2495 25.9266 19.3429 26.2276 19.5766 26.4514L18.6969 27.3695C18.4303 27.1141 18.2635 26.7743 18.1965 26.3503C18.1293 25.9198 18.1778 25.474 18.342 25.0128C18.5094 24.5483 18.7791 24.1219 19.1512 23.7337C19.7408 23.1183 20.3574 22.7845 21.0009 22.7321C21.6411 22.6765 22.2374 22.9007 22.7896 23.4047L25.2476 25.76C25.7379 26.2298 26.1877 26.5409 26.5971 26.6934L26.676 26.7691L25.7585 27.7266ZM23.6106 28.5749C23.8849 28.2887 24.071 27.9463 24.1689 27.5477C24.2667 27.1492 24.2524 26.7788 24.1258 26.4366L23.0301 25.3867L22.3443 26.1023C21.2723 27.2211 21.0636 28.0942 21.7184 28.7217C22.0047 28.996 22.3199 29.115 22.664 29.0786C23.0081 29.0423 23.3236 28.8744 23.6106 28.5749Z" fill="#333333"/>
<path d="M22.4215 17.9298L23.7146 19.169L24.67 18.172L25.3758 18.8483L24.4204 19.8453L27.7323 23.0189C27.9462 23.2238 28.15 23.3339 28.3437 23.3491C28.5341 23.3612 28.7318 23.2603 28.9367 23.0464C29.0376 22.9411 29.1566 22.7774 29.2937 22.5553L30.0341 23.2647C29.8697 23.568 29.6787 23.8331 29.4612 24.0602C29.0702 24.4682 28.652 24.6576 28.2066 24.6284C27.7611 24.5993 27.3114 24.3671 26.8573 23.932L23.5455 20.7584L22.6137 21.7307L21.9079 21.0544L22.8397 20.0821L21.5465 18.8429L22.4215 17.9298Z" fill="#333333"/>
<path d="M27.9908 19.9529C27.4677 19.4516 27.0949 18.8987 26.8725 18.2942C26.6532 17.6865 26.6051 17.0912 26.728 16.5084C26.8541 15.9223 27.1426 15.394 27.5935 14.9235C28.2904 14.1963 29.1049 13.8502 30.0372 13.8851C30.9726 13.9167 31.8582 14.333 32.6939 15.1338L32.7581 15.1953C33.278 15.6935 33.6491 16.2416 33.8713 16.8396C34.0934 17.4312 34.1415 18.0232 34.0156 18.6158C33.8927 19.205 33.6012 19.7398 33.1408 20.2202C32.4471 20.9441 31.6326 21.2903 30.6972 21.2586C29.7649 21.2237 28.8842 20.809 28.055 20.0144L27.9908 19.9529ZM28.9791 19.1389C29.5714 19.7065 30.1777 20.0256 30.7981 20.0961C31.4216 20.1634 31.9541 19.9667 32.3955 19.5061C32.8401 19.0421 33.0123 18.5002 32.912 17.8802C32.8085 17.2571 32.4293 16.6318 31.7745 16.0044C31.1888 15.4431 30.581 15.1289 29.951 15.0618C29.3209 14.9882 28.7852 15.1817 28.3438 15.6424C27.9118 16.0932 27.7427 16.6286 27.8365 17.2487C27.9303 17.8688 28.3112 18.4989 28.9791 19.1389Z" fill="#333333"/>
<path d="M37.417 15.5602L36.542 16.4733L28.9608 9.20857L29.8358 8.29547L37.417 15.5602Z" fill="#333333"/>
<path d="M39.1584 11.0653L36.3474 5.98581L37.2839 5.00854L41.3912 13.0628C41.9611 14.2465 41.8993 15.2003 41.2056 15.9242L41.0252 16.0828L40.6347 16.3618L39.8944 15.6524L40.1506 15.4245C40.447 15.1152 40.6147 14.8151 40.6536 14.5242C40.6957 14.23 40.6041 13.8677 40.379 13.4374L40.03 12.7147L32.9232 9.55923L33.8786 8.56223L39.1584 11.0653Z" fill="#333333"/>
<path d="M13.0001 37.2863L10.115 40.2971L11.3426 42.7705L10.4062 43.7477L5.8495 34.1172L6.64408 33.288L16.4648 37.4252L15.5331 38.3975L13.0001 37.2863ZM9.60952 39.2635L11.9507 36.8203L7.41654 34.8235L9.60952 39.2635Z" stroke="white" stroke-width="10" stroke-linecap="round" stroke-linejoin="round" mask="url(#path-1-outside-1)"/>
<path d="M12.7419 30.6197L13.4416 31.2333C13.3192 30.3334 13.5734 29.5544 14.204 28.8964C15.2855 27.7677 16.4677 27.8086 17.7505 29.019L21.2795 32.4007L20.4046 33.3137L16.8706 29.9273C16.4825 29.5617 16.1127 29.3778 15.7614 29.3757C15.4131 29.3702 15.064 29.5501 14.714 29.9153C14.4303 30.2114 14.2601 30.5471 14.2037 30.9222C14.1472 31.2973 14.1874 31.6703 14.3242 32.0413L18.1296 35.6878L17.2546 36.6009L11.9143 31.4835L12.7419 30.6197Z" stroke="white" stroke-width="10" stroke-linecap="round" stroke-linejoin="round" mask="url(#path-1-outside-1)"/>
<path d="M25.7585 27.7266C25.6027 27.6783 25.3742 27.5414 25.0729 27.3157C25.107 28.1627 24.8419 28.8807 24.2775 29.4697C23.773 29.9962 23.2103 30.287 22.5894 30.3421C21.9684 30.3908 21.4292 30.196 20.9718 29.7577C20.4157 29.2249 20.1865 28.6012 20.284 27.8868C20.3815 27.1659 20.7975 26.4222 21.5322 25.6555L22.3835 24.7671L21.964 24.3651C21.6448 24.0592 21.3 23.9119 20.9296 23.923C20.5559 23.9309 20.1909 24.1208 19.8346 24.4927C19.5224 24.8184 19.343 25.1703 19.2962 25.5485C19.2495 25.9266 19.3429 26.2276 19.5766 26.4514L18.6969 27.3695C18.4303 27.1141 18.2635 26.7743 18.1965 26.3503C18.1293 25.9198 18.1778 25.474 18.342 25.0128C18.5094 24.5483 18.7791 24.1219 19.1512 23.7337C19.7408 23.1183 20.3574 22.7845 21.0009 22.7321C21.6411 22.6765 22.2374 22.9007 22.7896 23.4047L25.2476 25.76C25.7379 26.2298 26.1877 26.5409 26.5971 26.6934L26.676 26.7691L25.7585 27.7266ZM23.6106 28.5749C23.8849 28.2887 24.071 27.9463 24.1689 27.5477C24.2667 27.1492 24.2524 26.7788 24.1258 26.4366L23.0301 25.3867L22.3443 26.1023C21.2723 27.2211 21.0636 28.0942 21.7184 28.7217C22.0047 28.996 22.3199 29.115 22.664 29.0786C23.0081 29.0423 23.3236 28.8744 23.6106 28.5749Z" stroke="white" stroke-width="10" stroke-linecap="round" stroke-linejoin="round" mask="url(#path-1-outside-1)"/>
<path d="M22.4215 17.9298L23.7146 19.169L24.67 18.172L25.3758 18.8483L24.4204 19.8453L27.7323 23.0189C27.9462 23.2238 28.15 23.3339 28.3437 23.3491C28.5341 23.3612 28.7318 23.2603 28.9367 23.0464C29.0376 22.9411 29.1566 22.7774 29.2937 22.5553L30.0341 23.2647C29.8697 23.568 29.6787 23.8331 29.4612 24.0602C29.0702 24.4682 28.652 24.6576 28.2066 24.6284C27.7611 24.5993 27.3114 24.3671 26.8573 23.932L23.5455 20.7584L22.6137 21.7307L21.9079 21.0544L22.8397 20.0821L21.5465 18.8429L22.4215 17.9298Z" stroke="white" stroke-width="10" stroke-linecap="round" stroke-linejoin="round" mask="url(#path-1-outside-1)"/>
<path d="M27.9908 19.9529C27.4677 19.4516 27.0949 18.8987 26.8725 18.2942C26.6532 17.6865 26.6051 17.0912 26.728 16.5084C26.8541 15.9223 27.1426 15.394 27.5935 14.9235C28.2904 14.1963 29.1049 13.8502 30.0372 13.8851C30.9726 13.9167 31.8582 14.333 32.6939 15.1338L32.7581 15.1953C33.278 15.6935 33.6491 16.2416 33.8713 16.8396C34.0934 17.4312 34.1415 18.0232 34.0156 18.6158C33.8927 19.205 33.6012 19.7398 33.1408 20.2202C32.4471 20.9441 31.6326 21.2903 30.6972 21.2586C29.7649 21.2237 28.8842 20.809 28.055 20.0144L27.9908 19.9529ZM28.9791 19.1389C29.5714 19.7065 30.1777 20.0256 30.7981 20.0961C31.4216 20.1634 31.9541 19.9667 32.3955 19.5061C32.8401 19.0421 33.0123 18.5002 32.912 17.8802C32.8085 17.2571 32.4293 16.6318 31.7745 16.0044C31.1888 15.4431 30.581 15.1289 29.951 15.0618C29.3209 14.9882 28.7852 15.1817 28.3438 15.6424C27.9118 16.0932 27.7427 16.6286 27.8365 17.2487C27.9303 17.8688 28.3112 18.4989 28.9791 19.1389Z" stroke="white" stroke-width="10" stroke-linecap="round" stroke-linejoin="round" mask="url(#path-1-outside-1)"/>
<path d="M37.417 15.5602L36.542 16.4733L28.9608 9.20857L29.8358 8.29547L37.417 15.5602Z" stroke="white" stroke-width="10" stroke-linecap="round" stroke-linejoin="round" mask="url(#path-1-outside-1)"/>
<path d="M39.1584 11.0653L36.3474 5.98581L37.2839 5.00854L41.3912 13.0628C41.9611 14.2465 41.8993 15.2003 41.2056 15.9242L41.0252 16.0828L40.6347 16.3618L39.8944 15.6524L40.1506 15.4245C40.447 15.1152 40.6147 14.8151 40.6536 14.5242C40.6957 14.23 40.6041 13.8677 40.379 13.4374L40.03 12.7147L32.9232 9.55923L33.8786 8.56223L39.1584 11.0653Z" stroke="white" stroke-width="10" stroke-linecap="round" stroke-linejoin="round" mask="url(#path-1-outside-1)"/>
</svg>
