<svg width="32" height="33" viewBox="0 0 32 33" fill="none" xmlns="http://www.w3.org/2000/svg">
<path d="M3.58878 14.6863L4.48003 15.5632L10.0039 22.9313C10.8211 22.9373 11.572 22.7547 12.2495 22.4346C12.5299 23.3588 13.0514 24.1886 13.7695 24.8951C14.5403 25.6535 15.4782 26.205 16.5684 26.4483C16.5945 26.4542 16.6206 26.4599 16.6468 26.4654C16.6412 27.1191 16.8905 27.7741 17.3933 28.2688L18.2947 29.1558C18.7674 29.6208 19.4054 29.879 20.0684 29.8737C20.7314 29.8683 21.3651 29.5998 21.8302 29.1271L24.4735 26.4406C24.8721 26.7773 25.3704 26.9843 25.9008 27.0239C26.6336 27.0786 27.3534 26.808 27.8688 26.2842L28.6935 25.4461C29.3576 24.7711 29.5834 23.7788 29.2767 22.8829C29.0444 22.2047 28.6111 21.7235 28.3324 21.4493C28.0043 21.1265 27.6478 20.8628 27.2701 20.6585C27.1816 20.5303 27.0798 20.4087 26.9647 20.2954L26.0876 19.4324C25.5849 18.9378 24.926 18.6992 24.2725 18.7152C24.0316 17.6283 23.4655 16.6607 22.6459 15.8542C21.881 15.1017 20.9521 14.5592 19.8772 14.313L19.8772 14.313L19.8674 14.3108C19.8378 14.3041 19.8081 14.2977 19.7784 14.2915C19.7834 13.6385 19.5341 12.9843 19.0319 12.4901L18.2084 11.6799C18.0572 11.5312 17.8916 11.4054 17.7161 11.3028C17.4615 10.8508 17.1369 10.4339 16.7547 10.0578C16.1579 9.47058 15.472 9.04777 14.7253 8.8037L15.0404 8.48342C15.5054 8.01079 15.7637 7.3728 15.7583 6.70978C15.7529 6.04676 15.4844 5.41303 15.0118 4.948L14.0762 4.02747C13.092 3.05911 11.5092 3.07194 10.5408 4.05613L3.56013 11.1509C2.59176 12.135 2.60459 13.7179 3.58878 14.6863ZM18.154 21.1076C18.1538 21.1076 18.1543 21.1053 18.1559 21.1006C18.1549 21.1053 18.1541 21.1076 18.154 21.1076Z" fill="#333333" stroke="white" stroke-width="5" stroke-linecap="round" stroke-linejoin="round"/>
</svg>
