<svg width="40" height="41" viewBox="0 0 40 41" fill="none" xmlns="http://www.w3.org/2000/svg">
<path d="M15.024 32.4886L14.0418 31.4941C14.5202 31.0059 14.9523 30.4581 15.2863 29.8508C16.1838 30.6367 17.3063 31.0357 18.5317 30.9735L18.5575 30.972C19.8837 30.8909 21.0012 30.2909 21.8731 29.4296C22.2688 29.0389 22.5908 28.6079 22.8395 28.1453C23.0425 28.0349 23.232 27.8952 23.4015 27.7279L24.345 26.796C24.8408 26.3062 25.0889 25.6603 25.0882 25.0144C25.7435 25.0231 26.3921 24.774 26.8789 24.2932L27.5646 23.6159C28.3155 22.8743 28.5197 21.741 28.0751 20.7839L28.0038 20.6304C28.0892 20.6368 28.1753 20.6414 28.2621 20.6441V20.6441L28.2708 20.6444C29.9345 20.6901 31.3861 20.0335 32.5291 18.9046C33.2731 18.1697 33.8111 17.3171 34.0946 16.3801C34.6463 16.3266 35.1838 16.0903 35.6089 15.6704L36.5086 14.7817C36.9803 14.3158 37.2477 13.6815 37.2517 13.0185C37.2558 12.3555 36.9964 11.718 36.5305 11.2463L29.1518 3.7759C28.1816 2.79358 26.5987 2.7838 25.6164 3.75406L24.7166 4.64276C24.2449 5.10869 23.9776 5.74294 23.9735 6.40597C23.9694 7.069 24.2288 7.7065 24.6948 8.17823L25.2902 8.78104C24.6314 9.06581 24.0355 9.48551 23.5137 10.0009C22.8702 10.6365 22.4118 11.3938 22.144 12.2361C21.6203 12.3108 21.1265 12.551 20.7403 12.9324L19.8211 13.8403C19.3063 14.3488 19.0495 15.04 19.0804 15.7314C18.3892 15.6919 17.6948 15.9405 17.1803 16.4488L16.261 17.3567C15.9153 17.6982 15.6818 18.1274 15.5784 18.5886C14.7293 18.8839 13.9993 19.3985 13.3928 19.9976C12.8066 20.5765 12.3333 21.2541 12.0145 22.0295C11.4523 21.8557 10.8513 21.7763 10.2184 21.8062C8.60001 21.8795 7.24536 22.6681 6.17215 23.7282L3.56045 26.3078C3.08872 26.7737 2.8214 27.408 2.81731 28.071C2.81321 28.734 3.07267 29.3715 3.53861 29.8433L10.5329 36.9245C11.5032 37.9069 13.0861 37.9166 14.0684 36.9464L15.0022 36.024C15.4739 35.5581 15.7412 34.9239 15.7453 34.2608C15.7494 33.5978 15.49 32.9603 15.024 32.4886ZM14.055 20.7751C13.5971 21.2274 13.209 21.7821 12.9723 22.4351L15.5529 19.5524C15.5646 19.6218 15.5792 19.6903 15.5966 19.7578C14.9985 19.9857 14.5005 20.3467 14.1089 20.7226C14.0907 20.7401 14.0728 20.7575 14.055 20.7751Z" fill="#333333" stroke="white" stroke-width="5" stroke-linecap="round" stroke-linejoin="round"/>
</svg>
