<svg width="35" height="35" viewBox="0 0 35 35" fill="none" xmlns="http://www.w3.org/2000/svg">
<mask id="path-1-outside-1" maskUnits="userSpaceOnUse" x="-0.901093" y="0.893188" width="36" height="34" fill="black">
<rect fill="white" x="-0.901093" y="0.893188" width="36" height="34"/>
<path d="M9.48798 11.0113C8.89911 9.99884 8.58115 9.14501 8.53409 8.4498C8.49348 7.75445 8.71281 7.1567 9.19208 6.65655C9.73441 6.0906 10.4075 5.83934 11.2115 5.90278C12.0219 5.96608 12.789 6.34458 13.5129 7.03825C14.0065 7.51121 14.3543 8.02757 14.5564 8.58733C14.7618 9.15024 14.809 9.7004 14.6979 10.2378C14.5902 10.7784 14.3456 11.2478 13.9641 11.6459L13.0115 10.7331C13.4277 10.2987 13.6158 9.82576 13.5759 9.31412C13.5391 8.79918 13.269 8.30051 12.7656 7.81809C12.2984 7.37035 11.8338 7.12401 11.3719 7.07906C10.9165 7.03397 10.5138 7.19405 10.1638 7.55929C9.88316 7.85214 9.7685 8.21881 9.81979 8.6593C9.87753 9.09965 10.1238 9.68908 10.5585 10.4276C10.9966 11.1693 11.2857 11.8029 11.4258 12.3285C11.5724 12.854 11.597 13.3289 11.4997 13.7532C11.4057 14.1807 11.1837 14.5771 10.8337 14.9423C10.2756 15.5247 9.60081 15.7744 8.80935 15.6914C8.02104 15.605 7.24684 15.1977 6.48675 14.4693C5.99318 13.9963 5.62238 13.4611 5.37435 12.8637C5.12947 12.2629 5.04787 11.6861 5.12956 11.1332C5.21453 10.5834 5.45724 10.0996 5.85768 9.68172L6.81027 10.5945C6.39406 11.0289 6.22415 11.5257 6.30054 12.0849C6.38337 12.6439 6.69295 13.1805 7.22929 13.6944C7.72944 14.1737 8.21052 14.439 8.67254 14.4904C9.13456 14.5418 9.53426 14.3914 9.87163 14.0394C10.209 13.6873 10.3458 13.2976 10.2818 12.8703C10.2211 12.4396 9.95647 11.82 9.48798 11.0113Z"/>
<path d="M13.5578 21.0558C13.6061 20.9001 13.743 20.6715 13.9687 20.3702C13.1217 20.4043 12.4037 20.1392 11.8147 19.5748C11.2882 19.0703 10.9974 18.5076 10.9423 17.8867C10.8936 17.2657 11.0884 16.7265 11.5267 16.2691C12.0595 15.713 12.6832 15.4838 13.3976 15.5814C14.1184 15.6788 14.8622 16.0949 15.6289 16.8295L16.5173 17.6808L16.9193 17.2613C17.2252 16.9421 17.3725 16.5973 17.3614 16.2269C17.3534 15.8532 17.1635 15.4882 16.7917 15.1319C16.466 14.8197 16.114 14.6403 15.7359 14.5935C15.3578 14.5468 15.0568 14.6403 14.8329 14.8739L13.9149 13.9942C14.1703 13.7276 14.51 13.5608 14.9341 13.4938C15.3645 13.4266 15.8104 13.4751 16.2716 13.6393C16.7361 13.8067 17.1625 14.0764 17.5507 14.4485C18.166 15.0381 18.4999 15.6547 18.5523 16.2982C18.6078 16.9385 18.3836 17.5347 17.8797 18.0869L15.5244 20.5449C15.0546 21.0352 14.7434 21.485 14.591 21.8944L14.5153 21.9734L13.5578 21.0558ZM12.7094 18.9079C12.9957 19.1822 13.3381 19.3683 13.7366 19.4662C14.1352 19.564 14.5056 19.5497 14.8477 19.4231L15.8977 18.3274L15.182 17.6416C14.0633 16.5696 13.1902 16.361 12.5627 17.0158C12.2884 17.302 12.1694 17.6172 12.2058 17.9613C12.2421 18.3054 12.41 18.621 12.7094 18.9079Z"/>
<path d="M16.8523 24.2127L15.9392 23.3377L21.0566 17.9974L21.9697 18.8723L16.8523 24.2127ZM22.34 16.5099C22.4819 16.3618 22.6461 16.2793 22.8327 16.2625C23.0226 16.2487 23.2063 16.327 23.384 16.4973C23.5617 16.6676 23.6477 16.8478 23.6421 17.0381C23.6365 17.2284 23.5628 17.3976 23.4209 17.5457C23.279 17.6937 23.1147 17.773 22.928 17.7834C22.7412 17.7938 22.559 17.7139 22.3813 17.5436C22.2037 17.3734 22.1161 17.1948 22.1185 17.0078C22.1243 16.8239 22.1981 16.6579 22.34 16.5099Z"/>
<path d="M20.7984 22.7868C21.5835 21.9675 22.4083 21.4955 23.2727 21.3707C24.1402 21.2426 24.8882 21.4797 25.5167 22.0819C26.1419 22.681 26.4321 23.3694 26.3875 24.1471L29.055 21.3634L29.9681 22.2384L22.7034 29.8196L21.8643 29.0156L22.3685 28.4004C21.5745 28.498 20.8517 28.2346 20.2002 27.6103C19.5816 27.0175 19.3193 26.2801 19.4133 25.3982C19.5106 24.5194 19.9502 23.672 20.7322 22.8559L20.7984 22.7868ZM21.6122 23.7655C21.032 24.3709 20.703 24.9645 20.6252 25.5464C20.5473 26.1282 20.7289 26.6304 21.1698 27.0529C21.7489 27.6079 22.4208 27.7531 23.1855 27.4886L25.5362 25.0356C25.7455 24.2704 25.5671 23.6167 25.0012 23.0744C24.5537 22.6455 24.0394 22.4841 23.4582 22.5899C22.8771 22.6958 22.2617 23.0876 21.6122 23.7655Z"/>
</mask>
<path d="M9.48798 11.0113C8.89911 9.99884 8.58115 9.14501 8.53409 8.4498C8.49348 7.75445 8.71281 7.1567 9.19208 6.65655C9.73441 6.0906 10.4075 5.83934 11.2115 5.90278C12.0219 5.96608 12.789 6.34458 13.5129 7.03825C14.0065 7.51121 14.3543 8.02757 14.5564 8.58733C14.7618 9.15024 14.809 9.7004 14.6979 10.2378C14.5902 10.7784 14.3456 11.2478 13.9641 11.6459L13.0115 10.7331C13.4277 10.2987 13.6158 9.82576 13.5759 9.31412C13.5391 8.79918 13.269 8.30051 12.7656 7.81809C12.2984 7.37035 11.8338 7.12401 11.3719 7.07906C10.9165 7.03397 10.5138 7.19405 10.1638 7.55929C9.88316 7.85214 9.7685 8.21881 9.81979 8.6593C9.87753 9.09965 10.1238 9.68908 10.5585 10.4276C10.9966 11.1693 11.2857 11.8029 11.4258 12.3285C11.5724 12.854 11.597 13.3289 11.4997 13.7532C11.4057 14.1807 11.1837 14.5771 10.8337 14.9423C10.2756 15.5247 9.60081 15.7744 8.80935 15.6914C8.02104 15.605 7.24684 15.1977 6.48675 14.4693C5.99318 13.9963 5.62238 13.4611 5.37435 12.8637C5.12947 12.2629 5.04787 11.6861 5.12956 11.1332C5.21453 10.5834 5.45724 10.0996 5.85768 9.68172L6.81027 10.5945C6.39406 11.0289 6.22415 11.5257 6.30054 12.0849C6.38337 12.6439 6.69295 13.1805 7.22929 13.6944C7.72944 14.1737 8.21052 14.439 8.67254 14.4904C9.13456 14.5418 9.53426 14.3914 9.87163 14.0394C10.209 13.6873 10.3458 13.2976 10.2818 12.8703C10.2211 12.4396 9.95647 11.82 9.48798 11.0113Z" fill="#333333"/>
<path d="M13.5578 21.0558C13.6061 20.9001 13.743 20.6715 13.9687 20.3702C13.1217 20.4043 12.4037 20.1392 11.8147 19.5748C11.2882 19.0703 10.9974 18.5076 10.9423 17.8867C10.8936 17.2657 11.0884 16.7265 11.5267 16.2691C12.0595 15.713 12.6832 15.4838 13.3976 15.5814C14.1184 15.6788 14.8622 16.0949 15.6289 16.8295L16.5173 17.6808L16.9193 17.2613C17.2252 16.9421 17.3725 16.5973 17.3614 16.2269C17.3534 15.8532 17.1635 15.4882 16.7917 15.1319C16.466 14.8197 16.114 14.6403 15.7359 14.5935C15.3578 14.5468 15.0568 14.6403 14.8329 14.8739L13.9149 13.9942C14.1703 13.7276 14.51 13.5608 14.9341 13.4938C15.3645 13.4266 15.8104 13.4751 16.2716 13.6393C16.7361 13.8067 17.1625 14.0764 17.5507 14.4485C18.166 15.0381 18.4999 15.6547 18.5523 16.2982C18.6078 16.9385 18.3836 17.5347 17.8797 18.0869L15.5244 20.5449C15.0546 21.0352 14.7434 21.485 14.591 21.8944L14.5153 21.9734L13.5578 21.0558ZM12.7094 18.9079C12.9957 19.1822 13.3381 19.3683 13.7366 19.4662C14.1352 19.564 14.5056 19.5497 14.8477 19.4231L15.8977 18.3274L15.182 17.6416C14.0633 16.5696 13.1902 16.361 12.5627 17.0158C12.2884 17.302 12.1694 17.6172 12.2058 17.9613C12.2421 18.3054 12.41 18.621 12.7094 18.9079Z" fill="#333333"/>
<path d="M16.8523 24.2127L15.9392 23.3377L21.0566 17.9974L21.9697 18.8723L16.8523 24.2127ZM22.34 16.5099C22.4819 16.3618 22.6461 16.2793 22.8327 16.2625C23.0226 16.2487 23.2063 16.327 23.384 16.4973C23.5617 16.6676 23.6477 16.8478 23.6421 17.0381C23.6365 17.2284 23.5628 17.3976 23.4209 17.5457C23.279 17.6937 23.1147 17.773 22.928 17.7834C22.7412 17.7938 22.559 17.7139 22.3813 17.5436C22.2037 17.3734 22.1161 17.1948 22.1185 17.0078C22.1243 16.8239 22.1981 16.6579 22.34 16.5099Z" fill="#333333"/>
<path d="M20.7984 22.7868C21.5835 21.9675 22.4083 21.4955 23.2727 21.3707C24.1402 21.2426 24.8882 21.4797 25.5167 22.0819C26.1419 22.681 26.4321 23.3694 26.3875 24.1471L29.055 21.3634L29.9681 22.2384L22.7034 29.8196L21.8643 29.0156L22.3685 28.4004C21.5745 28.498 20.8517 28.2346 20.2002 27.6103C19.5816 27.0175 19.3193 26.2801 19.4133 25.3982C19.5106 24.5194 19.9502 23.672 20.7322 22.8559L20.7984 22.7868ZM21.6122 23.7655C21.032 24.3709 20.703 24.9645 20.6252 25.5464C20.5473 26.1282 20.7289 26.6304 21.1698 27.0529C21.7489 27.6079 22.4208 27.7531 23.1855 27.4886L25.5362 25.0356C25.7455 24.2704 25.5671 23.6167 25.0012 23.0744C24.5537 22.6455 24.0394 22.4841 23.4582 22.5899C22.8771 22.6958 22.2617 23.0876 21.6122 23.7655Z" fill="#333333"/>
<path d="M9.48798 11.0113L13.8144 8.50492L13.8101 8.49737L9.48798 11.0113ZM8.53409 8.4498L3.5426 8.74131C3.5435 8.75669 3.54446 8.77207 3.5455 8.78744L8.53409 8.4498ZM9.19208 6.65655L12.8022 10.1159L9.19208 6.65655ZM11.2115 5.90278L10.8181 10.8873L10.8221 10.8876L11.2115 5.90278ZM13.5129 7.03825L10.0535 10.6483L13.5129 7.03825ZM14.5564 8.58733L9.85354 10.2853C9.85546 10.2906 9.85738 10.2959 9.85931 10.3012L14.5564 8.58733ZM14.6979 10.2378L9.80135 9.22624C9.79899 9.23767 9.79666 9.24911 9.79438 9.26056L14.6979 10.2378ZM13.9641 11.6459L10.5047 15.256C11.4621 16.1735 12.7449 16.673 14.0706 16.6448C15.3964 16.6165 16.6567 16.0627 17.5742 15.1053L13.9641 11.6459ZM13.0115 10.7331L9.40139 7.27371C7.49083 9.26751 7.55831 12.4326 9.55211 14.3432L13.0115 10.7331ZM13.5759 9.31412L8.58861 9.67019C8.58939 9.68113 8.59021 9.69208 8.59106 9.70302L13.5759 9.31412ZM12.7656 7.81809L9.30624 11.4282L12.7656 7.81809ZM11.3719 7.07906L10.8794 12.0547L10.8876 12.0556L11.3719 7.07906ZM10.1638 7.55929L6.5537 4.09992L6.5537 4.09992L10.1638 7.55929ZM9.81979 8.6593L4.85335 9.23762C4.85613 9.26153 4.85909 9.28543 4.86222 9.3093L9.81979 8.6593ZM10.5585 10.4276L6.24973 12.9642L6.25338 12.9704L10.5585 10.4276ZM11.4258 12.3285L6.59458 13.6166C6.59951 13.6351 6.60454 13.6535 6.60968 13.672L11.4258 12.3285ZM11.4997 13.7532L6.62625 12.6355C6.62292 12.65 6.61965 12.6645 6.61645 12.6791L11.4997 13.7532ZM10.8337 14.9423L7.22359 11.4829L10.8337 14.9423ZM8.80935 15.6914L8.26499 20.6616C8.27251 20.6625 8.28004 20.6633 8.28757 20.6641L8.80935 15.6914ZM6.48675 14.4693L9.94612 10.8592L9.94612 10.8592L6.48675 14.4693ZM5.37435 12.8637L0.744238 14.751C0.748286 14.761 0.752365 14.7709 0.756477 14.7808L5.37435 12.8637ZM5.12956 11.1332L0.188237 10.3694C0.186536 10.3804 0.184872 10.3914 0.183245 10.4024L5.12956 11.1332ZM5.85768 9.68172L9.31706 6.07164C8.3596 5.15415 7.07689 4.6546 5.75111 4.68286C4.42533 4.71112 3.16508 5.2649 2.24759 6.22235L5.85768 9.68172ZM6.81027 10.5945L10.4204 14.0539C12.3309 12.0601 12.2634 8.89501 10.2696 6.98445L6.81027 10.5945ZM6.30054 12.0849L1.34654 12.7616C1.3491 12.7803 1.35176 12.799 1.35452 12.8176L6.30054 12.0849ZM7.22929 13.6944L10.6887 10.0843L7.22929 13.6944ZM10.2818 12.8703L5.33087 13.5687C5.3328 13.5824 5.33479 13.5961 5.33683 13.6098L10.2818 12.8703ZM13.5578 21.0558L8.78176 19.5761C8.2213 21.3852 8.73103 23.3556 10.0984 24.6659L13.5578 21.0558ZM13.9687 20.3702L17.971 23.3671C19.1275 21.8226 19.2921 19.7504 18.3939 18.0427C17.4957 16.335 15.695 15.2964 13.7671 15.3742L13.9687 20.3702ZM11.8147 19.5748L15.2741 15.9647L15.2741 15.9647L11.8147 19.5748ZM10.9423 17.8867L5.95758 18.2776C5.95893 18.2947 5.96036 18.3119 5.96188 18.329L10.9423 17.8867ZM11.5267 16.2691L15.1367 19.7285L11.5267 16.2691ZM13.3976 15.5814L12.7209 20.5354L12.7278 20.5363L13.3976 15.5814ZM15.6289 16.8295L12.1695 20.4396L12.1695 20.4396L15.6289 16.8295ZM16.5173 17.6808L13.0579 21.2909C14.0154 22.2084 15.2981 22.708 16.6239 22.6797C17.9497 22.6514 19.2099 22.0977 20.1274 21.1402L16.5173 17.6808ZM16.9193 17.2613L13.3092 13.8019L13.3092 13.8019L16.9193 17.2613ZM17.3614 16.2269L12.3625 16.3335C12.3628 16.348 12.3632 16.3625 12.3637 16.3769L17.3614 16.2269ZM16.7917 15.1319L13.3323 18.742L16.7917 15.1319ZM14.8329 14.8739L11.3736 18.484C13.3674 20.3945 16.5325 20.327 18.443 18.3332L14.8329 14.8739ZM13.9149 13.9942L10.3048 10.5348C9.38734 11.4922 8.88779 12.775 8.91605 14.1007C8.94432 15.4265 9.49809 16.6868 10.4555 17.6043L13.9149 13.9942ZM14.9341 13.4938L14.1629 8.5536L14.1531 8.55516L14.9341 13.4938ZM16.2716 13.6393L17.9666 8.9354C17.9607 8.93327 17.9547 8.93114 17.9488 8.92903L16.2716 13.6393ZM17.5507 14.4485L14.0914 18.0586L14.0914 18.0586L17.5507 14.4485ZM18.5523 16.2982L13.5688 16.704C13.5695 16.7128 13.5702 16.7216 13.571 16.7304L18.5523 16.2982ZM17.8797 18.0869L21.4898 21.5463C21.5179 21.517 21.5457 21.4873 21.5731 21.4573L17.8797 18.0869ZM15.5244 20.5449L11.9143 17.0855L11.9143 17.0855L15.5244 20.5449ZM14.591 21.8944L18.2011 25.3537C18.6728 24.8615 19.0388 24.278 19.2767 23.6391L14.591 21.8944ZM14.5153 21.9734L11.0559 25.5834C12.0134 26.5009 13.2961 27.0005 14.6219 26.9722C15.9477 26.9439 17.208 26.3902 18.1255 25.4327L14.5153 21.9734ZM12.7094 18.9079L16.1688 15.2978L16.1688 15.2978L12.7094 18.9079ZM14.8477 19.4231L16.5821 24.1127C17.2925 23.85 17.9338 23.4293 18.4578 22.8825L14.8477 19.4231ZM15.8977 18.3274L19.5078 21.7868C21.4184 19.793 21.3509 16.6279 19.3571 14.7173L15.8977 18.3274ZM15.182 17.6416L18.6414 14.0315L18.6414 14.0315L15.182 17.6416ZM12.5627 17.0158L16.1728 20.4751L12.5627 17.0158ZM16.8523 24.2127L13.3929 27.8228C14.3503 28.7403 15.6331 29.2399 16.9588 29.2116C18.2846 29.1833 19.5449 28.6296 20.4624 27.6721L16.8523 24.2127ZM15.9392 23.3377L12.3291 19.8784C10.4185 21.8722 10.486 25.0373 12.4798 26.9478L15.9392 23.3377ZM21.0566 17.9974L24.516 14.3873C23.5585 13.4698 22.2758 12.9702 20.95 12.9985C19.6243 13.0268 18.364 13.5805 17.4465 14.538L21.0566 17.9974ZM21.9697 18.8723L25.5798 22.3317C27.4903 20.3379 27.4229 17.1728 25.4291 15.2623L21.9697 18.8723ZM22.8327 16.2625L22.4724 11.2755C22.4424 11.2776 22.4124 11.2801 22.3824 11.2828L22.8327 16.2625ZM22.1185 17.0078L17.121 16.8514C17.12 16.8816 17.1193 16.9118 17.1189 16.942L22.1185 17.0078ZM20.7984 22.7868L17.1883 19.3275L17.1883 19.3275L20.7984 22.7868ZM23.2727 21.3707L23.9871 26.3194C23.9924 26.3186 23.9977 26.3178 24.003 26.317L23.2727 21.3707ZM25.5167 22.0819L22.0573 25.692L22.0573 25.692L25.5167 22.0819ZM26.3875 24.1471L21.3957 23.8605C21.2757 25.9512 22.4712 27.8952 24.3911 28.7313C26.3111 29.5674 28.5487 29.1185 29.9976 27.6065L26.3875 24.1471ZM29.055 21.3634L32.5144 17.7533C30.5206 15.8428 27.3555 15.9103 25.4449 17.9041L29.055 21.3634ZM29.9681 22.2384L33.5782 25.6978C34.4957 24.7403 34.9952 23.4576 34.9669 22.1318C34.9387 20.8061 34.3849 19.5458 33.4275 18.6283L29.9681 22.2384ZM22.7034 29.8196L19.244 33.4297C20.2015 34.3472 21.4842 34.8467 22.81 34.8185C24.1357 34.7902 25.396 34.2364 26.3135 33.279L22.7034 29.8196ZM21.8643 29.0156L17.9975 25.8458C16.342 27.8654 16.5195 30.8189 18.405 32.6256L21.8643 29.0156ZM22.3685 28.4004L26.2354 31.5702C27.531 29.9897 27.7343 27.7798 26.7488 25.9894C25.7634 24.1991 23.7876 23.1886 21.7591 23.4377L22.3685 28.4004ZM20.2002 27.6103L23.6596 24.0002L23.6596 24.0002L20.2002 27.6103ZM19.4133 25.3982L14.4437 24.8479C14.4429 24.8547 14.4422 24.8614 14.4415 24.8682L19.4133 25.3982ZM20.7322 22.8559L24.3423 26.3153L24.3423 26.3153L20.7322 22.8559ZM21.6122 23.7655L18.0021 20.3061L18.0021 20.3061L21.6122 23.7655ZM21.1698 27.0529L17.7104 30.663L17.7104 30.663L21.1698 27.0529ZM23.1855 27.4886L24.8199 32.2139C25.5696 31.9546 26.2468 31.5207 26.7956 30.948L23.1855 27.4886ZM25.5362 25.0356L29.1462 28.4949C29.7224 27.8937 30.1392 27.1581 30.3589 26.3549L25.5362 25.0356ZM25.0012 23.0744L21.5418 26.6844L25.0012 23.0744ZM13.8101 8.49737C13.6203 8.17116 13.53 7.96469 13.4935 7.86665C13.4542 7.76123 13.5054 7.85691 13.5227 8.11216L3.5455 8.78744C3.66839 10.6031 4.42037 12.2434 5.1659 13.5252L13.8101 8.49737ZM13.5256 8.15829C13.5415 8.43036 13.5101 8.79911 13.3621 9.20231C13.2139 9.60616 12.9974 9.91219 12.8022 10.1159L5.58199 3.19718C4.13474 4.70748 3.42144 6.66672 3.5426 8.74131L13.5256 8.15829ZM12.8022 10.1159C12.6009 10.3259 12.2827 10.5672 11.8522 10.728C11.4259 10.8871 11.054 10.9059 10.8181 10.8873L11.6048 0.918277C9.35504 0.740738 7.1965 1.51233 5.58199 3.19718L12.8022 10.1159ZM10.8221 10.8876C10.5605 10.8672 10.3387 10.7952 10.1823 10.7181C10.0371 10.6464 9.99842 10.5955 10.0535 10.6483L16.9723 3.42816C15.6152 2.12773 13.8122 1.09071 11.6009 0.917967L10.8221 10.8876ZM10.0535 10.6483C10.0675 10.6617 10.0409 10.6387 9.99707 10.5737C9.95193 10.5067 9.89838 10.4095 9.85354 10.2853L19.2592 6.88933C18.7591 5.50417 17.9392 4.35475 16.9723 3.42816L10.0535 10.6483ZM9.85931 10.3012C9.82355 10.2032 9.78128 10.0495 9.76412 9.84939C9.7467 9.6463 9.75853 9.43349 9.80135 9.22624L19.5945 11.2494C19.9106 9.71974 19.7469 8.22565 19.2535 6.87345L9.85931 10.3012ZM9.79438 9.26056C9.82925 9.08562 9.89421 8.88685 9.99977 8.68433C10.1053 8.48183 10.2309 8.31496 10.354 8.18653L17.5742 15.1053C18.614 14.0201 19.3076 12.6897 19.6015 11.2151L9.79438 9.26056ZM17.4234 8.03581L16.4709 7.123L9.55211 14.3432L10.5047 15.256L17.4234 8.03581ZM16.6216 14.1925C17.8369 12.9242 18.7308 11.1049 18.5608 8.92521L8.59106 9.70302C8.55209 9.20355 8.62809 8.68401 8.81881 8.20454C9.00206 7.74385 9.24318 7.43882 9.40139 7.27371L16.6216 14.1925ZM18.5632 8.95805C18.4112 6.82815 17.3055 5.24343 16.225 4.208L9.30624 11.4282C9.23257 11.3576 8.66715 10.7702 8.58861 9.67019L18.5632 8.95805ZM16.225 4.208C15.2617 3.28494 13.8023 2.29195 11.8562 2.10257L10.8876 12.0556C9.86531 11.9561 9.33503 11.4558 9.30624 11.4282L16.225 4.208ZM11.8645 2.10338C9.70629 1.88973 7.83804 2.75962 6.5537 4.09992L13.7739 11.0187C13.5353 11.2676 13.1422 11.5863 12.5752 11.8117C11.9926 12.0433 11.4007 12.1063 10.8794 12.0547L11.8645 2.10338ZM6.5537 4.09992C5.137 5.57834 4.64791 7.47339 4.85335 9.23762L14.7862 8.08098C14.8292 8.45016 14.8212 8.96512 14.6394 9.54627C14.4536 10.1405 14.137 10.6398 13.7739 11.0187L6.5537 4.09992ZM4.86222 9.3093C5.05527 10.7817 5.73197 12.0847 6.24974 12.9642L14.8673 7.89103C14.8008 7.77804 14.7518 7.68819 14.7169 7.62005C14.6816 7.55125 14.6652 7.51348 14.6614 7.50421C14.657 7.49373 14.672 7.52798 14.6939 7.60194C14.7051 7.64011 14.7194 7.6929 14.734 7.75918C14.7485 7.82533 14.7642 7.90927 14.7774 8.00929L4.86222 9.3093ZM6.25338 12.9704C6.40296 13.2236 6.49807 13.4098 6.55498 13.5345C6.61401 13.6639 6.61315 13.6863 6.59458 13.6166L16.2571 11.0405C15.9519 9.89581 15.4154 8.81893 14.8637 7.88485L6.25338 12.9704ZM6.60968 13.672C6.58801 13.5943 6.49585 13.204 6.62625 12.6355L16.3732 14.871C16.6982 13.4538 16.5568 12.1138 16.242 10.9851L6.60968 13.672ZM6.61645 12.6791C6.7488 12.0774 7.0389 11.6757 7.22359 11.4829L14.4438 18.4017C15.3284 17.4785 16.0626 16.284 16.383 14.8274L6.61645 12.6791ZM7.22359 11.4829C7.40439 11.2943 7.71936 11.0453 8.1739 10.8771C8.63067 10.7081 9.04488 10.6886 9.33112 10.7187L8.28757 20.6641C10.6406 20.9109 12.8334 20.0822 14.4438 18.4017L7.22359 11.4829ZM9.3537 10.7211C9.64438 10.7529 9.8549 10.8379 9.96564 10.8962C10.0656 10.9488 10.0551 10.9636 9.94612 10.8592L3.02737 18.0794C4.32298 19.3209 6.07101 20.4213 8.26499 20.6616L9.3537 10.7211ZM9.94612 10.8592C9.9292 10.843 9.93384 10.8446 9.94846 10.8657C9.96352 10.8875 9.97949 10.9159 9.99222 10.9466L0.756477 14.7808C1.2844 16.0524 2.0636 17.1559 3.02737 18.0794L9.94612 10.8592ZM10.0045 10.9763C10.0424 11.0693 10.1447 11.3978 10.0759 11.8639L0.183245 10.4024C-0.0490011 11.9745 0.216577 13.4566 0.744238 14.751L10.0045 10.9763ZM10.0709 11.897C10.0361 12.122 9.96295 12.3639 9.84451 12.6C9.72692 12.8344 9.5892 13.0144 9.46777 13.1411L2.24759 6.22235C1.16789 7.3491 0.436522 8.76312 0.188237 10.3694L10.0709 11.897ZM2.39831 13.2918L3.35089 14.2046L10.2696 6.98445L9.31706 6.07164L2.39831 13.2918ZM3.20018 7.13517C1.80856 8.58741 1.04851 10.5798 1.34654 12.7616L11.2545 11.4082C11.3137 11.8412 11.2874 12.3677 11.1016 12.911C10.9193 13.4441 10.6421 13.8225 10.4204 14.0539L3.20018 7.13517ZM1.35452 12.8176C1.64466 14.776 2.68487 16.2647 3.76992 17.3045L10.6887 10.0843C10.701 10.0962 11.1221 10.5119 11.2465 11.3521L1.35452 12.8176ZM3.76992 17.3045C4.69191 18.188 6.14617 19.2402 8.11978 19.4597L9.2253 9.52104C10.2749 9.63779 10.767 10.1594 10.6887 10.0843L3.76992 17.3045ZM8.11978 19.4597C10.215 19.6928 12.1289 18.9106 13.4817 17.4987L6.26155 10.58C6.53683 10.2927 6.96511 9.9595 7.55853 9.73629C8.15997 9.51006 8.74399 9.4675 9.2253 9.52104L8.11978 19.4597ZM13.4817 17.4987C14.7332 16.1928 15.5513 14.2999 15.2269 12.1308L5.33683 13.6098C5.25417 13.057 5.29555 12.4366 5.50922 11.8276C5.71602 11.2382 6.02462 10.8272 6.26155 10.58L13.4817 17.4987ZM15.2328 12.1718C15.0271 10.7139 14.32 9.37764 13.8144 8.50492L5.16152 13.5176C5.24284 13.658 5.30555 13.7734 5.35281 13.8655C5.40053 13.9584 5.42733 14.0176 5.43955 14.0462C5.45257 14.0767 5.44204 14.0562 5.422 13.9915C5.4115 13.9576 5.39663 13.9059 5.38078 13.8381C5.36502 13.7707 5.34657 13.68 5.33087 13.5687L15.2328 12.1718ZM18.3338 22.5355C18.2542 22.7926 18.1685 22.9847 18.1148 23.0961C18.0585 23.2129 18.011 23.2954 17.9856 23.3376C17.9383 23.4166 17.9227 23.4316 17.971 23.3671L9.96634 17.3733C9.72917 17.69 9.10885 18.5204 8.78176 19.5761L18.3338 22.5355ZM13.7671 15.3742C13.931 15.3676 14.2045 15.3875 14.5269 15.5065C14.8534 15.6271 15.1061 15.8038 15.2741 15.9647L8.35533 23.1849C9.96785 24.7301 12.0249 25.4527 14.1702 25.3661L13.7671 15.3742ZM15.2741 15.9647C15.3494 16.037 15.5012 16.2032 15.6436 16.4789C15.7915 16.7649 15.8919 17.0974 15.9227 17.4445L5.96188 18.329C6.14181 20.3552 7.11208 21.9936 8.35533 23.1849L15.2741 15.9647ZM15.927 17.4959C15.9533 17.8319 15.9189 18.2602 15.7544 18.7154C15.5907 19.1684 15.3497 19.5063 15.1367 19.7285L7.91657 12.8097C6.51138 14.2761 5.79536 16.2087 5.95758 18.2776L15.927 17.4959ZM15.1367 19.7285C14.9605 19.9124 14.6267 20.1865 14.1192 20.3731C13.5995 20.5641 13.103 20.5875 12.7209 20.5354L14.0743 10.6274C11.6517 10.2964 9.46846 11.1902 7.91657 12.8097L15.1367 19.7285ZM12.7278 20.5363C12.3689 20.4878 12.1388 20.377 12.055 20.3301C11.9794 20.2878 12.0207 20.297 12.1695 20.4396L19.0882 13.2194C17.8938 12.0749 16.2198 10.9174 14.0674 10.6264L12.7278 20.5363ZM12.1695 20.4396L13.0579 21.2909L19.9767 14.0708L19.0882 13.2194L12.1695 20.4396ZM20.1274 21.1402L20.5294 20.7207L13.3092 13.8019L12.9072 14.2215L20.1274 21.1402ZM20.5294 20.7207C21.5708 19.634 22.4182 18.0424 22.3592 16.0769L12.3637 16.3769C12.3472 15.8277 12.4534 15.2854 12.6615 14.7983C12.8626 14.3279 13.1186 14.0008 13.3092 13.8019L20.5294 20.7207ZM22.3603 16.1203C22.3147 13.9848 21.2112 12.4418 20.2511 11.5218L13.3323 18.742C13.1159 18.5345 12.3921 17.7216 12.3625 16.3335L22.3603 16.1203ZM20.2511 11.5218C19.2951 10.6057 17.9839 9.83334 16.3492 9.6313L15.1226 19.5558C14.2442 19.4472 13.6368 19.0337 13.3323 18.742L20.2511 11.5218ZM16.3492 9.6313C14.7196 9.42989 12.7407 9.83058 11.2229 11.4145L18.443 18.3332C17.985 18.8112 17.39 19.1923 16.7091 19.4037C16.0559 19.6065 15.4933 19.6016 15.1226 19.5558L16.3492 9.6313ZM18.2923 11.2638L17.3743 10.3841L10.4555 17.6043L11.3736 18.484L18.2923 11.2638ZM17.525 17.4535C16.9055 18.1 16.1874 18.3577 15.7151 18.4324L14.1531 8.55516C12.8327 8.76398 11.4351 9.35525 10.3048 10.5348L17.525 17.4535ZM15.7052 18.434C15.2157 18.5104 14.8189 18.4296 14.5944 18.3496L17.9488 8.92903C16.8018 8.52062 15.5134 8.34281 14.1629 8.55361L15.7052 18.434ZM14.5766 18.3433C14.326 18.253 14.1627 18.1269 14.0914 18.0586L21.0101 10.8384C20.1622 10.0259 19.1461 9.36043 17.9666 8.9354L14.5766 18.3433ZM14.0914 18.0586C14.1116 18.078 13.6438 17.6248 13.5688 16.704L23.5358 15.8924C23.356 13.6845 22.2205 11.9983 21.0101 10.8384L14.0914 18.0586ZM13.571 16.7304C13.5348 16.3134 13.5926 15.8731 13.7457 15.4658C13.8925 15.0755 14.0832 14.8297 14.1863 14.7166L21.5731 21.4573C22.8502 20.0577 23.7299 18.1289 23.5336 15.866L13.571 16.7304ZM14.2696 14.6276L11.9143 17.0855L19.1344 24.0043L21.4898 21.5463L14.2696 14.6276ZM11.9143 17.0855C11.2068 17.8239 10.3905 18.8465 9.90529 20.1496L19.2767 23.6391C19.1772 23.9064 19.0749 24.0594 19.0509 24.0942C19.0248 24.132 19.0411 24.1017 19.1344 24.0043L11.9143 17.0855ZM10.9809 18.435L10.9052 18.514L18.1255 25.4327L18.2011 25.3537L10.9809 18.435ZM17.9747 18.3633L17.0172 17.4457L10.0984 24.6659L11.0559 25.5834L17.9747 18.3633ZM9.25006 22.518C10.1924 23.421 11.325 24.0225 12.5442 24.3219L14.9291 14.6104C15.3512 14.7141 15.799 14.9434 16.1688 15.2978L9.25006 22.518ZM12.5442 24.3219C13.7875 24.6272 15.1885 24.6281 16.5821 24.1127L13.1134 14.7336C13.8226 14.4713 14.4829 14.5009 14.9291 14.6104L12.5442 24.3219ZM18.4578 22.8825L19.5078 21.7868L12.2876 14.868L11.2377 15.9638L18.4578 22.8825ZM19.3571 14.7173L18.6414 14.0315L11.7227 21.2517L12.4383 21.9375L19.3571 14.7173ZM18.6414 14.0315C17.8481 13.2713 16.5697 12.2289 14.8502 11.818C12.6647 11.2958 10.4793 11.9632 8.95264 13.5564L16.1728 20.4751C15.8256 20.8375 15.2724 21.2508 14.5044 21.4792C13.7337 21.7083 13.0343 21.6656 12.5261 21.5442C11.6797 21.342 11.3973 20.9399 11.7227 21.2517L18.6414 14.0315ZM8.95264 13.5564C7.82562 14.7325 7.01894 16.4558 7.23342 18.4865L17.1781 17.4361C17.2396 18.0185 17.1693 18.6399 16.9455 19.2327C16.7287 19.8072 16.4208 20.2164 16.1728 20.4751L8.95264 13.5564ZM7.23342 18.4865C7.41735 20.2279 8.27459 21.5832 9.25006 22.518L16.1688 15.2978C16.5454 15.6587 17.0669 16.383 17.1781 17.4361L7.23342 18.4865ZM20.3116 20.6026L19.3985 19.7277L12.4798 26.9478L13.3929 27.8228L20.3116 20.6026ZM19.5493 26.7971L24.6667 21.4567L17.4465 14.538L12.3291 19.8784L19.5493 26.7971ZM17.5972 21.6074L18.5103 22.4824L25.4291 15.2623L24.516 14.3873L17.5972 21.6074ZM18.3596 15.413L13.2422 20.7534L20.4624 27.6721L25.5798 22.3317L18.3596 15.413ZM25.9501 19.9693C25.3419 20.6039 24.4158 21.1397 23.2829 21.2422L22.3824 11.2828C20.8764 11.419 19.6218 12.1197 18.7299 13.0505L25.9501 19.9693ZM23.193 21.2495C21.5864 21.3655 20.4508 20.6116 19.9247 20.1074L26.8434 12.8872C25.9618 12.0424 24.4587 11.132 22.4724 11.2755L23.193 21.2495ZM19.9247 20.1074C19.3985 19.6031 18.5968 18.5007 18.6443 16.8907L28.64 17.1855C28.6987 15.1949 27.725 13.732 26.8434 12.8872L19.9247 20.1074ZM18.6443 16.8907C18.6597 16.3687 18.7731 15.8284 18.9992 15.3097C19.2228 14.7968 19.5188 14.391 19.8108 14.0863L27.031 21.005C27.9576 20.038 28.5949 18.7138 28.64 17.1855L18.6443 16.8907ZM19.8108 14.0863C20.102 13.7824 20.5009 13.4626 21.0191 13.2126C21.5448 12.959 22.1024 12.8217 22.6492 12.7912L23.2067 22.7756C24.7848 22.6875 26.1049 21.9714 27.031 21.005L19.8108 14.0863ZM22.6492 12.7912C24.2464 12.702 25.3495 13.4628 25.8407 13.9336L18.922 21.1537C19.7686 21.965 21.2361 22.8857 23.2067 22.7756L22.6492 12.7912ZM25.8407 13.9336C26.332 14.4043 27.1391 15.474 27.1181 17.0735L17.1189 16.942C17.093 18.9155 18.0754 20.3425 18.922 21.1537L25.8407 13.9336ZM27.1161 17.1641C27.0787 18.3596 26.557 19.3359 25.9501 19.9693L18.7299 13.0505C17.8392 13.98 17.1698 15.2882 17.121 16.8514L27.1161 17.1641ZM24.4085 26.2462C24.5319 26.1175 24.5642 26.115 24.4896 26.1578C24.4041 26.2067 24.2306 26.2842 23.9871 26.3194L22.5582 16.422C20.2973 16.7484 18.5127 17.9454 17.1883 19.3275L24.4085 26.2462ZM24.003 26.317C23.7749 26.3507 23.4045 26.3553 22.9737 26.2187C22.5416 26.0818 22.2345 25.8618 22.0573 25.692L28.9761 18.4718C27.2227 16.7916 24.9245 16.0726 22.5424 16.4243L24.003 26.317ZM22.0573 25.692C21.9552 25.5941 21.7546 25.3661 21.5961 24.9901C21.4316 24.6 21.3762 24.2008 21.3957 23.8605L31.3793 24.4338C31.5178 22.0218 30.5251 19.9562 28.9761 18.4718L22.0573 25.692ZM29.9976 27.6065L32.6651 24.8228L25.4449 17.9041L22.7774 20.6878L29.9976 27.6065ZM25.5956 24.9735L26.5087 25.8485L33.4275 18.6283L32.5144 17.7533L25.5956 24.9735ZM26.358 18.779L19.0933 26.3602L26.3135 33.279L33.5782 25.6978L26.358 18.779ZM26.1628 26.2095L25.3237 25.4055L18.405 32.6256L19.244 33.4297L26.1628 26.2095ZM25.7312 32.1853L26.2354 31.5702L18.5017 25.2307L17.9975 25.8458L25.7312 32.1853ZM21.7591 23.4377C22.1136 23.3942 22.5323 23.4286 22.9429 23.5783C23.336 23.7215 23.5702 23.9145 23.6596 24.0002L16.7408 31.2203C18.3201 32.7337 20.4907 33.6686 22.978 33.3632L21.7591 23.4377ZM23.6596 24.0002C23.8581 24.1904 24.0966 24.5046 24.2503 24.9369C24.4021 25.3634 24.407 25.7234 24.3851 25.9281L14.4415 24.8682C14.1901 27.2266 14.959 29.5129 16.7408 31.2203L23.6596 24.0002ZM24.3829 25.9484C24.3586 26.1681 24.2952 26.3272 24.2543 26.4061C24.2186 26.4748 24.2223 26.4405 24.3423 26.3153L17.1221 19.3966C15.7933 20.7833 14.6921 22.6045 14.4437 24.8479L24.3829 25.9484ZM24.3423 26.3153L24.4085 26.2462L17.1883 19.3275L17.1221 19.3966L24.3423 26.3153ZM18.0021 20.3061C16.9917 21.3605 15.9366 22.8858 15.6693 24.8833L25.581 26.2094C25.4695 27.0433 25.0723 27.3813 25.2223 27.2248L18.0021 20.3061ZM15.6693 24.8833C15.37 27.1203 16.1721 29.1889 17.7104 30.663L24.6292 23.4428C24.8844 23.6874 25.1989 24.0891 25.4051 24.6596C25.614 25.2372 25.6379 25.7844 25.581 26.2094L15.6693 24.8833ZM17.7104 30.663C18.5545 31.4718 19.6704 32.1666 21.0518 32.4652C22.4303 32.7631 23.7274 32.5918 24.8199 32.2139L21.5512 22.7632C21.879 22.6499 22.4578 22.5382 23.1644 22.6909C23.8738 22.8442 24.3642 23.189 24.6292 23.4428L17.7104 30.663ZM26.7956 30.948L29.1462 28.4949L21.9261 21.5762L19.5754 24.0292L26.7956 30.948ZM30.3589 26.3549C30.6589 25.2586 30.7451 23.9827 30.3832 22.6556C30.0202 21.325 29.2937 20.2626 28.4606 19.4643L21.5418 26.6844C21.2747 26.4285 20.9203 25.9641 20.7356 25.2872C20.552 24.6139 20.6228 24.0474 20.7134 23.7162L30.3589 26.3549ZM28.4606 19.4643C26.9223 17.9902 24.8103 17.2613 22.5622 17.6709L24.3543 27.509C23.9247 27.5872 23.3713 27.587 22.7821 27.402C22.202 27.2199 21.7905 26.9228 21.5418 26.6844L28.4606 19.4643ZM22.5622 17.6709C20.4959 18.0473 18.9831 19.2824 18.0021 20.3061L25.2223 27.2248C25.3449 27.0969 25.3564 27.1107 25.2465 27.1807C25.1328 27.2531 24.8304 27.4222 24.3543 27.509L22.5622 17.6709Z" fill="white" mask="url(#path-1-outside-1)"/>
</svg>
