<svg width="45" height="45" viewBox="0 0 45 45" fill="none" xmlns="http://www.w3.org/2000/svg">
<mask id="path-1-outside-1" maskUnits="userSpaceOnUse" x="-0.00640869" y="0.0214844" width="45" height="45" fill="black">
<rect fill="white" x="-0.00640869" y="0.0214844" width="45" height="45"/>
<path d="M10.3897 10.1198C9.81424 9.09963 9.50759 8.24168 9.46972 7.54591C9.4383 6.85008 9.66551 6.25528 10.1513 5.76151C10.7011 5.20277 11.3775 4.96043 12.1805 5.03448C12.99 5.10849 13.7521 5.49708 14.4667 6.20026C14.954 6.6797 15.295 7.20061 15.4897 7.76299C15.6876 8.32856 15.7275 8.8793 15.6094 9.41521C15.4946 9.95431 15.2437 10.4204 14.857 10.8135L13.9166 9.88815C14.3385 9.45935 14.5328 8.98888 14.4997 8.47676C14.4697 7.96139 14.2062 7.45919 13.7092 6.97016C13.2479 6.51629 12.7867 6.26383 12.3254 6.21278C11.8706 6.16168 11.4658 6.31643 11.111 6.67701C10.8266 6.96613 10.7071 7.33125 10.7525 7.77237C10.8045 8.21345 11.0429 8.80609 11.4679 9.55029C11.8961 10.2977 12.1768 10.9351 12.31 11.4625C12.4496 11.9899 12.4679 12.4651 12.365 12.8881C12.2653 13.3143 12.0381 13.7076 11.6833 14.0682C11.1176 14.6432 10.4396 14.884 9.64928 14.7905C8.86218 14.6937 8.09343 14.2762 7.34303 13.5378C6.85576 13.0584 6.49206 12.5183 6.25194 11.9177C6.01502 11.3137 5.94105 10.7359 6.03003 10.1841C6.12227 9.6355 6.37135 9.15493 6.77727 8.74237L7.71771 9.66769C7.29581 10.0965 7.11935 10.591 7.18834 11.1511C7.26378 11.7113 7.56625 12.2518 8.09575 12.7728C8.58952 13.2587 9.06706 13.5303 9.52836 13.5878C9.98965 13.6453 10.3913 13.5002 10.7333 13.1527C11.0753 12.8051 11.2172 12.4172 11.1589 11.9891C11.1039 11.5577 10.8475 10.9346 10.3897 10.1198Z"/>
<path d="M13.1634 19.2647C12.4488 18.5615 12.0974 17.7555 12.1094 16.8466C12.1245 15.9345 12.5189 15.0853 13.2924 14.2992L13.4554 14.1335C13.97 13.6105 14.5277 13.2419 15.1286 13.0275C15.736 12.8131 16.3318 12.7664 16.916 12.8873C17.5067 13.0082 18.0116 13.2748 18.4307 13.6872C19.1161 14.3616 19.4267 15.1115 19.3625 15.937C19.2983 16.7626 18.8523 17.596 18.0245 18.4373L17.6553 18.8125L14.0836 15.2982C13.5852 15.8308 13.3223 16.4001 13.295 17.0062C13.2741 17.6122 13.4878 18.1357 13.9361 18.5768C14.2545 18.8901 14.588 19.0904 14.9368 19.1778C15.2855 19.2652 15.6482 19.2832 16.0248 19.2318L16.1535 20.2024C15.0437 20.4466 14.047 20.1341 13.1634 19.2647ZM17.7019 14.4278C17.3381 14.0698 16.9017 13.9026 16.3927 13.926C15.8869 13.9463 15.3699 14.1664 14.8416 14.5864L17.4826 17.1849L17.5497 17.1167C17.9744 16.6331 18.1993 16.1576 18.2246 15.6901C18.253 15.2193 18.0788 14.7986 17.7019 14.4278Z"/>
<path d="M23.4032 20.3635C23.2891 20.2065 23.1525 20.0497 22.9933 19.8931C22.4021 19.3114 21.7532 19.1684 21.0466 19.4641L17.3645 23.2064L16.4631 22.3194L21.6506 17.0471L22.5277 17.9101L21.943 18.5336C22.7021 18.3534 23.3529 18.5302 23.8954 19.064C24.0708 19.2366 24.1816 19.3904 24.2278 19.5254L23.4032 20.3635Z"/>
<path d="M22.2696 22.7581C23.0783 21.9362 23.9108 21.4703 24.7671 21.3602C25.6266 21.2469 26.3698 21.4987 26.9968 22.1155C27.64 22.7484 27.9181 23.4696 27.8312 24.2792L28.4504 23.7376L29.2739 24.5479L24.211 29.6935C23.5398 30.3757 22.8078 30.7135 22.015 30.7071C21.2254 30.7038 20.4896 30.3666 19.8074 29.6954C19.4273 29.3214 19.1352 28.8742 18.9312 28.3538C18.7272 27.8334 18.6684 27.3376 18.7548 26.8664L19.7548 26.7858C19.6715 27.6437 19.9092 28.3475 20.468 28.8972C20.9065 29.3287 21.3691 29.5409 21.8556 29.5337C22.3454 29.5298 22.8109 29.3036 23.252 28.8553L23.6978 28.4022C22.9281 28.4632 22.2314 28.1869 21.6077 27.5732C20.9905 26.9659 20.7347 26.2252 20.8405 25.351C20.9494 24.48 21.4258 23.6157 22.2696 22.7581ZM23.0753 23.7522C22.4903 24.3467 22.1519 24.9343 22.0599 25.5151C21.9712 26.0927 22.146 26.5972 22.5846 27.0287C23.1531 27.588 23.8246 27.7405 24.5992 27.4861L26.9676 25.079C27.1869 24.3038 27.0205 23.6445 26.4682 23.1011C26.0297 22.6696 25.5191 22.503 24.9366 22.6011C24.3542 22.6993 23.7337 23.083 23.0753 23.7522Z"/>
<path d="M27.6425 33.511C26.9278 32.8078 26.5765 32.0018 26.5885 31.0929C26.6036 30.1808 26.998 29.3316 27.7715 28.5455L27.9345 28.3798C28.4491 27.8568 29.0068 27.4881 29.6077 27.2738C30.215 27.0594 30.8108 27.0127 31.3951 27.1336C31.9858 27.2545 32.4907 27.5211 32.9098 27.9335C33.5952 28.6079 33.9058 29.3578 33.8416 30.1833C33.7774 31.0088 33.3314 31.8423 32.5035 32.6836L32.1344 33.0588L28.5627 29.5445C28.0642 30.0771 27.8014 30.6464 27.7741 31.2525C27.7532 31.8585 27.9669 32.382 28.4152 32.8231C28.7336 33.1364 29.0671 33.3367 29.4159 33.4241C29.7646 33.5115 30.1273 33.5295 30.5039 33.4781L30.6326 34.4487C29.5228 34.6929 28.5261 34.3803 27.6425 33.511ZM32.181 28.6741C31.8172 28.3161 31.3808 28.1489 30.8718 28.1723C30.366 28.1925 29.849 28.4127 29.3206 28.8326L31.9617 31.4312L32.0288 31.363C32.4535 30.8794 32.6784 30.4038 32.7036 29.9364C32.7321 29.4656 32.5578 29.0449 32.181 28.6741Z"/>
<path d="M33.8982 36.8753L39.0144 34.1317L39.9792 35.081L31.8713 39.0815C30.6802 39.6358 29.7273 39.5613 29.0127 38.8581L28.8565 38.6757L28.5826 38.2816L29.3018 37.5506L29.5262 37.8098C29.8316 38.1103 30.1295 38.2819 30.4198 38.3247C30.7135 38.3706 31.0769 38.2839 31.5102 38.0645L32.2374 37.725L35.4865 30.6606L36.4708 31.629L33.8982 36.8753Z"/>
</mask>
<path d="M10.3897 10.1198C9.81424 9.09963 9.50759 8.24168 9.46972 7.54591C9.4383 6.85008 9.66551 6.25528 10.1513 5.76151C10.7011 5.20277 11.3775 4.96043 12.1805 5.03448C12.99 5.10849 13.7521 5.49708 14.4667 6.20026C14.954 6.6797 15.295 7.20061 15.4897 7.76299C15.6876 8.32856 15.7275 8.8793 15.6094 9.41521C15.4946 9.95431 15.2437 10.4204 14.857 10.8135L13.9166 9.88815C14.3385 9.45935 14.5328 8.98888 14.4997 8.47676C14.4697 7.96139 14.2062 7.45919 13.7092 6.97016C13.2479 6.51629 12.7867 6.26383 12.3254 6.21278C11.8706 6.16168 11.4658 6.31643 11.111 6.67701C10.8266 6.96613 10.7071 7.33125 10.7525 7.77237C10.8045 8.21345 11.0429 8.80609 11.4679 9.55029C11.8961 10.2977 12.1768 10.9351 12.31 11.4625C12.4496 11.9899 12.4679 12.4651 12.365 12.8881C12.2653 13.3143 12.0381 13.7076 11.6833 14.0682C11.1176 14.6432 10.4396 14.884 9.64928 14.7905C8.86218 14.6937 8.09343 14.2762 7.34303 13.5378C6.85576 13.0584 6.49206 12.5183 6.25194 11.9177C6.01502 11.3137 5.94105 10.7359 6.03003 10.1841C6.12227 9.6355 6.37135 9.15493 6.77727 8.74237L7.71771 9.66769C7.29581 10.0965 7.11935 10.591 7.18834 11.1511C7.26378 11.7113 7.56625 12.2518 8.09575 12.7728C8.58952 13.2587 9.06706 13.5303 9.52836 13.5878C9.98965 13.6453 10.3913 13.5002 10.7333 13.1527C11.0753 12.8051 11.2172 12.4172 11.1589 11.9891C11.1039 11.5577 10.8475 10.9346 10.3897 10.1198Z" fill="#333333"/>
<path d="M13.1634 19.2647C12.4488 18.5615 12.0974 17.7555 12.1094 16.8466C12.1245 15.9345 12.5189 15.0853 13.2924 14.2992L13.4554 14.1335C13.97 13.6105 14.5277 13.2419 15.1286 13.0275C15.736 12.8131 16.3318 12.7664 16.916 12.8873C17.5067 13.0082 18.0116 13.2748 18.4307 13.6872C19.1161 14.3616 19.4267 15.1115 19.3625 15.937C19.2983 16.7626 18.8523 17.596 18.0245 18.4373L17.6553 18.8125L14.0836 15.2982C13.5852 15.8308 13.3223 16.4001 13.295 17.0062C13.2741 17.6122 13.4878 18.1357 13.9361 18.5768C14.2545 18.8901 14.588 19.0904 14.9368 19.1778C15.2855 19.2652 15.6482 19.2832 16.0248 19.2318L16.1535 20.2024C15.0437 20.4466 14.047 20.1341 13.1634 19.2647ZM17.7019 14.4278C17.3381 14.0698 16.9017 13.9026 16.3927 13.926C15.8869 13.9463 15.3699 14.1664 14.8416 14.5864L17.4826 17.1849L17.5497 17.1167C17.9744 16.6331 18.1993 16.1576 18.2246 15.6901C18.253 15.2193 18.0788 14.7986 17.7019 14.4278Z" fill="#333333"/>
<path d="M23.4032 20.3635C23.2891 20.2065 23.1525 20.0497 22.9933 19.8931C22.4021 19.3114 21.7532 19.1684 21.0466 19.4641L17.3645 23.2064L16.4631 22.3194L21.6506 17.0471L22.5277 17.9101L21.943 18.5336C22.7021 18.3534 23.3529 18.5302 23.8954 19.064C24.0708 19.2366 24.1816 19.3904 24.2278 19.5254L23.4032 20.3635Z" fill="#333333"/>
<path d="M22.2696 22.7581C23.0783 21.9362 23.9108 21.4703 24.7671 21.3602C25.6266 21.2469 26.3698 21.4987 26.9968 22.1155C27.64 22.7484 27.9181 23.4696 27.8312 24.2792L28.4504 23.7376L29.2739 24.5479L24.211 29.6935C23.5398 30.3757 22.8078 30.7135 22.015 30.7071C21.2254 30.7038 20.4896 30.3666 19.8074 29.6954C19.4273 29.3214 19.1352 28.8742 18.9312 28.3538C18.7272 27.8334 18.6684 27.3376 18.7548 26.8664L19.7548 26.7858C19.6715 27.6437 19.9092 28.3475 20.468 28.8972C20.9065 29.3287 21.3691 29.5409 21.8556 29.5337C22.3454 29.5298 22.8109 29.3036 23.252 28.8553L23.6978 28.4022C22.9281 28.4632 22.2314 28.1869 21.6077 27.5732C20.9905 26.9659 20.7347 26.2252 20.8405 25.351C20.9494 24.48 21.4258 23.6157 22.2696 22.7581ZM23.0753 23.7522C22.4903 24.3467 22.1519 24.9343 22.0599 25.5151C21.9712 26.0927 22.146 26.5972 22.5846 27.0287C23.1531 27.588 23.8246 27.7405 24.5992 27.4861L26.9676 25.079C27.1869 24.3038 27.0205 23.6445 26.4682 23.1011C26.0297 22.6696 25.5191 22.503 24.9366 22.6011C24.3542 22.6993 23.7337 23.083 23.0753 23.7522Z" fill="#333333"/>
<path d="M27.6425 33.511C26.9278 32.8078 26.5765 32.0018 26.5885 31.0929C26.6036 30.1808 26.998 29.3316 27.7715 28.5455L27.9345 28.3798C28.4491 27.8568 29.0068 27.4881 29.6077 27.2738C30.215 27.0594 30.8108 27.0127 31.3951 27.1336C31.9858 27.2545 32.4907 27.5211 32.9098 27.9335C33.5952 28.6079 33.9058 29.3578 33.8416 30.1833C33.7774 31.0088 33.3314 31.8423 32.5035 32.6836L32.1344 33.0588L28.5627 29.5445C28.0642 30.0771 27.8014 30.6464 27.7741 31.2525C27.7532 31.8585 27.9669 32.382 28.4152 32.8231C28.7336 33.1364 29.0671 33.3367 29.4159 33.4241C29.7646 33.5115 30.1273 33.5295 30.5039 33.4781L30.6326 34.4487C29.5228 34.6929 28.5261 34.3803 27.6425 33.511ZM32.181 28.6741C31.8172 28.3161 31.3808 28.1489 30.8718 28.1723C30.366 28.1925 29.849 28.4127 29.3206 28.8326L31.9617 31.4312L32.0288 31.363C32.4535 30.8794 32.6784 30.4038 32.7036 29.9364C32.7321 29.4656 32.5578 29.0449 32.181 28.6741Z" fill="#333333"/>
<path d="M33.8982 36.8753L39.0144 34.1317L39.9792 35.081L31.8713 39.0815C30.6802 39.6358 29.7273 39.5613 29.0127 38.8581L28.8565 38.6757L28.5826 38.2816L29.3018 37.5506L29.5262 37.8098C29.8316 38.1103 30.1295 38.2819 30.4198 38.3247C30.7135 38.3706 31.0769 38.2839 31.5102 38.0645L32.2374 37.725L35.4865 30.6606L36.4708 31.629L33.8982 36.8753Z" fill="#333333"/>
<path d="M10.3897 10.1198C9.81424 9.09963 9.50759 8.24168 9.46972 7.54591C9.4383 6.85008 9.66551 6.25528 10.1513 5.76151C10.7011 5.20277 11.3775 4.96043 12.1805 5.03448C12.99 5.10849 13.7521 5.49708 14.4667 6.20026C14.954 6.6797 15.295 7.20061 15.4897 7.76299C15.6876 8.32856 15.7275 8.8793 15.6094 9.41521C15.4946 9.95431 15.2437 10.4204 14.857 10.8135L13.9166 9.88815C14.3385 9.45935 14.5328 8.98888 14.4997 8.47676C14.4697 7.96139 14.2062 7.45919 13.7092 6.97016C13.2479 6.51629 12.7867 6.26383 12.3254 6.21278C11.8706 6.16168 11.4658 6.31643 11.111 6.67701C10.8266 6.96613 10.7071 7.33125 10.7525 7.77237C10.8045 8.21345 11.0429 8.80609 11.4679 9.55029C11.8961 10.2977 12.1768 10.9351 12.31 11.4625C12.4496 11.9899 12.4679 12.4651 12.365 12.8881C12.2653 13.3143 12.0381 13.7076 11.6833 14.0682C11.1176 14.6432 10.4396 14.884 9.64928 14.7905C8.86218 14.6937 8.09343 14.2762 7.34303 13.5378C6.85576 13.0584 6.49206 12.5183 6.25194 11.9177C6.01502 11.3137 5.94105 10.7359 6.03003 10.1841C6.12227 9.6355 6.37135 9.15493 6.77727 8.74237L7.71771 9.66769C7.29581 10.0965 7.11935 10.591 7.18834 11.1511C7.26378 11.7113 7.56625 12.2518 8.09575 12.7728C8.58952 13.2587 9.06706 13.5303 9.52836 13.5878C9.98965 13.6453 10.3913 13.5002 10.7333 13.1527C11.0753 12.8051 11.2172 12.4172 11.1589 11.9891C11.1039 11.5577 10.8475 10.9346 10.3897 10.1198Z" stroke="white" stroke-width="10" stroke-linecap="round" stroke-linejoin="round" mask="url(#path-1-outside-1)"/>
<path d="M13.1634 19.2647C12.4488 18.5615 12.0974 17.7555 12.1094 16.8466C12.1245 15.9345 12.5189 15.0853 13.2924 14.2992L13.4554 14.1335C13.97 13.6105 14.5277 13.2419 15.1286 13.0275C15.736 12.8131 16.3318 12.7664 16.916 12.8873C17.5067 13.0082 18.0116 13.2748 18.4307 13.6872C19.1161 14.3616 19.4267 15.1115 19.3625 15.937C19.2983 16.7626 18.8523 17.596 18.0245 18.4373L17.6553 18.8125L14.0836 15.2982C13.5852 15.8308 13.3223 16.4001 13.295 17.0062C13.2741 17.6122 13.4878 18.1357 13.9361 18.5768C14.2545 18.8901 14.588 19.0904 14.9368 19.1778C15.2855 19.2652 15.6482 19.2832 16.0248 19.2318L16.1535 20.2024C15.0437 20.4466 14.047 20.1341 13.1634 19.2647ZM17.7019 14.4278C17.3381 14.0698 16.9017 13.9026 16.3927 13.926C15.8869 13.9463 15.3699 14.1664 14.8416 14.5864L17.4826 17.1849L17.5497 17.1167C17.9744 16.6331 18.1993 16.1576 18.2246 15.6901C18.253 15.2193 18.0788 14.7986 17.7019 14.4278Z" stroke="white" stroke-width="10" stroke-linecap="round" stroke-linejoin="round" mask="url(#path-1-outside-1)"/>
<path d="M23.4032 20.3635C23.2891 20.2065 23.1525 20.0497 22.9933 19.8931C22.4021 19.3114 21.7532 19.1684 21.0466 19.4641L17.3645 23.2064L16.4631 22.3194L21.6506 17.0471L22.5277 17.9101L21.943 18.5336C22.7021 18.3534 23.3529 18.5302 23.8954 19.064C24.0708 19.2366 24.1816 19.3904 24.2278 19.5254L23.4032 20.3635Z" stroke="white" stroke-width="10" stroke-linecap="round" stroke-linejoin="round" mask="url(#path-1-outside-1)"/>
<path d="M22.2696 22.7581C23.0783 21.9362 23.9108 21.4703 24.7671 21.3602C25.6266 21.2469 26.3698 21.4987 26.9968 22.1155C27.64 22.7484 27.9181 23.4696 27.8312 24.2792L28.4504 23.7376L29.2739 24.5479L24.211 29.6935C23.5398 30.3757 22.8078 30.7135 22.015 30.7071C21.2254 30.7038 20.4896 30.3666 19.8074 29.6954C19.4273 29.3214 19.1352 28.8742 18.9312 28.3538C18.7272 27.8334 18.6684 27.3376 18.7548 26.8664L19.7548 26.7858C19.6715 27.6437 19.9092 28.3475 20.468 28.8972C20.9065 29.3287 21.3691 29.5409 21.8556 29.5337C22.3454 29.5298 22.8109 29.3036 23.252 28.8553L23.6978 28.4022C22.9281 28.4632 22.2314 28.1869 21.6077 27.5732C20.9905 26.9659 20.7347 26.2252 20.8405 25.351C20.9494 24.48 21.4258 23.6157 22.2696 22.7581ZM23.0753 23.7522C22.4903 24.3467 22.1519 24.9343 22.0599 25.5151C21.9712 26.0927 22.146 26.5972 22.5846 27.0287C23.1531 27.588 23.8246 27.7405 24.5992 27.4861L26.9676 25.079C27.1869 24.3038 27.0205 23.6445 26.4682 23.1011C26.0297 22.6696 25.5191 22.503 24.9366 22.6011C24.3542 22.6993 23.7337 23.083 23.0753 23.7522Z" stroke="white" stroke-width="10" stroke-linecap="round" stroke-linejoin="round" mask="url(#path-1-outside-1)"/>
<path d="M27.6425 33.511C26.9278 32.8078 26.5765 32.0018 26.5885 31.0929C26.6036 30.1808 26.998 29.3316 27.7715 28.5455L27.9345 28.3798C28.4491 27.8568 29.0068 27.4881 29.6077 27.2738C30.215 27.0594 30.8108 27.0127 31.3951 27.1336C31.9858 27.2545 32.4907 27.5211 32.9098 27.9335C33.5952 28.6079 33.9058 29.3578 33.8416 30.1833C33.7774 31.0088 33.3314 31.8423 32.5035 32.6836L32.1344 33.0588L28.5627 29.5445C28.0642 30.0771 27.8014 30.6464 27.7741 31.2525C27.7532 31.8585 27.9669 32.382 28.4152 32.8231C28.7336 33.1364 29.0671 33.3367 29.4159 33.4241C29.7646 33.5115 30.1273 33.5295 30.5039 33.4781L30.6326 34.4487C29.5228 34.6929 28.5261 34.3803 27.6425 33.511ZM32.181 28.6741C31.8172 28.3161 31.3808 28.1489 30.8718 28.1723C30.366 28.1925 29.849 28.4127 29.3206 28.8326L31.9617 31.4312L32.0288 31.363C32.4535 30.8794 32.6784 30.4038 32.7036 29.9364C32.7321 29.4656 32.5578 29.0449 32.181 28.6741Z" stroke="white" stroke-width="10" stroke-linecap="round" stroke-linejoin="round" mask="url(#path-1-outside-1)"/>
<path d="M33.8982 36.8753L39.0144 34.1317L39.9792 35.081L31.8713 39.0815C30.6802 39.6358 29.7273 39.5613 29.0127 38.8581L28.8565 38.6757L28.5826 38.2816L29.3018 37.5506L29.5262 37.8098C29.8316 38.1103 30.1295 38.2819 30.4198 38.3247C30.7135 38.3706 31.0769 38.2839 31.5102 38.0645L32.2374 37.725L35.4865 30.6606L36.4708 31.629L33.8982 36.8753Z" stroke="white" stroke-width="10" stroke-linecap="round" stroke-linejoin="round" mask="url(#path-1-outside-1)"/>
</svg>
